<?xml version="1.0" encoding="utf-8"?>
<!-- Generator: Adobe Illustrator 23.1.0, SVG Export Plug-In . SVG Version: 6.00 Build 0)  -->
<svg version="1.1" id="Layer_1" xmlns="http://www.w3.org/2000/svg" xmlns:xlink="http://www.w3.org/1999/xlink" x="0px" y="0px"
	 viewBox="0 0 868 703" style="enable-background:new 0 0 868 703;" xml:space="preserve">
<style type="text/css">
	.st0{fill:#3B3F40;}
	.st1{fill:#F2F2EB;}
</style>
<g>
	<g>
		<path class="st0" d="M124.4,697.1c-15.8,0-31.4-7.5-41.1-21.5C33.6,604,7.4,520,7.4,432.6c0-57.6,11.3-113.5,33.5-166.1
			c21.5-50.8,52.2-96.4,91.4-135.6c39.2-39.2,84.8-69.9,135.6-91.4C320.5,17.2,376.4,5.9,434,5.9s113.5,11.3,166.1,33.5
			c50.8,21.5,96.4,52.2,135.6,91.4c39.2,39.2,69.9,84.8,91.4,135.6c22.3,52.6,33.5,108.5,33.5,166.1c0,87.4-26.2,171.4-75.9,243
			c-15.7,22.7-46.9,28.3-69.6,12.6c-22.7-15.7-28.3-46.9-12.6-69.6c38-54.7,58.1-119,58.1-185.9c0-180.1-146.5-326.6-326.6-326.6
			S107.4,252.5,107.4,432.6c0,66.9,20.1,131.2,58.1,185.9c15.7,22.7,10.1,53.8-12.6,69.6C144.1,694.2,134.2,697.1,124.4,697.1z"/>
	</g>
</g>
</svg>
