<?xml version="1.0" encoding="utf-8"?>
<!-- Generator: Adobe Illustrator 23.1.0, SVG Export Plug-In . SVG Version: 6.00 Build 0)  -->
<svg version="1.1" id="Layer_1" xmlns="http://www.w3.org/2000/svg" xmlns:xlink="http://www.w3.org/1999/xlink" x="0px" y="0px"
	 viewBox="0 0 868 703" style="enable-background:new 0 0 868 703;" xml:space="preserve">
<style type="text/css">
	.st0{fill:#3B3F40;}
</style>
<g>
	<path class="st0" d="M122.3,697c-15.9,0-31.6-7.6-41.3-21.7C33.6,606,7.8,525,6.5,440.9c0-0.3,0-0.5,0-0.8V434
		c0-76,20.2-150.7,58.5-215.9c37.1-63.3,90.2-116.3,153.5-153.3c23.8-13.9,54.5-5.9,68.4,17.9c13.9,23.8,5.9,54.5-17.9,68.4
		c-100.2,58.6-162.4,167-162.4,282.9v5.7c1.1,64.2,20.8,126.1,57,179c15.6,22.8,9.8,53.9-13,69.5C141.9,694.2,132.1,697,122.3,697z"
		/>
</g>
</svg>
