<?xml version="1.0" encoding="utf-8"?>
<!-- Generator: Adobe Illustrator 26.0.0, SVG Export Plug-In . SVG Version: 6.00 Build 0)  -->
<svg version="1.1" id="Layer_1" xmlns="http://www.w3.org/2000/svg" xmlns:xlink="http://www.w3.org/1999/xlink" x="0px" y="0px"
	 viewBox="0 0 1125 2436" style="enable-background:new 0 0 1125 2436;" xml:space="preserve">
<style type="text/css">
	.st0{fill:#72736F;}
	.st1{fill:#303E6D;}
	.st2{fill:#394872;}
	.st3{fill:#272C33;}
	.st4{fill:#1D2126;}
	.st5{fill:#6371AD;}
	.st6{fill:#EAEAEA;}
	.st7{fill:#5869A0;}
	.st8{fill:#D9D8D7;}
	.st9{fill:none;stroke:#F2F2EB;stroke-width:10;stroke-miterlimit:10;}
	.st10{fill:#BABABA;}
	.st11{fill:#DDDDDD;}
	.st12{fill:#CCCCCC;}
	.st13{fill:#E8E8E8;}
</style>
<g>
	
		<ellipse transform="matrix(0.9659 -0.2589 0.2589 0.9659 -290.8621 178.3575)" class="st0" cx="531.73" cy="1193.47" rx="314.5" ry="351"/>
	<g>
		<g>
			<path class="st1" d="M945.48,1382.41H785.35c-5.49,0-9.93-4.45-9.93-9.93v-140.13c0-5.49,4.45-9.93,9.93-9.93h160.13
				c5.49,0,9.93,4.45,9.93,9.93v140.13C955.42,1377.96,950.97,1382.41,945.48,1382.41z"/>
			<path class="st1" d="M923.98,1237.41H806.85c-2.45,0-4.43-1.99-4.43-4.43v-39.13c0-2.45,1.99-4.43,4.43-4.43h117.13
				c2.45,0,4.43,1.99,4.43,4.43v39.13C928.42,1235.42,926.43,1237.41,923.98,1237.41z"/>
			<path class="st2" d="M926.57,1214.41h-122.3c-3.51,0-6.35-2.84-6.35-6.35v-4.3c0-3.51,2.84-6.35,6.35-6.35h122.3
				c3.51,0,6.35,2.84,6.35,6.35v4.3C932.92,1211.56,930.08,1214.41,926.57,1214.41z"/>
		</g>
		<g>
			<path class="st3" d="M937.84,1210.77v-33.11c0-0.63,0.17-1.22,0.47-1.74c0.53-0.91,0.33-2.06-0.45-2.81
				c-1.73-1.67-4.18-2.71-6.89-2.71h-131.1c-2.71,0-5.15,1.04-6.89,2.71c-0.78,0.75-0.97,1.9-0.45,2.81
				c0.3,0.52,0.47,1.11,0.47,1.74v33.11c0,0.63-0.17,1.22-0.47,1.74c-0.53,0.91-0.33,2.06,0.45,2.81c1.73,1.67,4.18,2.71,6.89,2.71
				h131.1c2.71,0,5.15-1.04,6.89-2.71c0.78-0.75,0.97-1.9,0.45-2.81C938.01,1211.99,937.84,1211.4,937.84,1210.77z"/>
			<g>
				<path class="st4" d="M816.2,1214.56h-9.6c-2.11,0-3.82-1.71-3.82-3.82v-33.05c0-2.11,1.71-3.82,3.82-3.82h9.6
					c2.11,0,3.82,1.71,3.82,3.82v33.05C820.01,1212.85,818.31,1214.56,816.2,1214.56z"/>
				<path class="st4" d="M843.21,1214.56h-9.6c-2.11,0-3.82-1.71-3.82-3.82v-33.05c0-2.11,1.71-3.82,3.82-3.82h9.6
					c2.11,0,3.82,1.71,3.82,3.82v33.05C847.02,1212.85,845.31,1214.56,843.21,1214.56z"/>
				<path class="st4" d="M870.22,1214.56h-9.6c-2.11,0-3.82-1.71-3.82-3.82v-33.05c0-2.11,1.71-3.82,3.82-3.82h9.6
					c2.11,0,3.82,1.71,3.82,3.82v33.05C874.03,1212.85,872.32,1214.56,870.22,1214.56z"/>
				<path class="st4" d="M897.23,1214.56h-9.6c-2.11,0-3.82-1.71-3.82-3.82v-33.05c0-2.11,1.71-3.82,3.82-3.82h9.6
					c2.11,0,3.82,1.71,3.82,3.82v33.05C901.04,1212.85,899.33,1214.56,897.23,1214.56z"/>
				<path class="st4" d="M924.24,1214.56h-9.6c-2.11,0-3.82-1.71-3.82-3.82v-33.05c0-2.11,1.71-3.82,3.82-3.82h9.6
					c2.11,0,3.82,1.71,3.82,3.82v33.05C928.05,1212.85,926.34,1214.56,924.24,1214.56z"/>
			</g>
		</g>
		<g>
			<path class="st5" d="M927.44,1276.71h-11.3c-9.91-12.7-28.89-21.3-50.69-21.3s-40.79,8.6-50.69,21.3h-11.3
				c-3.67,0-6.65,2.98-6.65,6.65v26.94c0,3.67,2.98,6.65,6.65,6.65h11.3c9.91,12.7,28.89,21.3,50.69,21.3s40.79-8.6,50.69-21.3h11.3
				c3.67,0,6.65-2.98,6.65-6.65v-26.94C934.09,1279.69,931.12,1276.71,927.44,1276.71z"/>
			<path class="st6" d="M865.45,1326.42c-17.46,0-33.31-6.42-41.36-16.75c-2.24-2.88-5.69-4.56-9.33-4.56h-6.12v-16.57h6.12
				c3.65,0,7.09-1.68,9.33-4.56c8.05-10.33,23.9-16.75,41.36-16.75c17.46,0,33.31,6.42,41.36,16.75c2.24,2.88,5.69,4.56,9.33,4.56
				h6.12v16.57h-6.12c-3.65,0-7.09,1.68-9.33,4.56C898.75,1320,882.91,1326.42,865.45,1326.42z"/>
			<g>
				<path class="st7" d="M844.26,1307.18h-13.38l0.13-0.46c0.13,0,0.31,0,0.54-0.01s0.61-0.05,1.15-0.11
					c0.54-0.07,0.95-0.22,1.24-0.47s0.54-0.66,0.76-1.25l0.43-1.31l3.8-13.49l0.31-1.31c0.11-0.61,0.11-1.03-0.02-1.26
					c-0.13-0.24-0.48-0.39-1.04-0.47l-1.49-0.11l0.13-0.46h13.2l-0.13,0.46l-1.55,0.09c-0.6,0.06-1.03,0.19-1.29,0.41
					c-0.26,0.22-0.5,0.65-0.74,1.29l-0.42,1.31l-3.8,13.61l-0.31,1.31c-0.12,0.63-0.1,1.05,0.06,1.26c0.16,0.22,0.52,0.37,1.08,0.44
					l1.45,0.08L844.26,1307.18z"/>
				<path class="st7" d="M876.12,1286.93c-0.25,0.02-0.52,0.04-0.82,0.06s-0.72,0.07-1.27,0.16c-0.55,0.09-1.01,0.3-1.38,0.65
					s-0.66,0.83-0.88,1.44l-0.42,1.36l-4.48,16.59h-3.47l-8.72-17.27h-0.11l-3.66,13.26l-0.32,1.36c-0.12,0.63-0.09,1.09,0.08,1.39
					c0.17,0.3,0.51,0.5,1,0.58c0.5,0.09,0.93,0.14,1.29,0.16s0.61,0.04,0.74,0.06l-0.13,0.46h-8.21l0.13-0.46
					c0.25-0.02,0.53-0.04,0.85-0.06c0.31-0.02,0.87-0.09,1.67-0.21c0.81-0.12,1.43-0.76,1.86-1.92l0.43-1.36l3.57-12.92l0.3-1.31
					c-0.14-0.4-0.33-0.77-0.57-1.11c-0.25-0.34-0.56-0.58-0.93-0.71s-0.74-0.2-1.12-0.2h-0.85l0.13-0.46h10.79l6.6,13.07h0.11
					l2.45-9.06l0.31-1.36c0.11-0.61,0.08-1.07-0.09-1.38c-0.17-0.31-0.5-0.51-0.98-0.6c-0.49-0.09-0.88-0.14-1.18-0.16
					c-0.31-0.02-0.59-0.04-0.85-0.06l0.12-0.46h8.12L876.12,1286.93z"/>
				<path class="st7" d="M885.22,1297.53l-1.01,0.91l-1.38,5.2l-0.29,1.31c-0.11,0.63-0.09,1.05,0.05,1.26s0.49,0.37,1.06,0.44
					l1,0.08l-0.12,0.46h-12.67l0.12-0.46l1.45-0.11c0.57-0.07,0.99-0.24,1.28-0.48c0.28-0.25,0.53-0.66,0.75-1.25l0.41-1.31
					l3.61-13.49l0.29-1.31c0.11-0.61,0.09-1.03-0.04-1.26c-0.13-0.24-0.48-0.39-1.05-0.47l-1.44-0.11l0.12-0.46h12.72l-0.12,0.46
					l-1.12,0.09c-0.6,0.06-1.02,0.19-1.28,0.41s-0.5,0.65-0.72,1.29l-0.4,1.31l-2.03,7.67c0.72-0.65,1.72-1.53,3-2.67
					s2.59-2.31,3.94-3.51c1.34-1.2,2.25-2.05,2.73-2.53c0.47-0.48,0.75-0.88,0.83-1.18c0.07-0.27,0.02-0.46-0.15-0.57
					s-0.42-0.19-0.75-0.23l-1.3-0.09l0.12-0.46h7.19l-0.12,0.46c-0.25,0.02-0.51,0.03-0.78,0.04s-0.6,0.05-1,0.13
					s-0.83,0.23-1.29,0.46c-0.46,0.23-1.05,0.64-1.76,1.25l-3.69,3.27l4.59,11.99c0.44,1.08,0.78,1.75,1.04,2.02
					c0.25,0.27,0.56,0.43,0.92,0.5s0.64,0.1,0.84,0.11s0.37,0.02,0.51,0.04l-0.12,0.46H885.5l0.12-0.46l1.21-0.06
					c0.41-0.04,0.71-0.09,0.92-0.17c0.21-0.08,0.35-0.26,0.43-0.54c0.04-0.17,0.05-0.38,0.03-0.64c-0.03-0.25-0.14-0.64-0.35-1.17
					c-0.2-0.52-0.43-1.11-0.68-1.76s-0.6-1.5-1.03-2.55C885.72,1298.79,885.41,1298.02,885.22,1297.53z"/>
			</g>
		</g>
	</g>
	<path class="st8" d="M1007.58,1743.91c85.81,209.18-62.15,304.06-219.5,219.5c-70.26-37.76-190.88-114.81-219.5-219.5
		c-31.97-116.94,98.27-219.5,219.5-219.5S961.57,1631.75,1007.58,1743.91z"/>
	<path class="st9" d="M726.84,1542.15c4.92,305.36-313.89,401.36-480.82,325.43c-177.58-80.78-264.29-364.77-37.28-579.4
		c202.2-191.17,337.75-395.56,480.82-325.43S722.35,1263.92,726.84,1542.15z"/>
	<g>
		<path class="st1" d="M214.58,1413.41l-24.99,5c-5.22,1.04-8.21,6.55-6.26,11.5l125.53,317.63c1.56,3.95,5.78,6.15,9.91,5.16
			l363.62-86.62c5.57-1.33,8.28-7.65,5.39-12.6l-166.85-285.72c-1.79-3.06-5.28-4.7-8.77-4.11L214.58,1413.41z"/>
		<path class="st1" d="M801.64,1320.61l11.62,12.46c0.21,0.23,0.41,0.47,0.58,0.73l181.71,271.1c2.36,3.52,0.29,8.3-3.88,8.99
			l-293.99,48.84c-2.45,0.41-4.89-0.79-6.08-2.97l-161-296.93c-1.94-3.58,0.3-8,4.34-8.55l261.65-35.46
			C798.47,1318.56,800.35,1319.23,801.64,1320.61z"/>
		<path class="st10" d="M302.33,1731.65c0,0,16.25,3.76,23.25,12.76c0,0,192-90.13,364-90.57c0,0,161-58.43,296-47.43
			c0,0,0.9-8.45,5.45-13.22c4.55-4.78,4.55-4.78,4.55-4.78l-273.22-184C722.36,1404.41,266.07,1472.89,302.33,1731.65z"/>
		<path class="st11" d="M517.97,1342.31c115.61-72.91,275.61-36.91,275.61-36.91l207,289c0,0-116-21-311.12,51.96L517.97,1342.31z"
			/>
		<path class="st12" d="M526.95,1364.31c-175.38-33.96-343.65,40.9-343.65,40.9l110.05,331.26c0,0,220.85-124.02,396.23-90.06
			L526.95,1364.31z"/>
		<path class="st11" d="M526.95,1342.31c-175.38-33.96-343.65,40.9-343.65,40.9l110.05,331.26c0,0,220.73-102.06,396.11-68.1
			L526.95,1342.31z"/>
		<path class="st13" d="M517.97,1342.31c115.61-72.91,283.65-49.1,283.65-49.1l206.96,283.2c0,0-113-21-319.12,69.96L517.97,1342.31
			z"/>
		<path class="st13" d="M361.97,1714.47c0,0,203.61-76.19,327.61-60.63C689.58,1653.84,592.36,1618.53,361.97,1714.47z"/>
		<path class="st1" d="M716.54,1668.21l-55.03,10.12c-1.64,0.3-3.22-0.78-3.52-2.43l-1.8-9.79c-0.3-1.64,0.78-3.22,2.43-3.52
			l55.03-10.12c1.64-0.3,3.22,0.78,3.52,2.43l1.8,9.79C719.27,1666.33,718.18,1667.91,716.54,1668.21z"/>
	</g>
</g>
</svg>
