<?xml version="1.0" encoding="utf-8"?>
<!-- Generator: Adobe Illustrator 26.0.0, SVG Export Plug-In . SVG Version: 6.00 Build 0)  -->
<svg version="1.1" id="Layer_1" xmlns="http://www.w3.org/2000/svg" xmlns:xlink="http://www.w3.org/1999/xlink" x="0px" y="0px"
	 viewBox="0 0 463 475" style="enable-background:new 0 0 463 475;" xml:space="preserve">
<style type="text/css">
	.st0{fill:url(#SVGID_1_);}
	.st1{fill:none;stroke:#000000;stroke-width:7;stroke-miterlimit:10;}
	.st2{fill:none;stroke:#000000;stroke-width:18;stroke-miterlimit:10;}
	.st3{fill:none;stroke:#000000;stroke-width:3;stroke-miterlimit:10;}
	.st4{fill:#222626;}
	.st5{fill:#3B3F40;}
	.st6{fill:#72736F;}
	.st7{fill:#F2F2EB;}
	.st8{fill:url(#SVGID_00000096748101316044364030000016857292108244221081_);}
</style>
<linearGradient id="SVGID_1_" gradientUnits="userSpaceOnUse" x1="1272.4103" y1="1.1" x2="1272.4103" y2="467.9412" gradientTransform="matrix(1 0 0 -1 0 476)">
	<stop  offset="0" style="stop-color:#222626"/>
	<stop  offset="1" style="stop-color:#72736F"/>
</linearGradient>
<path class="st0" d="M1470.6,124c-17.6-30.4-43-55.1-74.1-72.5c-3.4-2.6-6.9-5.1-10.4-7.6c-24.3-16.5-51.2-27.5-80-32.6
	c-29.6-5.3-59.8-4.1-89.9,3.6c-31.9,8.1-62.7,23.4-91.6,45.3c-28.1,21.3-49.5,46.2-63.8,74.1c-12.8,25-20,52.5-21.2,81.7
	c-0.5,12.8,0.1,25.9,1.8,39.1c0.5,44.8,14.5,88.8,41,127c32.6,47,84,78.6,144.9,89c14.8,2.5,29.8,3.8,45,3.8
	c46,0,93.1-11.5,136.3-33.6c40.8-21,71.6-60.5,86.6-111.3C1515,263.4,1505.5,184.5,1470.6,124z M1448.1,121.9
	c18,30.5,29.5,60.5,34.6,89.6c-4.2-3.9-9.6-6.7-15.8-7.6c-7.4-1-18.7,0.6-30.6,13.7c-13.9,10.5-21.5,29.8-30.8,53.2
	c-15,37.9-33.6,85.1-88.7,123.8c-49.1,34.5-106.3,29.1-145.6,18.6c-24.8-6.7-45.8-16.2-59.2-23c-5.2-5.8-10.1-11.9-14.6-18.3
	c-32.5-46.9-44.6-103-34.1-158c10.5-54.9,42.4-102.6,89.9-134.2c38-25.3,84.1-38.7,130-38.7c17.4,0,34.8,1.9,51.6,5.9
	C1382.7,58,1422.5,84.5,1448.1,121.9z M1117.8,396.6c13.3,6.4,31.5,14,52.4,19.6c20.3,5.5,39.9,8.2,58.5,8.2c4.7,0,9.3-0.2,13.8-0.5
	c28.3-2.2,53.8-11.1,75.9-26.7c55.9-39.2,74.7-86.9,89.8-125.2c2.1-5.2,4.1-10.3,6-15c-2.3,6.2-4.5,13-6.6,20.3
	c-31.8,112.5-129.3,146.9-158.4,154.8c-28.4,7.7-65,2.4-86.8-2.1C1146,420.9,1131,409.8,1117.8,396.6z M1273.1,456.9
	c-30.4,0-59.8-5.4-86.5-15.8c9.1,1.1,18.8,1.9,28.7,1.9c12.2,0,24.5-1.2,35.8-4.2c17.8-4.8,52.8-17,87.4-44.7
	c37.2-29.8,62.8-68.5,75.9-115c18.5-65.3,42.2-69.5,51.5-68.2c9.1,1.2,16.4,8.6,18.8,16c6.8,69.6-23.9,133.4-91.2,186.1
	c-24.8,19.4-53.9,33.4-84.1,41.4C1297.2,456,1285.1,456.9,1273.1,456.9z M1128.9,65.8c43.8-33.2,92.8-50.7,141.2-50.7
	c11.7,0,23.3,1,34.8,3.1c16,2.9,31.6,7.7,46.4,14.4c-4.1-1.2-8.3-2.3-12.5-3.3c-66.1-15.5-139.2-2.2-195.7,35.4
	c-48,32-81.4,79.2-94.9,133.7C1054.5,150.7,1078.6,104.1,1128.9,65.8z M1400.6,425.4c-13.1,6.7-26.4,12.3-39.9,16.9
	c13.2-6.8,25.7-14.7,37.2-23.7c41.6-32.6,69.8-69.1,84.2-109c-1.1,5.2-2.4,10.4-3.9,15.5C1464.5,371.1,1437,406.7,1400.6,425.4z"/>
<g>
	<path class="st1" d="M-750.4,76.8c75,121.2,51.4,228.1-46.9,307.5c-83.3,67.3-227,80-301.8-50c-48.4-84.1-72.1-214.5,41-303.2
		C-943.2-58.9-812-22.8-750.4,76.8z"/>
	<path class="st2" d="M-732.1,96.7c57.9,103.6,38.6,254.9-56.4,305.3c-110.5,58.5-242.1,37.6-305.3-56.4
		c-67.6-100.6-43.5-236.5,56.4-305.3S-791.3-9.2-732.1,96.7z"/>
	<path class="st1" d="M-1042.6,397.2c0,0,61,18.8,104.3,6.7c43.3-12.1,127.4-53.1,156-157.4c28.6-104.4,75.5-69.3,75.6-46.4"/>
	<path class="st3" d="M-1088.2,351.4c0,0,122.1,80.5,215.2,13s80.3-162.3,123.6-181.9"/>
</g>
<rect x="-545" y="321" class="st4" width="139" height="139"/>
<rect x="-545" y="506" class="st5" width="139" height="139"/>
<rect x="-545" y="691" class="st6" width="139" height="139"/>
<rect x="-545" y="876" class="st7" width="139" height="139"/>
<rect x="-545" y="1061" class="st4" width="139" height="139"/>
<g>
	
		<linearGradient id="SVGID_00000011743647976617104420000002215872630587477129_" gradientUnits="userSpaceOnUse" x1="-76.1115" y1="-110.4609" x2="-321.6574" y2="150.6172" gradientTransform="matrix(0.7394 -0.6732 0.6732 0.7394 365.03 37.6713)">
		<stop  offset="0" style="stop-color:#222626"/>
		<stop  offset="1" style="stop-color:#72736F"/>
	</linearGradient>
	<path style="fill:url(#SVGID_00000011743647976617104420000002215872630587477129_);" d="M383.6,98.6c-13-23.6-32-42.8-55.5-56.6
		c-2.5-2.1-5.1-4-7.9-5.9c-18.3-13-38.6-21.7-60.4-26c-22.5-4.4-45.4-3.8-68.4,1.6c-24.4,5.9-48,17.2-70.2,33.7
		c-21.6,16-38.2,34.9-49.5,56.1c-10,19-15.8,40-17.1,62.4c-0.5,9.9-0.1,19.9,1,30.1c-0.2,34.5,9.9,68.3,29.6,98
		c24.2,36.5,62.9,61.4,109,70.1c11.2,2.2,22.6,3.3,34.1,3.5c35,0.6,70.9-7.6,104-24.1c31.3-15.6,55.2-45.5,67.2-84.3
		C415.6,206.2,409.4,145.4,383.6,98.6z M366.5,96.7c13.3,23.6,21.7,46.8,25.1,69.2c-3.2-3-7.3-5.3-11.9-6
		c-5.6-0.8-14.2,0.2-23.4,10.1c-10.7,7.9-16.7,22.6-24.1,40.5c-11.9,28.9-26.6,64.9-69,94c-37.7,25.9-81.1,21.1-110.9,12.5
		c-18.8-5.4-34.7-13-44.7-18.4c-3.9-4.5-7.5-9.2-10.8-14.3C72.5,247.9,64,204.6,72.7,162.5c8.6-42,33.5-78.2,70-101.9
		c29.2-19,64.4-28.7,99.2-28.1c13.2,0.2,26.4,1.9,39.1,5.1C317.6,46.8,347.5,67.7,366.5,96.7z M112.1,303.5
		c10,5.1,23.7,11.1,39.6,15.7c15.3,4.5,30.2,6.8,44.4,7c3.6,0.1,7.1,0,10.5-0.2c21.5-1.4,41-7.8,58-19.6
		c42.9-29.4,57.9-65.8,69.8-95c1.6-4,3.2-7.8,4.8-11.5c-1.9,4.8-3.6,9.9-5.2,15.5c-25.5,86-100.1,111.2-122.3,116.9
		c-21.8,5.5-49.5,1.1-66-2.7C133.2,322.5,121.9,313.8,112.1,303.5z M229.3,351.7c-23.1-0.4-45.4-4.8-65.5-13.2
		c6.9,0.9,14.3,1.7,21.8,1.8c9.3,0.2,18.7-0.6,27.3-2.8c13.6-3.5,40.3-12.4,67-33.2c28.6-22.4,48.5-51.8,59.1-87.3
		c14.9-49.9,32.9-52.8,40-51.7c7,1.1,12.4,6.9,14.1,12.5c4.3,53.5-19.8,102.1-71.6,141.8c-19.1,14.6-41.4,25-64.4,30.7
		C247.7,351.3,238.4,351.8,229.3,351.7z M124.6,49.8c33.7-25,71.2-37.8,108-37.2c8.8,0.1,17.7,1.1,26.4,2.8
		C271,17.8,282.8,21.7,294,27c-3.1-0.9-6.3-1.9-9.4-2.7c-50.1-12.7-105.8-3.4-149.2,24.8c-36.9,24-62.8,59.8-73.8,101.5
		C67,113.9,85.8,78.5,124.6,49.8z M326.6,329c-10.1,5-20.2,9.1-30.5,12.4c10.1-5,19.7-11,28.6-17.8c32.1-24.5,53.9-52.2,65.4-82.7
		c-0.9,4.1-1.9,8-3.2,11.9C375.8,288.2,354.5,315.2,326.6,329z"/>
	<g>
		<path class="st5" d="M96.4,426.9h12.2v3.3H79.9v-3.3h12.6v-7.3h4V426.9z M106.3,445.6c0,6.6-4.9,11.1-11.8,11.1
			c-6.7,0-11.7-4.5-11.7-11.1c0-6.5,5-11.1,11.7-11.1C101.4,434.5,106.3,439.1,106.3,445.6z M102.5,445.6c0-4.5-3.4-7.8-8.1-7.8
			c-4.6,0-7.9,3.3-7.9,7.8c0,4.5,3.4,7.8,7.9,7.8C99.2,453.4,102.5,450.1,102.5,445.6z M125.6,442.6h-8.2v25.1h-4v-48.7h4v20.2h8.2
			V442.6z"/>
		<path class="st5" d="M185.2,452h-20.1v15.8h-3.9V452h-20v-3.3h44.1V452z M175.9,424.3h-29.4v-3.3h33.4v12.5h-29.2v6.5h30.3v3.3
			h-34.3v-13h29.3V424.3z"/>
		<path class="st5" d="M202.4,453.6c8.9,0,21.3,0,31.9-1.7l0.3,2.9c-10.9,2.1-22.9,2.1-31.6,2.1L202.4,453.6z M230.9,434
			c0,6.7-5.4,11.3-13,11.3s-13-4.6-13-11.3c0-6.7,5.4-11.3,13-11.3S230.9,427.3,230.9,434z M208.8,434c0,4.6,3.9,7.9,9.1,7.9
			c5.3,0,9.1-3.3,9.1-7.9c0-4.6-3.8-7.9-9.1-7.9C212.6,426.1,208.8,429.4,208.8,434z M241.5,419.1v48.8h-3.9v-48.8H241.5z"/>
		<path class="st5" d="M306.3,433.5c0,6.7-5.3,11.3-12.6,11.3c-7.3,0-12.6-4.6-12.6-11.3c0-6.7,5.3-11.3,12.6-11.3
			C301,422.2,306.3,426.8,306.3,433.5z M284.9,433.5c0,4.7,3.6,8,8.7,8c5.1,0,8.8-3.3,8.8-8c0-4.6-3.6-8-8.8-8
			C288.6,425.5,284.9,428.9,284.9,433.5z M319.8,458.3c0,5.8-6.2,9.3-16.2,9.3c-10.1,0-16.3-3.5-16.3-9.3c0-5.8,6.2-9.3,16.3-9.3
			C313.6,449.1,319.8,452.6,319.8,458.3z M291.2,458.3c0,3.8,4.8,6.1,12.4,6.1s12.2-2.3,12.2-6.1c0-3.8-4.7-6-12.2-6
			S291.2,454.6,291.2,458.3z M319.7,419.1v29h-4v-29H319.7z"/>
		<path class="st5" d="M384.8,457.5v3.3h-44v-3.3H384.8z M375.3,437.7c0.1-2.6,0.1-5,0.1-7.5v-2.8h-29.2v-3.3h33.1v6.1
			c0,7.1,0,13.7-2,23.6l-4-0.4c1.1-4.7,1.6-8.9,1.8-12.7l-29.6,1.7l-0.6-3.4L375.3,437.7z"/>
	</g>
</g>
</svg>
