<?xml version="1.0" encoding="utf-8"?>
<!-- Generator: Adobe Illustrator 26.0.0, SVG Export Plug-In . SVG Version: 6.00 Build 0)  -->
<svg version="1.1" id="Layer_1" xmlns="http://www.w3.org/2000/svg" xmlns:xlink="http://www.w3.org/1999/xlink" x="0px" y="0px"
	 viewBox="0 0 284 284" style="enable-background:new 0 0 284 284;" xml:space="preserve">
<style type="text/css">
	.st0{fill:#D9D8D7;}
</style>
<g>
	<path class="st0" d="M129,161.5c0-9.25-5.49-16.5-12.5-16.5s-12.5,7.25-12.5,16.5s5.49,16.5,12.5,16.5S129,170.75,129,161.5z
		 M114,161.5c0-4.03,1.86-6.41,2.5-6.5c0.64,0.09,2.5,2.47,2.5,6.5s-1.86,6.41-2.5,6.5C115.86,167.91,114,165.53,114,161.5z"/>
	<path class="st0" d="M185,161.5c0-9.25-5.49-16.5-12.5-16.5s-12.5,7.25-12.5,16.5s5.49,16.5,12.5,16.5S185,170.75,185,161.5z
		 M170,161.5c0-4.03,1.86-6.41,2.5-6.5c0.64,0.09,2.5,2.47,2.5,6.5s-1.86,6.41-2.5,6.5C171.86,167.91,170,165.53,170,161.5z"/>
	<path class="st0" d="M202.11,144.15c-7.15-10.32-15.3-16.25-24.23-17.62c-10.85-1.66-18.63,4.27-18.95,4.52
		c-2.18,1.7-2.57,4.84-0.88,7.02c1.69,2.18,4.84,2.57,7.02,0.88c0.05-0.04,4.75-3.53,11.3-2.53c6.11,0.94,12,5.45,17.52,13.43
		c0.97,1.4,2.53,2.15,4.12,2.15c0.98,0,1.97-0.29,2.84-0.89C203.12,149.54,203.68,146.42,202.11,144.15z"/>
	<path class="st0" d="M87.7,183.25c-1.53,1.35-2.09,3.48-1.42,5.4C86.9,190.42,101.91,232,142,232c39.78,0,58.77-41.19,59.56-42.95
		c0.83-1.84,0.47-4-0.91-5.47s-3.51-1.97-5.4-1.26c-0.23,0.09-23.51,8.68-54.24,8.68c-30.24,0-47.6-8.39-47.76-8.47
		C91.42,181.62,89.22,181.9,87.7,183.25z M141,201c18.8,0,34.82-2.98,45.19-5.58C178.48,206.38,163.7,222,142,222
		c-21.75,0-34.73-15.33-41.18-26.18C109.69,198.33,123.28,201,141,201z"/>
	<path class="st0" d="M219.18,76.37c-1.95-1.96-5.11-1.96-7.07-0.01s-1.96,5.11-0.01,7.07c18.8,18.87,29.15,43.93,29.15,70.57
		c0,55.14-44.86,100-100,100s-100-44.86-100-100c0-11.27,1.88-22.12,5.33-32.23c4.93,1.54,10.42,2.52,16.29,2.3
		c6.86-0.25,13.41-2.08,19.6-5.46c4.72,3.28,10.19,5.72,16.31,7.25c4.75,1.19,9.34,1.77,13.76,1.77c15.13,0,28.11-6.86,37.41-19.82
		c4.91,2.92,11.66,5.01,20.94,5.2c0.04,0,0.07,0,0.11,0c2.71,0,4.94-2.17,5-4.9c0.06-2.76-2.13-5.05-4.89-5.1
		c-6.69-0.14-12.04-1.39-16.01-3.74c0.15-0.29,0.29-0.59,0.44-0.88c7.37-15.15,10.11-36.31,3.06-42.87
		c13.03,2.28,25.49,7.12,36.71,14.34c2.32,1.49,5.42,0.82,6.91-1.5c1.5-2.32,0.82-5.42-1.5-6.91C182.98,50.03,162.42,44,141.25,44
		c-8.83,0-17.42,1.05-25.65,3.03c-0.59-2.04-1.31-3.95-2.13-5.69c-5.02-10.69-13.89-16.81-23.71-16.33
		c-14.24,0.68-24.87,22.44-26.91,43.08c-0.27,2.72-0.43,5.84-0.35,9.2c-8.84,9.07-16.13,19.66-21.44,31.33
		c-6.45-3.41-10.54-7.18-10.63-7.26c-2.01-1.89-5.17-1.79-7.06,0.21c-1.89,2.01-1.8,5.17,0.21,7.07c0.38,0.36,5.57,5.17,13.75,9.33
		c-3.93,11.29-6.07,23.42-6.07,36.03c0,60.65,49.35,110,110,110s110-49.35,110-110C251.25,124.7,239.86,97.13,219.18,76.37z
		 M83.16,106.23c-7.08-7.3-9.69-16.82-10.43-25c9.9-9.33,21.7-16.67,34.75-21.36c0.17,11.38-4.23,25.6-17.17,39.75
		C87.99,102.16,85.61,104.36,83.16,106.23z M147.96,90.94c-0.4-1.03-0.72-2.13-0.95-3.3c-1.91-9.54,2.48-19.59,5.39-23.11
		C153.37,69.03,152.67,79.82,147.96,90.94z M141.25,54c2.72,0,5.43,0.12,8.12,0.34c-0.47,0.23-0.95,0.5-1.41,0.82
		C140,60.6,133.72,78.4,137.88,92.34c0.76,2.57,2.12,5.74,4.5,8.82c-6.88,9.97-19.54,20.4-41.17,15c-3.71-0.93-6.96-2.19-9.79-3.72
		c2.14-1.81,4.23-3.83,6.27-6.06c15.9-17.39,20.61-35.31,19.63-49.47C124.99,55.01,133,54,141.25,54z M90.24,34.99
		c0.18-0.01,0.36-0.01,0.54-0.01c5.44,0,10.51,3.92,13.64,10.6c0.61,1.29,1.14,2.7,1.58,4.21c-12.1,4.1-23.26,10.26-33.06,18.06
		C75.04,49.9,83.98,35.29,90.24,34.99z M64.1,90.44c0.94,4.07,2.36,8.21,4.44,12.24c1.64,3.18,3.61,6.09,5.88,8.71
		c-3.82,1.62-7.78,2.52-11.84,2.68c-4.34,0.17-8.48-0.51-12.27-1.63C53.95,104.49,58.6,97.1,64.1,90.44z"/>
</g>
</svg>
