<?xml version="1.0" encoding="utf-8"?>
<!-- Generator: Adobe Illustrator 23.1.0, SVG Export Plug-In . SVG Version: 6.00 Build 0)  -->
<svg version="1.1" id="Layer_1" xmlns="http://www.w3.org/2000/svg" xmlns:xlink="http://www.w3.org/1999/xlink" x="0px" y="0px"
	 viewBox="0 0 284 284" style="enable-background:new 0 0 284 284;" xml:space="preserve">
<style type="text/css">
	.st0{fill:#D9D8D7;}
</style>
<g>
	<path class="st0" d="M129,162.5c0-9.3-5.5-16.5-12.5-16.5s-12.5,7.2-12.5,16.5c0,9.3,5.5,16.5,12.5,16.5S129,171.8,129,162.5z
		 M114,162.5c0-4,1.9-6.4,2.5-6.5c0.6,0.1,2.5,2.5,2.5,6.5s-1.9,6.4-2.5,6.5C115.9,168.9,114,166.6,114,162.5z"/>
	<path class="st0" d="M185,162.5c0-9.3-5.5-16.5-12.5-16.5s-12.5,7.2-12.5,16.5c0,9.3,5.5,16.5,12.5,16.5S185,171.8,185,162.5z
		 M170,162.5c0-4,1.9-6.4,2.5-6.5c0.6,0.1,2.5,2.5,2.5,6.5s-1.9,6.4-2.5,6.5C171.9,168.9,170,166.6,170,162.5z"/>
	<path class="st0" d="M202.1,145.2c-7.1-10.3-15.3-16.3-24.2-17.6c-10.8-1.7-18.6,4.3-19,4.5c-2.2,1.7-2.6,4.8-0.9,7
		c1.7,2.2,4.8,2.6,7,0.9c0,0,4.8-3.5,11.3-2.5c6.1,0.9,12,5.5,17.5,13.4c1,1.4,2.5,2.2,4.1,2.2c1,0,2-0.3,2.8-0.9
		C203.1,150.6,203.7,147.5,202.1,145.2z"/>
	<path class="st0" d="M87.7,184.3c-1.5,1.3-2.1,3.5-1.4,5.4c0.6,1.8,15.6,43.3,55.7,43.3c39.8,0,58.8-41.2,59.6-42.9
		c0.8-1.8,0.5-4-0.9-5.5c-1.4-1.5-3.5-2-5.4-1.3c-0.2,0.1-23.5,8.7-54.2,8.7c-30.2,0-47.6-8.4-47.8-8.5
		C91.4,182.6,89.2,182.9,87.7,184.3z M141,202c18.8,0,34.9-3,45.2-5.6c-7.7,11-22.4,26.6-44.2,26.6c-21.7,0-34.7-15.3-41.2-26.2
		C109.7,199.4,123.3,202,141,202z"/>
	<path class="st0" d="M219.2,77.4c-2-2-5.1-2-7.1,0c-2,1.9-2,5.1,0,7.1c18.8,18.9,29.2,43.9,29.2,70.6c0,55.1-44.9,100-100,100
		s-100-44.9-100-100c0-11.3,1.9-22.1,5.3-32.2c4.9,1.5,10.4,2.5,16.3,2.3c6.9-0.3,13.4-2.1,19.6-5.5c4.7,3.3,10.2,5.7,16.3,7.2
		c4.7,1.2,9.3,1.8,13.8,1.8c15.1,0,28.1-6.9,37.4-19.8c4.9,2.9,11.7,5,20.9,5.2c0,0,0.1,0,0.1,0c2.7,0,4.9-2.2,5-4.9
		c0.1-2.8-2.1-5-4.9-5.1c-6.7-0.1-12-1.4-16-3.7c0.1-0.3,0.3-0.6,0.4-0.9c7.4-15.1,10.1-36.3,3.1-42.9c13,2.3,25.5,7.1,36.7,14.3
		c2.3,1.5,5.4,0.8,6.9-1.5c1.5-2.3,0.8-5.4-1.5-6.9C183,51.1,162.4,45,141.3,45c-8.8,0-17.4,1.1-25.7,3c-0.6-2-1.3-4-2.1-5.7
		c-5-10.7-13.9-16.8-23.7-16.3c-14.2,0.7-24.9,22.4-26.9,43.1c-0.3,2.7-0.4,5.8-0.4,9.2c-8.8,9.1-16.1,19.7-21.4,31.3
		c-6.4-3.4-10.5-7.2-10.6-7.3c-2-1.9-5.2-1.8-7.1,0.2c-1.9,2-1.8,5.2,0.2,7.1c0.4,0.4,5.6,5.2,13.7,9.3c-3.9,11.3-6.1,23.4-6.1,36
		c0,60.7,49.3,110,110,110s110-49.3,110-110C251.3,125.7,239.9,98.2,219.2,77.4z M83.2,107.3c-7.1-7.3-9.7-16.8-10.4-25
		c9.9-9.3,21.7-16.7,34.8-21.4c0.2,11.4-4.2,25.6-17.2,39.8C88,103.2,85.6,105.4,83.2,107.3z M148,92c-0.4-1-0.7-2.1-1-3.3
		c-1.9-9.5,2.5-19.6,5.4-23.1C153.4,70.1,152.7,80.8,148,92z M141.3,55c2.7,0,5.4,0.1,8.1,0.3c-0.5,0.2-0.9,0.5-1.4,0.8
		c-8,5.4-14.2,23.2-10.1,37.2c0.8,2.6,2.1,5.7,4.5,8.8c-6.9,10-19.5,20.4-41.2,15c-3.7-0.9-7-2.2-9.8-3.7c2.1-1.8,4.2-3.8,6.3-6.1
		c15.9-17.4,20.6-35.3,19.6-49.5C125,56,133,55,141.3,55z M90.2,36c0.2,0,0.4,0,0.5,0c5.4,0,10.5,3.9,13.6,10.6
		c0.6,1.3,1.1,2.7,1.6,4.2c-12.1,4.1-23.3,10.3-33.1,18.1C75.1,50.9,84,36.3,90.2,36z M64.1,91.5c0.9,4.1,2.4,8.2,4.4,12.2
		c1.6,3.2,3.6,6.1,5.9,8.7c-3.8,1.6-7.8,2.5-11.8,2.7c-4.3,0.2-8.5-0.5-12.3-1.6C54,105.5,58.6,98.1,64.1,91.5z"/>
</g>
</svg>
