<?xml version="1.0" encoding="utf-8"?>
<!-- Generator: Adobe Illustrator 26.0.0, SVG Export Plug-In . SVG Version: 6.00 Build 0)  -->
<svg version="1.1" id="Layer_1" xmlns="http://www.w3.org/2000/svg" xmlns:xlink="http://www.w3.org/1999/xlink" x="0px" y="0px"
	 viewBox="0 0 284 284" style="enable-background:new 0 0 284 284;" xml:space="preserve">
<style type="text/css">
	.st0{fill:#D9D8D7;}
</style>
<g>
	<path class="st0" d="M126,161.5c0-9.25-5.49-16.5-12.5-16.5s-12.5,7.25-12.5,16.5s5.49,16.5,12.5,16.5S126,170.75,126,161.5z
		 M113.5,168c-0.64-0.09-2.5-2.47-2.5-6.5s1.86-6.41,2.5-6.5c0.64,0.09,2.5,2.47,2.5,6.5S114.14,167.91,113.5,168z"/>
	<path class="st0" d="M157.68,134.75c-2.63-0.83-5.43,0.64-6.26,3.26c-0.83,2.63,0.63,5.44,3.26,6.27c0.44,0.14,4.18,1.28,9.95,1.97
		c-4.52,2.46-7.63,8.28-7.63,15.24c0,9.25,5.49,16.5,12.5,16.5s12.5-7.25,12.5-16.5c0-6.54-2.75-12.06-6.83-14.74
		c11.05-0.28,24.98-3.19,37.76-13.36c2.16-1.72,2.52-4.87,0.8-7.03s-4.87-2.52-7.03-0.79C184.92,142.92,157.98,134.84,157.68,134.75
		z M169.5,168c-0.64-0.09-2.5-2.47-2.5-6.5s1.86-6.41,2.5-6.5c0.64,0.09,2.5,2.46,2.5,6.5S170.14,167.91,169.5,168z"/>
	<path class="st0" d="M141,221c12.94,0,26-4.02,26-13s-13.06-13-26-13s-26,4.02-26,13S128.06,221,141,221z M141,205
		c7.71,0,13.04,1.68,15.22,3c-2.18,1.32-7.5,3-15.22,3c-7.71,0-13.04-1.68-15.22-3C127.96,206.68,133.29,205,141,205z"/>
	<path class="st0" d="M219.19,76.37c-1.95-1.96-5.11-1.96-7.07-0.01s-1.96,5.11-0.01,7.07c18.8,18.87,29.15,43.93,29.15,70.57
		c0,55.14-44.86,100-100,100s-100-44.86-100-100c0-11.27,1.88-22.12,5.33-32.24c4.93,1.54,10.42,2.52,16.29,2.3
		c6.86-0.25,13.41-2.08,19.6-5.46c4.72,3.28,10.19,5.72,16.31,7.25c4.75,1.19,9.34,1.77,13.76,1.77c15.13,0,28.12-6.86,37.41-19.82
		c4.91,2.92,11.66,5.01,20.94,5.2c0.04,0,0.07,0,0.11,0c2.71,0,4.94-2.17,5-4.9c0.06-2.76-2.13-5.05-4.89-5.1
		c-6.69-0.14-12.04-1.39-16.01-3.74c0.15-0.29,0.29-0.59,0.44-0.88c7.37-15.15,10.11-36.31,3.06-42.87
		c13.03,2.28,25.5,7.12,36.71,14.34c2.32,1.49,5.42,0.82,6.91-1.5c1.5-2.32,0.82-5.42-1.5-6.91C182.98,50.03,162.42,44,141.25,44
		c-8.83,0-17.42,1.05-25.65,3.03c-0.59-2.04-1.31-3.95-2.13-5.69c-5.02-10.69-13.88-16.81-23.71-16.33
		c-14.24,0.68-24.87,22.44-26.91,43.08c-0.27,2.72-0.43,5.84-0.35,9.2c-8.84,9.07-16.13,19.65-21.44,31.33
		c-6.45-3.41-10.54-7.17-10.63-7.26c-2.01-1.89-5.17-1.79-7.06,0.21c-1.89,2.01-1.8,5.17,0.21,7.07c0.38,0.36,5.57,5.17,13.75,9.33
		c-3.93,11.3-6.07,23.42-6.07,36.04c0,60.65,49.35,110,110,110s110-49.35,110-110C251.25,124.7,239.86,97.13,219.19,76.37z
		 M83.16,106.23c-7.08-7.3-9.69-16.82-10.43-25c9.9-9.33,21.7-16.67,34.75-21.36c0.17,11.38-4.23,25.6-17.17,39.75
		C88,102.16,85.61,104.36,83.16,106.23z M147.96,90.94c-0.4-1.03-0.72-2.13-0.95-3.3c-1.91-9.54,2.48-19.59,5.39-23.11
		C153.37,69.03,152.67,79.82,147.96,90.94z M141.25,54c2.72,0,5.43,0.12,8.12,0.34c-0.47,0.23-0.95,0.5-1.41,0.82
		C140,60.6,133.73,78.4,137.88,92.34c0.76,2.57,2.12,5.74,4.5,8.82c-6.88,9.97-19.54,20.4-41.17,15c-3.71-0.93-6.96-2.19-9.79-3.72
		c2.14-1.81,4.23-3.83,6.27-6.06c15.9-17.39,20.61-35.31,19.63-49.47C124.99,55.01,133,54,141.25,54z M90.24,34.99
		c0.18-0.01,0.36-0.01,0.54-0.01c5.44,0,10.51,3.92,13.64,10.6c0.61,1.29,1.14,2.7,1.58,4.21c-12.1,4.1-23.26,10.26-33.06,18.06
		C75.04,49.9,83.98,35.29,90.24,34.99z M64.1,90.44c0.94,4.07,2.36,8.21,4.44,12.24c1.64,3.18,3.61,6.09,5.88,8.71
		c-3.83,1.62-7.78,2.52-11.84,2.68c-4.34,0.17-8.48-0.51-12.27-1.63C53.95,104.49,58.6,97.1,64.1,90.44z"/>
</g>
</svg>
