<?xml version="1.0" encoding="utf-8"?>
<!-- Generator: Adobe Illustrator 23.1.0, SVG Export Plug-In . SVG Version: 6.00 Build 0)  -->
<svg version="1.1" id="Layer_1" xmlns="http://www.w3.org/2000/svg" xmlns:xlink="http://www.w3.org/1999/xlink" x="0px" y="0px"
	 viewBox="0 0 1125 950" style="enable-background:new 0 0 1125 950;" xml:space="preserve">
<style type="text/css">
	.st0{fill:#222626;}
</style>
<path class="st0" d="M0,0v495.1v51.5v173.7c14.5,0.8,29.2,4.3,43,12.1c0,0,0,0,0,0c7.3,3.4,15,8,22.4,14.2
	c47.7,33.5,93,82,166.7,94.5c7.9,1.1,16.1,2,24.7,2.4c2.8,0.1,5.7,0.2,8.5,0.3c1.4,0,2.7,0.1,4.2,0.1c2.3,0,4.6,0.1,6.9,0.1
	c37.9,0,73.5-4.2,104.7-11.6l0,0c0,0,0.1,0,0.2-0.1c6-1.4,11.9-3,17.6-4.6c24.5-5.6,71.4-13.5,122.6-7.2c15.3,1.9,31.1,5,46.7,9.9
	c8,2.7,15.7,5.5,22.9,8.4c1.9,0.8,3.7,1.5,5.4,2.2c8.3,3.5,15.9,7,22.9,10.5l0,0c0,0,0,0,0,0c7,3.5,13.4,6.9,19,10
	c19.2,9.4,46.7,22.8,55.7,26.6c37.5,14.2,83.2,25.3,123.2,16.6c66.2-14.3,114.7-61.7,133.3-82.5c17.5-20.8,33.8-40.8,49.7-54.9
	c8.5-7.6,17.5-13.8,26.5-19.1l0,0c0,0,47.7-30.6,98.1-27.9V546.6v-51.5V0H0z"/>
</svg>
