<?xml version="1.0" encoding="utf-8"?>
<!-- Generator: Adobe Illustrator 26.0.0, SVG Export Plug-In . SVG Version: 6.00 Build 0)  -->
<svg version="1.1" id="Layer_1" xmlns="http://www.w3.org/2000/svg" xmlns:xlink="http://www.w3.org/1999/xlink" x="0px" y="0px"
	 viewBox="0 0 1125 2436" style="enable-background:new 0 0 1125 2436;" xml:space="preserve">
<style type="text/css">
	.st0{fill:#D9D8D7;}
	.st1{fill:none;stroke:#72736F;stroke-width:10;stroke-miterlimit:10;}
	.st2{fill:#6D5844;}
	.st3{fill:#77624D;}
	.st4{fill:#84705A;}
	.st5{fill:#2B2825;}
	.st6{fill:#6D6252;}
	.st7{fill:#E2E2E2;}
	.st8{fill:#272C33;}
	.st9{fill:#3F352B;}
	.st10{fill:#3A3A3A;}
	.st11{fill:#EAEAEA;}
	.st12{fill:#DDDDDD;}
	.st13{fill:#D6D6D6;}
	.st14{fill:#CCCCCC;}
	.st15{fill:#303E6D;}
	.st16{fill:#2D2A27;}
	.st17{fill:#5B5652;}
	.st18{fill:url(#SVGID_1_);}
	.st19{opacity:0.24;fill:#EAEAEA;enable-background:new    ;}
	.st20{fill:#8C8E96;}
	.st21{fill:#75787F;}
	.st22{fill:#546D63;}
	.st23{fill:#3B564C;}
	.st24{fill:#6371AD;}
	.st25{fill:#5869A0;}
</style>
<g>
	
		<ellipse transform="matrix(0.6805 -0.7327 0.7327 0.6805 -983.4173 855.8552)" class="st0" cx="489.75" cy="1555.67" rx="381.86" ry="496.18"/>
	<path class="st1" d="M704.89,1608.18c-313.54,127.71-613.99-252.28-356.51-397.8c170.09-96.13,292.93-256.84,356.52-397.8
		c131.71-292.01,462.84-39.86,356.51,397.8C1014.14,1404.96,885.7,1534.53,704.89,1608.18z"/>
	<g>
		<path class="st2" d="M870.63,1089H254.37c-19.53,0-35.37,15.84-35.37,35.37v321.26c0,19.53,15.84,35.37,35.37,35.37h616.26
			c19.53,0,35.37-15.84,35.37-35.37v-321.26C906,1104.84,890.16,1089,870.63,1089z"/>
		<g>
			<path class="st3" d="M228.39,1478.5h-18.78c-5.58,0-10.11-4.53-10.11-10.11v-391.78c0-5.58,4.53-10.11,10.11-10.11h18.78
				c5.58,0,10.11,4.53,10.11,10.11v391.78C238.5,1473.97,233.97,1478.5,228.39,1478.5z"/>
			<path class="st3" d="M915.39,1478.5h-18.78c-5.58,0-10.11-4.53-10.11-10.11v-391.78c0-5.58,4.53-10.11,10.11-10.11h18.78
				c5.58,0,10.11,4.53,10.11,10.11v391.78C925.5,1473.97,920.97,1478.5,915.39,1478.5z"/>
		</g>
		<path class="st4" d="M901.5,1204.26v18.48c0,2.08-1.68,3.76-3.76,3.76H227.26c-2.08,0-3.76-1.68-3.76-3.76v-18.48
			c0-2.08,1.68-3.76,3.76-3.76h670.48C899.82,1200.5,901.5,1202.18,901.5,1204.26z"/>
		<g>
			<path class="st5" d="M281.54,1204.5h-35.09c-2.19,0-3.96-1.77-3.96-3.96v-175.09c0-2.19,1.77-3.96,3.96-3.96h35.09
				c2.19,0,3.96,1.77,3.96,3.96v175.09C285.5,1202.73,283.73,1204.5,281.54,1204.5z"/>
			<path class="st6" d="M287.5,1110.5h-46c-1.1,0-2-0.9-2-2l0,0c0-1.1,0.9-2,2-2h46c1.1,0,2,0.9,2,2l0,0
				C289.5,1109.6,288.6,1110.5,287.5,1110.5z"/>
			<path class="st7" d="M264.5,1034.5c-5.52,0-10,4.48-10,10s4.48,10,10,10s10-4.48,10-10S270.02,1034.5,264.5,1034.5z
				 M263.5,1044.5c-2.21,0-4-1.79-4-4s1.79-4,4-4s4,1.79,4,4S265.71,1044.5,263.5,1044.5z"/>
			<path class="st6" d="M260.5,1037.5v-17c0-1.1,0.9-2,2-2l0,0c1.1,0,2,0.9,2,2v17c0,1.1-0.9,2-2,2l0,0
				C261.4,1039.5,260.5,1038.6,260.5,1037.5z"/>
		</g>
		<g>
			<path class="st5" d="M331.54,1204.5h-35.09c-2.19,0-3.96-1.77-3.96-3.96v-175.09c0-2.19,1.77-3.96,3.96-3.96h35.09
				c2.19,0,3.96,1.77,3.96,3.96v175.09C335.5,1202.73,333.73,1204.5,331.54,1204.5z"/>
			<path class="st6" d="M337.5,1110.5h-46c-1.1,0-2-0.9-2-2l0,0c0-1.1,0.9-2,2-2h46c1.1,0,2,0.9,2,2l0,0
				C339.5,1109.6,338.6,1110.5,337.5,1110.5z"/>
			<path class="st7" d="M314.5,1034.5c-5.52,0-10,4.48-10,10s4.48,10,10,10s10-4.48,10-10S320.02,1034.5,314.5,1034.5z
				 M313.5,1044.5c-2.21,0-4-1.79-4-4s1.79-4,4-4s4,1.79,4,4S315.71,1044.5,313.5,1044.5z"/>
			<path class="st6" d="M310.5,1037.5v-17c0-1.1,0.9-2,2-2l0,0c1.1,0,2,0.9,2,2v17c0,1.1-0.9,2-2,2l0,0
				C311.4,1039.5,310.5,1038.6,310.5,1037.5z"/>
		</g>
		<g>
			<path class="st8" d="M381.54,1204.5h-35.09c-2.19,0-3.96-1.77-3.96-3.96v-175.09c0-2.19,1.77-3.96,3.96-3.96h35.09
				c2.19,0,3.96,1.77,3.96,3.96v175.09C385.5,1202.73,383.73,1204.5,381.54,1204.5z"/>
			<path class="st6" d="M387.5,1110.5h-46c-1.1,0-2-0.9-2-2l0,0c0-1.1,0.9-2,2-2h46c1.1,0,2,0.9,2,2l0,0
				C389.5,1109.6,388.6,1110.5,387.5,1110.5z"/>
			<path class="st7" d="M364.5,1034.5c-5.52,0-10,4.48-10,10s4.48,10,10,10s10-4.48,10-10S370.02,1034.5,364.5,1034.5z
				 M363.5,1044.5c-2.21,0-4-1.79-4-4s1.79-4,4-4s4,1.79,4,4S365.71,1044.5,363.5,1044.5z"/>
			<path class="st6" d="M360.5,1037.5v-17c0-1.1,0.9-2,2-2l0,0c1.1,0,2,0.9,2,2v17c0,1.1-0.9,2-2,2l0,0
				C361.4,1039.5,360.5,1038.6,360.5,1037.5z"/>
		</g>
		<g>
			<path class="st9" d="M431.54,1204.5h-35.09c-2.19,0-3.96-1.77-3.96-3.96v-175.09c0-2.19,1.77-3.96,3.96-3.96h35.09
				c2.19,0,3.96,1.77,3.96,3.96v175.09C435.5,1202.73,433.73,1204.5,431.54,1204.5z"/>
			<path class="st6" d="M437.5,1110.5h-46c-1.1,0-2-0.9-2-2l0,0c0-1.1,0.9-2,2-2h46c1.1,0,2,0.9,2,2l0,0
				C439.5,1109.6,438.6,1110.5,437.5,1110.5z"/>
			<path class="st7" d="M414.5,1034.5c-5.52,0-10,4.48-10,10s4.48,10,10,10s10-4.48,10-10S420.02,1034.5,414.5,1034.5z
				 M413.5,1044.5c-2.21,0-4-1.79-4-4s1.79-4,4-4s4,1.79,4,4S415.71,1044.5,413.5,1044.5z"/>
			<path class="st6" d="M410.5,1037.5v-17c0-1.1,0.9-2,2-2l0,0c1.1,0,2,0.9,2,2v17c0,1.1-0.9,2-2,2l0,0
				C411.4,1039.5,410.5,1038.6,410.5,1037.5z"/>
		</g>
		<g>
			<path class="st8" d="M560.69,1186.31l-30.32,17.65c-1.89,1.1-4.31,0.46-5.41-1.43l-88.08-151.32c-1.1-1.89-0.46-4.31,1.43-5.41
				l30.32-17.65c1.89-1.1,4.31-0.46,5.41,1.43l88.08,151.32C563.22,1182.79,562.58,1185.21,560.69,1186.31z"/>
			<path class="st6" d="M518.55,1102.08l-39.75,23.14c-0.95,0.56-2.18,0.23-2.73-0.72l0,0c-0.56-0.95-0.23-2.18,0.72-2.73
				l39.75-23.14c0.95-0.56,2.18-0.23,2.73,0.72l0,0C519.83,1100.3,519.5,1101.52,518.55,1102.08z"/>
			<path class="st7" d="M461.37,1050.65c-5.5-0.5-10.37,3.55-10.87,9.05s3.55,10.36,9.05,10.87c5.5,0.5,10.36-3.55,10.87-9.05
				C470.93,1056.01,466.87,1051.15,461.37,1050.65z M459.47,1060.52c-2.2-0.2-3.82-2.15-3.62-4.35s2.15-3.82,4.35-3.62
				s3.82,2.15,3.62,4.35S461.67,1060.72,459.47,1060.52z"/>
			<path class="st6" d="M457.43,1052.82l-6.66-15.64c-0.43-1.02,0.04-2.19,1.06-2.62l0,0c1.02-0.43,2.19,0.04,2.62,1.06l6.66,15.64
				c0.43,1.02-0.04,2.19-1.06,2.62l0,0C459.04,1054.31,457.86,1053.84,457.43,1052.82z"/>
		</g>
		<g>
			<path class="st9" d="M874.93,961H570.66c-3.72,0-6.73,3.01-6.73,6.73v229.05c0,3.72,3.01,6.73,6.73,6.73h304.27
				c3.72,0,6.73-3.01,6.73-6.73V967.73C881.67,964.01,878.65,961,874.93,961z"/>
			<g>
				<g>
					<path class="st3" d="M668.71,1204.5h-88.29c-0.44,0-0.8-0.36-0.8-0.8v-69.75c0-0.44,0.36-0.8,0.8-0.8h88.29
						c0.44,0,0.8,0.36,0.8,0.8v69.75C669.51,1204.14,669.15,1204.5,668.71,1204.5z"/>
					<g>
						<g>
							<circle class="st5" cx="612.06" cy="1160.02" r="5.56"/>
							<circle class="st5" cx="638.93" cy="1160.02" r="5.56"/>
						</g>
						<path class="st10" d="M637.26,1160.18v1.53c0,0.6-0.49,1.09-1.09,1.09h-21.36c-0.6,0-1.09-0.49-1.09-1.09v-1.53
							c0-0.6-0.49-1.09-1.09-1.09h-1.15c-0.6,0-1.09,0.49-1.09,1.09v7.09c0,0.6,0.49,1.09,1.09,1.09h0.58h1.67h23.54h1.67h0.58
							c0.6,0,1.09-0.49,1.09-1.09v-7.09c0-0.6-0.49-1.09-1.09-1.09h-1.15C637.75,1159.09,637.26,1159.58,637.26,1160.18z"/>
					</g>
				</g>
				<g>
					<path class="st3" d="M766.94,1204.5h-88.29c-0.44,0-0.8-0.36-0.8-0.8v-69.75c0-0.44,0.36-0.8,0.8-0.8h88.29
						c0.44,0,0.8,0.36,0.8,0.8v69.75C767.74,1204.14,767.38,1204.5,766.94,1204.5z"/>
					<g>
						<g>
							<circle class="st5" cx="710.29" cy="1160.02" r="5.56"/>
							<circle class="st5" cx="737.16" cy="1160.02" r="5.56"/>
						</g>
						<path class="st10" d="M735.49,1160.18v1.53c0,0.6-0.49,1.09-1.09,1.09h-21.36c-0.6,0-1.09-0.49-1.09-1.09v-1.53
							c0-0.6-0.49-1.09-1.09-1.09h-1.15c-0.6,0-1.09,0.49-1.09,1.09v7.09c0,0.6,0.49,1.09,1.09,1.09h0.58h1.67h23.54h1.67h0.58
							c0.6,0,1.09-0.49,1.09-1.09v-7.09c0-0.6-0.49-1.09-1.09-1.09h-1.15C735.98,1159.09,735.49,1159.58,735.49,1160.18z"/>
					</g>
				</g>
				<g>
					<path class="st3" d="M865.17,1204.5h-88.29c-0.44,0-0.8-0.36-0.8-0.8v-69.75c0-0.44,0.36-0.8,0.8-0.8h88.29
						c0.44,0,0.8,0.36,0.8,0.8v69.75C865.97,1204.14,865.61,1204.5,865.17,1204.5z"/>
					<g>
						<g>
							<circle class="st5" cx="808.52" cy="1160.02" r="5.56"/>
							<circle class="st5" cx="835.39" cy="1160.02" r="5.56"/>
						</g>
						<path class="st10" d="M833.72,1160.18v1.53c0,0.6-0.49,1.09-1.09,1.09h-21.36c-0.6,0-1.09-0.49-1.09-1.09v-1.53
							c0-0.6-0.49-1.09-1.09-1.09h-1.15c-0.6,0-1.09,0.49-1.09,1.09v7.09c0,0.6,0.49,1.09,1.09,1.09h0.58h1.67h23.54h1.67h0.58
							c0.6,0,1.09-0.49,1.09-1.09v-7.09c0-0.6-0.49-1.09-1.09-1.09h-1.15C834.21,1159.09,833.72,1159.58,833.72,1160.18z"/>
					</g>
				</g>
				<g>
					<path class="st3" d="M668.71,1127.58h-88.29c-0.44,0-0.8-0.36-0.8-0.8v-69.75c0-0.44,0.36-0.8,0.8-0.8h88.29
						c0.44,0,0.8,0.36,0.8,0.8v69.75C669.51,1127.22,669.15,1127.58,668.71,1127.58z"/>
					<g>
						<g>
							<circle class="st5" cx="612.06" cy="1083.1" r="5.56"/>
							<circle class="st5" cx="638.93" cy="1083.1" r="5.56"/>
						</g>
						<path class="st10" d="M637.26,1083.27v1.53c0,0.6-0.49,1.09-1.09,1.09h-21.36c-0.6,0-1.09-0.49-1.09-1.09v-1.53
							c0-0.6-0.49-1.09-1.09-1.09h-1.15c-0.6,0-1.09,0.49-1.09,1.09v7.09c0,0.6,0.49,1.09,1.09,1.09h0.58h1.67h23.54h1.67h0.58
							c0.6,0,1.09-0.49,1.09-1.09v-7.09c0-0.6-0.49-1.09-1.09-1.09h-1.15C637.75,1082.18,637.26,1082.66,637.26,1083.27z"/>
					</g>
				</g>
				<g>
					<path class="st3" d="M766.94,1127.58h-88.29c-0.44,0-0.8-0.36-0.8-0.8v-69.75c0-0.44,0.36-0.8,0.8-0.8h88.29
						c0.44,0,0.8,0.36,0.8,0.8v69.75C767.74,1127.22,767.38,1127.58,766.94,1127.58z"/>
					<g>
						<g>
							<circle class="st5" cx="710.29" cy="1083.1" r="5.56"/>
							<circle class="st5" cx="737.16" cy="1083.1" r="5.56"/>
						</g>
						<path class="st10" d="M735.49,1083.27v1.53c0,0.6-0.49,1.09-1.09,1.09h-21.36c-0.6,0-1.09-0.49-1.09-1.09v-1.53
							c0-0.6-0.49-1.09-1.09-1.09h-1.15c-0.6,0-1.09,0.49-1.09,1.09v7.09c0,0.6,0.49,1.09,1.09,1.09h0.58h1.67h23.54h1.67h0.58
							c0.6,0,1.09-0.49,1.09-1.09v-7.09c0-0.6-0.49-1.09-1.09-1.09h-1.15C735.98,1082.18,735.49,1082.66,735.49,1083.27z"/>
					</g>
				</g>
				<g>
					<path class="st3" d="M865.17,1127.58h-88.29c-0.44,0-0.8-0.36-0.8-0.8v-69.75c0-0.44,0.36-0.8,0.8-0.8h88.29
						c0.44,0,0.8,0.36,0.8,0.8v69.75C865.97,1127.22,865.61,1127.58,865.17,1127.58z"/>
					<g>
						<g>
							<circle class="st5" cx="808.52" cy="1083.1" r="5.56"/>
							<circle class="st5" cx="835.39" cy="1083.1" r="5.56"/>
						</g>
						<path class="st10" d="M833.72,1083.27v1.53c0,0.6-0.49,1.09-1.09,1.09h-21.36c-0.6,0-1.09-0.49-1.09-1.09v-1.53
							c0-0.6-0.49-1.09-1.09-1.09h-1.15c-0.6,0-1.09,0.49-1.09,1.09v7.09c0,0.6,0.49,1.09,1.09,1.09h0.58h1.67h23.54h1.67h0.58
							c0.6,0,1.09-0.49,1.09-1.09v-7.09c0-0.6-0.49-1.09-1.09-1.09h-1.15C834.21,1082.18,833.72,1082.66,833.72,1083.27z"/>
					</g>
				</g>
				<g>
					<path class="st3" d="M668.71,1050.67h-88.29c-0.44,0-0.8-0.36-0.8-0.8v-69.75c0-0.44,0.36-0.8,0.8-0.8h88.29
						c0.44,0,0.8,0.36,0.8,0.8v69.75C669.51,1050.31,669.15,1050.67,668.71,1050.67z"/>
					<g>
						<g>
							<circle class="st5" cx="612.06" cy="1006.19" r="5.56"/>
							<circle class="st5" cx="638.93" cy="1006.19" r="5.56"/>
						</g>
						<path class="st10" d="M637.26,1006.35v1.53c0,0.6-0.49,1.09-1.09,1.09h-21.36c-0.6,0-1.09-0.49-1.09-1.09v-1.53
							c0-0.6-0.49-1.09-1.09-1.09h-1.15c-0.6,0-1.09,0.49-1.09,1.09v7.09c0,0.6,0.49,1.09,1.09,1.09h0.58h1.67h23.54h1.67h0.58
							c0.6,0,1.09-0.49,1.09-1.09v-7.09c0-0.6-0.49-1.09-1.09-1.09h-1.15C637.75,1005.26,637.26,1005.75,637.26,1006.35z"/>
					</g>
				</g>
				<g>
					<path class="st3" d="M766.94,1050.67h-88.29c-0.44,0-0.8-0.36-0.8-0.8v-69.75c0-0.44,0.36-0.8,0.8-0.8h88.29
						c0.44,0,0.8,0.36,0.8,0.8v69.75C767.74,1050.31,767.38,1050.67,766.94,1050.67z"/>
					<g>
						<g>
							<circle class="st5" cx="710.29" cy="1006.19" r="5.56"/>
							<circle class="st5" cx="737.16" cy="1006.19" r="5.56"/>
						</g>
						<path class="st10" d="M735.49,1006.35v1.53c0,0.6-0.49,1.09-1.09,1.09h-21.36c-0.6,0-1.09-0.49-1.09-1.09v-1.53
							c0-0.6-0.49-1.09-1.09-1.09h-1.15c-0.6,0-1.09,0.49-1.09,1.09v7.09c0,0.6,0.49,1.09,1.09,1.09h0.58h1.67h23.54h1.67h0.58
							c0.6,0,1.09-0.49,1.09-1.09v-7.09c0-0.6-0.49-1.09-1.09-1.09h-1.15C735.98,1005.26,735.49,1005.75,735.49,1006.35z"/>
					</g>
				</g>
				<g>
					<path class="st3" d="M865.17,1050.67h-88.29c-0.44,0-0.8-0.36-0.8-0.8v-69.75c0-0.44,0.36-0.8,0.8-0.8h88.29
						c0.44,0,0.8,0.36,0.8,0.8v69.75C865.97,1050.31,865.61,1050.67,865.17,1050.67z"/>
					<g>
						<g>
							<circle class="st5" cx="808.52" cy="1006.19" r="5.56"/>
							<circle class="st5" cx="835.39" cy="1006.19" r="5.56"/>
						</g>
						<path class="st10" d="M833.72,1006.35v1.53c0,0.6-0.49,1.09-1.09,1.09h-21.36c-0.6,0-1.09-0.49-1.09-1.09v-1.53
							c0-0.6-0.49-1.09-1.09-1.09h-1.15c-0.6,0-1.09,0.49-1.09,1.09v7.09c0,0.6,0.49,1.09,1.09,1.09h0.58h1.67h23.54h1.67h0.58
							c0.6,0,1.09-0.49,1.09-1.09v-7.09c0-0.6-0.49-1.09-1.09-1.09h-1.15C834.21,1005.26,833.72,1005.75,833.72,1006.35z"/>
					</g>
				</g>
			</g>
		</g>
		<path class="st4" d="M945.5,1473.28v14.93c0,3.75-3.04,6.78-6.78,6.78H186.28c-3.75,0-6.78-3.04-6.78-6.78v-14.93
			c0-3.75,3.04-6.78,6.78-6.78h752.43C942.46,1466.5,945.5,1469.54,945.5,1473.28z"/>
		<g>
			<g>
				<path class="st11" d="M411.86,1437.65c0,0-3.43-1.05-10.27,4.16c18.26,0.86,66.72,9.05,131.61,20.5
					C529.15,1457.41,506.57,1441.69,411.86,1437.65z"/>
				<path class="st12" d="M533.2,1462.31c-33.25-20.31-108.55-19.31-130.12-19.5c-1.64,1.25-3.4,2.81-5.22,4.74
					c31.88,2.2,104.25,11.46,136.12,15.95C533.83,1463.17,533.58,1462.77,533.2,1462.31z"/>
				<path class="st13" d="M391.54,1455.57c31.01,0.23,99.43,5.15,142.71,8.93c0,0,0.03-0.36-0.27-1
					c-34.78-15.5-105.61-17.5-136.12-15.95C395.82,1449.72,393.69,1452.36,391.54,1455.57z"/>
				<path class="st14" d="M388.48,1460.5l145.77,4c-34.3-11.5-113.33-11.5-143.45-8.93C389.78,1457.09,389.5,1458.72,388.48,1460.5z
					"/>
				<path class="st12" d="M435.89,1457.61c0,0,70.77-0.61,98.36,6.89C534.25,1464.5,465.04,1457.22,435.89,1457.61z"/>
			</g>
			<g>
				<path class="st11" d="M656.64,1437.65c0,0,3.43-1.05,10.27,4.16c-18.26,0.86-66.72,9.05-131.61,20.5
					C539.35,1457.41,561.93,1441.69,656.64,1437.65z"/>
				<path class="st12" d="M535.3,1462.31c33.25-20.31,108.55-19.31,130.12-19.5c1.64,1.25,3.4,2.81,5.22,4.74
					c-31.88,2.2-104.25,11.46-136.12,15.95C534.67,1463.17,534.92,1462.77,535.3,1462.31z"/>
				<path class="st13" d="M676.96,1455.57c-31.01,0.23-99.43,5.15-142.71,8.93c0,0-0.03-0.36,0.27-1
					c34.78-15.5,105.61-17.5,136.12-15.95C672.68,1449.72,674.8,1452.36,676.96,1455.57z"/>
				<path class="st14" d="M680.02,1460.5l-145.77,4c34.3-11.5,113.33-11.5,143.45-8.93C678.72,1457.09,678.99,1458.72,680.02,1460.5
					z"/>
				<path class="st12" d="M632.6,1457.61c0,0-70.77-0.61-98.36,6.89C534.25,1464.5,603.46,1457.22,632.6,1457.61z"/>
			</g>
			<path class="st15" d="M680.76,1461.5H542.82c-1.24,0-2.24,1.34-2.24,3H527.9c0-1.66-1-3-2.24-3H387.74c-1.24,0-2.24,1.34-2.24,3
				s1,3,2.24,3h135.7v0.63c0,1.31,0.79,2.37,1.77,2.37h18.09c0.98,0,1.77-1.06,1.77-2.37v-0.63h135.7c1.24,0,2.24-1.34,2.24-3
				S682,1461.5,680.76,1461.5z"/>
			<path class="st11" d="M534.52,1463.5c0,0,20.48-30.5,122.48-33.5c0,0-17.26-1-25,0S556,1435,534.52,1463.5z"/>
		</g>
		<rect x="179.5" y="1488" class="st3" width="766" height="9"/>
		<rect x="223.5" y="1221" class="st3" width="678" height="5.5"/>
		<g>
			<path class="st14" d="M338,1466h-63.5c-0.41,0-0.75-0.33-0.75-0.75v-3.51c0-0.41,0.33-0.75,0.75-0.75H338
				c0.41,0,0.75,0.33,0.75,0.75v3.51C338.75,1465.67,338.42,1466,338,1466z"/>
			<g>
				<path class="st16" d="M340.14,1321.96c-0.84-5.73-2.77-6.42-5.75-6.77s-5.02-0.12-7.16,5.25s-10.6,120.29-10.89,127.01
					c-0.18,4.2,0.48,6.3,1,7.28c0.12,0.45,0.32,0.75,0.57,0.78s0.51-0.21,0.74-0.62c0.73-0.84,1.86-2.73,2.66-6.85
					C322.59,1441.43,340.98,1327.68,340.14,1321.96z"/>
				<path class="st17" d="M337.53,1318.27l-6.9-0.81c-0.84-0.1-1.43-0.86-1.34-1.69l0.04-0.36c0.1-0.84,0.86-1.43,1.69-1.34
					l6.9,0.81c0.84,0.1,1.43,0.86,1.34,1.69l-0.04,0.36C339.12,1317.77,338.37,1318.37,337.53,1318.27z"/>
			</g>
			<path class="st12" d="M344.55,1342h-1.3v111.07c0,2.72-2.21,4.93-4.93,4.93h-64.13c-2.72,0-4.93-2.21-4.93-4.93V1342h-1.3
				c-2.04,0-3.7,1.65-3.7,3.7v6.24v61.37v39.76c0,5.49,4.45,9.93,9.93,9.93h64.13c5.49,0,9.93-4.45,9.93-9.93v-39.76v-61.37v-6.24
				C348.25,1343.65,346.6,1342,344.55,1342z"/>
			<g>
				<path class="st16" d="M309.24,1448.86c2.07,6.03,4.11,6.35,7.1,6.07c2.99-0.28,4.93-0.97,5.85-7.28
					c0.92-6.3-15.92-132.83-17.11-140.18c-0.74-4.6-1.85-6.73-2.57-7.68c-0.22-0.46-0.48-0.74-0.73-0.72s-0.45,0.34-0.58,0.84
					c-0.53,1.07-1.22,3.37-1.1,8.02C300.28,1315.38,307.17,1442.83,309.24,1448.86z"/>
				<path class="st17" d="M312.59,1452.28l6.92-0.65c0.84-0.08,1.58,0.54,1.66,1.38l0.07,0.72c0.08,0.84-0.54,1.58-1.38,1.66
					l-6.92,0.65c-0.84,0.08-1.58-0.54-1.66-1.38l-0.07-0.72C311.14,1453.1,311.75,1452.35,312.59,1452.28z"/>
			</g>
			<g>
				<path class="st8" d="M328.74,1446.1c3.64,5.23,5.69,4.99,8.48,3.9c2.8-1.08,4.48-2.28,3.64-8.6s-51.58-123.44-54.74-130.18
					c-1.97-4.22-3.61-5.97-4.57-6.69c-0.34-0.39-0.66-0.58-0.9-0.49s-0.34,0.46-0.33,0.97c-0.22,1.17-0.25,3.57,1.13,8.02
					C283.69,1320.14,325.11,1440.87,328.74,1446.1z"/>
				<path class="st17" d="M332.91,1448.47l6.48-2.51c0.79-0.3,1.67,0.09,1.97,0.87l0.26,0.68c0.3,0.79-0.09,1.67-0.87,1.97
					l-6.48,2.51c-0.79,0.3-1.67-0.09-1.97-0.87l-0.26-0.68C331.73,1449.66,332.12,1448.78,332.91,1448.47z"/>
			</g>
			<g>
				<g>
					<path class="st16" d="M298.58,1308.43c-0.77-6.32-2.69-7.07-5.67-7.42c-2.98-0.35-5.03-0.08-7.24,5.9
						c-2.21,5.97-12.12,133.23-12.49,140.67c-0.23,4.65,0.4,6.96,0.91,8.05c0.12,0.5,0.31,0.82,0.56,0.85s0.51-0.24,0.75-0.7
						c0.74-0.93,1.9-3.04,2.75-7.62C279.51,1440.85,299.35,1314.76,298.58,1308.43z"/>
					<path class="st17" d="M296.01,1304.39l-6.9-0.81c-0.84-0.1-1.43-0.86-1.34-1.69l0.08-0.72c0.1-0.84,0.86-1.43,1.69-1.34
						l6.9,0.81c0.84,0.1,1.43,0.86,1.34,1.69l-0.08,0.72C297.6,1303.89,296.85,1304.49,296.01,1304.39z"/>
				</g>
				
					<linearGradient id="SVGID_1_" gradientUnits="userSpaceOnUse" x1="312.5362" y1="1136.9678" x2="312.5362" y2="1163.4996" gradientTransform="matrix(0.9932 0.1166 0.1166 -0.9932 -150.122 2394.2358)">
					<stop  offset="0" style="stop-color:#838383"/>
					<stop  offset="0.0521" style="stop-color:#8F8F8F"/>
					<stop  offset="0.1973" style="stop-color:#ABABAB"/>
					<stop  offset="0.3537" style="stop-color:#C1C1C1"/>
					<stop  offset="0.5246" style="stop-color:#D1D1D1"/>
					<stop  offset="0.721" style="stop-color:#DADADA"/>
					<stop  offset="1" style="stop-color:#DDDDDD"/>
				</linearGradient>
				<path class="st18" d="M299.78,1287.48c0,0-3.28-6.03-3.58-12.36l-1.35,11.5c0.41,0.16,0.69,0.57,0.63,1.03
					c-0.06,0.55-0.56,0.94-1.11,0.88c-0.55-0.06-0.94-0.56-0.88-1.11c0.05-0.46,0.42-0.79,0.86-0.86l1.35-11.5
					c-1.76,6.09-6.34,11.2-6.34,11.2c1.23,5.92-0.13,14.12-0.13,14.12c-0.47,0.6,3.62,1.06,3.62,1.06s4.09,0.49,3.77-0.19
					C296.63,1301.25,297.21,1292.96,299.78,1287.48z"/>
			</g>
			<path class="st19" d="M272.12,1342v108.56c0,2.45,1.99,4.44,4.44,4.44h59.15c2.45,0,4.44-1.99,4.44-4.44V1342H272.12z"/>
		</g>
		<g>
			<path class="st10" d="M871.9,1465h-70.3c-2.4,0-4.35-1.95-4.35-4.35v-82.3c0-2.4,1.95-4.35,4.35-4.35h70.3
				c2.4,0,4.35,1.95,4.35,4.35v82.3C876.25,1463.05,874.3,1465,871.9,1465z"/>
			<rect x="797.25" y="1387" class="st20" width="79" height="6"/>
			<rect x="797.25" y="1451" class="st20" width="79" height="14"/>
			<g>
				<path class="st20" d="M862.94,1413.84h-4.77c-4.18-5.37-12.2-9-21.42-9s-17.23,3.63-21.42,9h-4.77c-1.55,0-2.81,1.26-2.81,2.81
					v11.38c0,1.55,1.26,2.81,2.81,2.81h4.77c4.18,5.37,12.2,9,21.42,9s17.23-3.63,21.42-9h4.77c1.55,0,2.81-1.26,2.81-2.81v-11.38
					C865.75,1415.1,864.49,1413.84,862.94,1413.84z"/>
				<path class="st11" d="M836.75,1434.84c-7.38,0-14.07-2.71-17.47-7.07c-0.95-1.21-2.4-1.93-3.94-1.93h-2.58v-7h2.58
					c1.54,0,3-0.71,3.94-1.93c3.4-4.36,10.1-7.07,17.47-7.07s14.07,2.71,17.47,7.07c0.95,1.21,2.4,1.93,3.94,1.93h2.58v7h-2.58
					c-1.54,0-3,0.71-3.94,1.93C850.82,1432.13,844.12,1434.84,836.75,1434.84z"/>
				<g>
					<path class="st21" d="M827.8,1426.71h-5.65l0.05-0.19c0.06,0,0.13,0,0.23-0.01c0.1,0,0.26-0.02,0.49-0.05s0.4-0.09,0.52-0.2
						c0.12-0.1,0.23-0.28,0.32-0.53l0.18-0.55l1.6-5.7l0.13-0.55c0.05-0.26,0.04-0.43-0.01-0.53c-0.06-0.1-0.2-0.17-0.44-0.2
						l-0.63-0.05l0.05-0.19h5.58l-0.05,0.19l-0.65,0.04c-0.25,0.02-0.43,0.08-0.54,0.17s-0.21,0.27-0.31,0.55l-0.18,0.55l-1.6,5.75
						l-0.13,0.55c-0.05,0.26-0.04,0.44,0.03,0.53c0.07,0.09,0.22,0.15,0.46,0.19l0.61,0.04L827.8,1426.71z"/>
					<path class="st21" d="M841.26,1418.16c-0.11,0.01-0.22,0.02-0.35,0.02c-0.13,0.01-0.3,0.03-0.54,0.07
						c-0.23,0.04-0.43,0.13-0.58,0.28c-0.16,0.15-0.28,0.35-0.37,0.61l-0.18,0.58l-1.89,7.01h-1.46l-3.69-7.3h-0.05l-1.55,5.6
						l-0.14,0.58c-0.05,0.26-0.04,0.46,0.04,0.59c0.07,0.13,0.21,0.21,0.42,0.25c0.21,0.04,0.39,0.06,0.55,0.07
						c0.15,0.01,0.26,0.02,0.31,0.02l-0.05,0.19h-3.47l0.05-0.19c0.11-0.01,0.23-0.02,0.36-0.02c0.13-0.01,0.37-0.04,0.71-0.09
						c0.34-0.05,0.6-0.32,0.79-0.81l0.18-0.58l1.51-5.46l0.13-0.55c-0.06-0.17-0.14-0.32-0.24-0.47c-0.1-0.14-0.23-0.24-0.39-0.3
						c-0.16-0.06-0.31-0.08-0.47-0.08h-0.36l0.05-0.19h4.56l2.79,5.52h0.05l1.04-3.83l0.13-0.58c0.05-0.26,0.03-0.45-0.04-0.58
						s-0.21-0.22-0.41-0.25c-0.21-0.04-0.37-0.06-0.5-0.07c-0.13-0.01-0.25-0.02-0.36-0.02l0.05-0.19h3.43L841.26,1418.16z"/>
					<path class="st21" d="M845.1,1422.63l-0.42,0.38l-0.58,2.2l-0.12,0.55c-0.05,0.26-0.04,0.44,0.02,0.53s0.21,0.15,0.45,0.19
						l0.42,0.04l-0.05,0.19h-5.35l0.05-0.19l0.61-0.05c0.24-0.03,0.42-0.1,0.54-0.2s0.22-0.28,0.31-0.53l0.17-0.55l1.52-5.7
						l0.12-0.55c0.04-0.26,0.04-0.43-0.02-0.53s-0.2-0.17-0.44-0.2l-0.61-0.05l0.05-0.19h5.37l-0.05,0.19l-0.47,0.04
						c-0.25,0.02-0.43,0.08-0.54,0.17c-0.11,0.09-0.21,0.27-0.31,0.55l-0.17,0.55l-0.86,3.24c0.3-0.27,0.73-0.65,1.27-1.13
						c0.54-0.48,1.1-0.97,1.66-1.48c0.57-0.51,0.95-0.86,1.15-1.07c0.2-0.2,0.32-0.37,0.35-0.5c0.03-0.11,0.01-0.19-0.06-0.24
						s-0.18-0.08-0.31-0.1l-0.55-0.04l0.05-0.19h3.04l-0.05,0.19c-0.11,0.01-0.21,0.01-0.33,0.02s-0.25,0.02-0.42,0.05
						s-0.35,0.1-0.55,0.19c-0.2,0.1-0.44,0.27-0.74,0.53l-1.56,1.38l1.94,5.06c0.19,0.46,0.33,0.74,0.44,0.85s0.24,0.18,0.39,0.21
						s0.27,0.04,0.35,0.05c0.08,0,0.16,0.01,0.22,0.02l-0.05,0.19h-5.77l0.05-0.19l0.51-0.02c0.17-0.02,0.3-0.04,0.39-0.07
						c0.09-0.03,0.15-0.11,0.18-0.23c0.02-0.07,0.02-0.16,0.01-0.27s-0.06-0.27-0.15-0.49s-0.18-0.47-0.29-0.74
						c-0.11-0.28-0.25-0.64-0.43-1.08C845.31,1423.17,845.18,1422.84,845.1,1422.63z"/>
				</g>
			</g>
		</g>
		<g>
			<path class="st10" d="M789.9,1465h-70.3c-2.4,0-4.35-1.95-4.35-4.35v-82.3c0-2.4,1.95-4.35,4.35-4.35h70.3
				c2.4,0,4.35,1.95,4.35,4.35v82.3C794.25,1463.05,792.3,1465,789.9,1465z"/>
			<rect x="715.25" y="1387" class="st22" width="79" height="6"/>
			<rect x="715.25" y="1451" class="st22" width="79" height="14"/>
			<g>
				<path class="st22" d="M780.94,1413.84h-4.77c-4.18-5.37-12.2-9-21.42-9s-17.23,3.63-21.42,9h-4.77c-1.55,0-2.81,1.26-2.81,2.81
					v11.38c0,1.55,1.26,2.81,2.81,2.81h4.77c4.18,5.37,12.2,9,21.42,9s17.23-3.63,21.42-9h4.77c1.55,0,2.81-1.26,2.81-2.81v-11.38
					C783.75,1415.1,782.49,1413.84,780.94,1413.84z"/>
				<path class="st11" d="M754.75,1434.84c-7.38,0-14.07-2.71-17.47-7.07c-0.95-1.21-2.4-1.93-3.94-1.93h-2.58v-7h2.58
					c1.54,0,3-0.71,3.94-1.93c3.4-4.36,10.1-7.07,17.47-7.07s14.07,2.71,17.47,7.07c0.95,1.21,2.4,1.93,3.94,1.93h2.58v7h-2.58
					c-1.54,0-3,0.71-3.94,1.93C768.82,1432.13,762.12,1434.84,754.75,1434.84z"/>
				<g>
					<path class="st23" d="M745.8,1426.71h-5.65l0.05-0.19c0.06,0,0.13,0,0.23-0.01c0.1,0,0.26-0.02,0.49-0.05s0.4-0.09,0.52-0.2
						c0.12-0.1,0.23-0.28,0.32-0.53l0.18-0.55l1.6-5.7l0.13-0.55c0.05-0.26,0.04-0.43-0.01-0.53c-0.06-0.1-0.2-0.17-0.44-0.2
						l-0.63-0.05l0.05-0.19h5.58l-0.05,0.19l-0.65,0.04c-0.25,0.02-0.43,0.08-0.54,0.17s-0.21,0.27-0.31,0.55l-0.18,0.55l-1.6,5.75
						l-0.13,0.55c-0.05,0.26-0.04,0.44,0.03,0.53c0.07,0.09,0.22,0.15,0.46,0.19l0.61,0.04L745.8,1426.71z"/>
					<path class="st23" d="M759.26,1418.16c-0.11,0.01-0.22,0.02-0.35,0.02c-0.13,0.01-0.3,0.03-0.54,0.07
						c-0.23,0.04-0.43,0.13-0.58,0.28c-0.16,0.15-0.28,0.35-0.37,0.61l-0.18,0.58l-1.89,7.01h-1.46l-3.69-7.3h-0.05l-1.55,5.6
						l-0.14,0.58c-0.05,0.26-0.04,0.46,0.04,0.59c0.07,0.13,0.21,0.21,0.42,0.25c0.21,0.04,0.39,0.06,0.55,0.07
						c0.15,0.01,0.26,0.02,0.31,0.02l-0.05,0.19h-3.47l0.05-0.19c0.11-0.01,0.23-0.02,0.36-0.02c0.13-0.01,0.37-0.04,0.71-0.09
						c0.34-0.05,0.6-0.32,0.79-0.81l0.18-0.58l1.51-5.46l0.13-0.55c-0.06-0.17-0.14-0.32-0.24-0.47c-0.1-0.14-0.23-0.24-0.39-0.3
						c-0.16-0.06-0.31-0.08-0.47-0.08h-0.36l0.05-0.19h4.56l2.79,5.52h0.05l1.04-3.83l0.13-0.58c0.05-0.26,0.03-0.45-0.04-0.58
						s-0.21-0.22-0.41-0.25c-0.21-0.04-0.37-0.06-0.5-0.07c-0.13-0.01-0.25-0.02-0.36-0.02l0.05-0.19h3.43L759.26,1418.16z"/>
					<path class="st23" d="M763.1,1422.63l-0.42,0.38l-0.58,2.2l-0.12,0.55c-0.05,0.26-0.04,0.44,0.02,0.53s0.21,0.15,0.45,0.19
						l0.42,0.04l-0.05,0.19h-5.35l0.05-0.19l0.61-0.05c0.24-0.03,0.42-0.1,0.54-0.2s0.22-0.28,0.31-0.53l0.17-0.55l1.52-5.7
						l0.12-0.55c0.04-0.26,0.04-0.43-0.02-0.53s-0.2-0.17-0.44-0.2l-0.61-0.05l0.05-0.19h5.37l-0.05,0.19l-0.47,0.04
						c-0.25,0.02-0.43,0.08-0.54,0.17c-0.11,0.09-0.21,0.27-0.31,0.55l-0.17,0.55l-0.86,3.24c0.3-0.27,0.73-0.65,1.27-1.13
						c0.54-0.48,1.1-0.97,1.66-1.48c0.57-0.51,0.95-0.86,1.15-1.07c0.2-0.2,0.32-0.37,0.35-0.5c0.03-0.11,0.01-0.19-0.06-0.24
						s-0.18-0.08-0.31-0.1l-0.55-0.04l0.05-0.19h3.04l-0.05,0.19c-0.11,0.01-0.21,0.01-0.33,0.02s-0.25,0.02-0.42,0.05
						s-0.35,0.1-0.55,0.19c-0.2,0.1-0.44,0.27-0.74,0.53l-1.56,1.38l1.94,5.06c0.19,0.46,0.33,0.74,0.44,0.85s0.24,0.18,0.39,0.21
						s0.27,0.04,0.35,0.05c0.08,0,0.16,0.01,0.22,0.02l-0.05,0.19h-5.77l0.05-0.19l0.51-0.02c0.17-0.02,0.3-0.04,0.39-0.07
						c0.09-0.03,0.15-0.11,0.18-0.23c0.02-0.07,0.02-0.16,0.01-0.27s-0.06-0.27-0.15-0.49s-0.18-0.47-0.29-0.74
						c-0.11-0.28-0.25-0.64-0.43-1.08C763.31,1423.17,763.18,1422.84,763.1,1422.63z"/>
				</g>
			</g>
		</g>
		<g>
			<path class="st10" d="M841.9,1376h-70.3c-2.4,0-4.35-1.95-4.35-4.35v-82.3c0-2.4,1.95-4.35,4.35-4.35h70.3
				c2.4,0,4.35,1.95,4.35,4.35v82.3C846.25,1374.05,844.3,1376,841.9,1376z"/>
			<rect x="767.25" y="1298" class="st24" width="79" height="6"/>
			<rect x="767.25" y="1362" class="st24" width="79" height="14"/>
			<g>
				<path class="st24" d="M832.94,1324.84h-4.77c-4.18-5.37-12.2-9-21.42-9s-17.23,3.63-21.42,9h-4.77c-1.55,0-2.81,1.26-2.81,2.81
					v11.38c0,1.55,1.26,2.81,2.81,2.81h4.77c4.18,5.37,12.2,9,21.42,9s17.23-3.63,21.42-9h4.77c1.55,0,2.81-1.26,2.81-2.81v-11.38
					C835.75,1326.1,834.49,1324.84,832.94,1324.84z"/>
				<path class="st11" d="M806.75,1345.84c-7.38,0-14.07-2.71-17.47-7.07c-0.95-1.21-2.4-1.93-3.94-1.93h-2.58v-7h2.58
					c1.54,0,3-0.71,3.94-1.93c3.4-4.36,10.1-7.07,17.47-7.07s14.07,2.71,17.47,7.07c0.95,1.21,2.4,1.93,3.94,1.93h2.58v7h-2.58
					c-1.54,0-3,0.71-3.94,1.93C820.82,1343.13,814.12,1345.84,806.75,1345.84z"/>
				<g>
					<path class="st25" d="M797.8,1337.71h-5.65l0.05-0.19c0.06,0,0.13,0,0.23-0.01c0.1,0,0.26-0.02,0.49-0.05s0.4-0.09,0.52-0.2
						c0.12-0.1,0.23-0.28,0.32-0.53l0.18-0.55l1.6-5.7l0.13-0.55c0.05-0.26,0.04-0.43-0.01-0.53c-0.06-0.1-0.2-0.17-0.44-0.2
						l-0.63-0.05l0.05-0.19h5.58l-0.05,0.19l-0.65,0.04c-0.25,0.02-0.43,0.08-0.54,0.17s-0.21,0.27-0.31,0.55l-0.18,0.55l-1.6,5.75
						l-0.13,0.55c-0.05,0.26-0.04,0.44,0.03,0.53c0.07,0.09,0.22,0.15,0.46,0.19l0.61,0.04L797.8,1337.71z"/>
					<path class="st25" d="M811.26,1329.16c-0.11,0.01-0.22,0.02-0.35,0.02c-0.13,0.01-0.3,0.03-0.54,0.07
						c-0.23,0.04-0.43,0.13-0.58,0.28c-0.16,0.15-0.28,0.35-0.37,0.61l-0.18,0.58l-1.89,7.01h-1.46l-3.69-7.3h-0.05l-1.55,5.6
						l-0.14,0.58c-0.05,0.26-0.04,0.46,0.04,0.59c0.07,0.13,0.21,0.21,0.42,0.25c0.21,0.04,0.39,0.06,0.55,0.07
						c0.15,0.01,0.26,0.02,0.31,0.02l-0.05,0.19h-3.47l0.05-0.19c0.11-0.01,0.23-0.02,0.36-0.02c0.13-0.01,0.37-0.04,0.71-0.09
						c0.34-0.05,0.6-0.32,0.79-0.81l0.18-0.58l1.51-5.46l0.13-0.55c-0.06-0.17-0.14-0.32-0.24-0.47c-0.1-0.14-0.23-0.24-0.39-0.3
						c-0.16-0.06-0.31-0.08-0.47-0.08h-0.36l0.05-0.19h4.56l2.79,5.52h0.05l1.04-3.83l0.13-0.58c0.05-0.26,0.03-0.45-0.04-0.58
						s-0.21-0.22-0.41-0.25c-0.21-0.04-0.37-0.06-0.5-0.07c-0.13-0.01-0.25-0.02-0.36-0.02l0.05-0.19h3.43L811.26,1329.16z"/>
					<path class="st25" d="M815.1,1333.63l-0.42,0.38l-0.58,2.2l-0.12,0.55c-0.05,0.26-0.04,0.44,0.02,0.53s0.21,0.15,0.45,0.19
						l0.42,0.04l-0.05,0.19h-5.35l0.05-0.19l0.61-0.05c0.24-0.03,0.42-0.1,0.54-0.2s0.22-0.28,0.31-0.53l0.17-0.55l1.52-5.7
						l0.12-0.55c0.04-0.26,0.04-0.43-0.02-0.53s-0.2-0.17-0.44-0.2l-0.61-0.05l0.05-0.19h5.37l-0.05,0.19l-0.47,0.04
						c-0.25,0.02-0.43,0.08-0.54,0.17c-0.11,0.09-0.21,0.27-0.31,0.55l-0.17,0.55l-0.86,3.24c0.3-0.27,0.73-0.65,1.27-1.13
						c0.54-0.48,1.1-0.97,1.66-1.48c0.57-0.51,0.95-0.86,1.15-1.07c0.2-0.2,0.32-0.37,0.35-0.5c0.03-0.11,0.01-0.19-0.06-0.24
						s-0.18-0.08-0.31-0.1l-0.55-0.04l0.05-0.19h3.04l-0.05,0.19c-0.11,0.01-0.21,0.01-0.33,0.02s-0.25,0.02-0.42,0.05
						s-0.35,0.1-0.55,0.19c-0.2,0.1-0.44,0.27-0.74,0.53l-1.56,1.38l1.94,5.06c0.19,0.46,0.33,0.74,0.44,0.85s0.24,0.18,0.39,0.21
						s0.27,0.04,0.35,0.05c0.08,0,0.16,0.01,0.22,0.02l-0.05,0.19h-5.77l0.05-0.19l0.51-0.02c0.17-0.02,0.3-0.04,0.39-0.07
						c0.09-0.03,0.15-0.11,0.18-0.23c0.02-0.07,0.02-0.16,0.01-0.27s-0.06-0.27-0.15-0.49s-0.18-0.47-0.29-0.74
						c-0.11-0.28-0.25-0.64-0.43-1.08C815.31,1334.17,815.18,1333.84,815.1,1333.63z"/>
				</g>
			</g>
		</g>
	</g>
</g>
</svg>
