<?xml version="1.0" encoding="utf-8"?>
<!-- Generator: Adobe Illustrator 26.0.0, SVG Export Plug-In . SVG Version: 6.00 Build 0)  -->
<svg version="1.1" id="Layer_1" xmlns="http://www.w3.org/2000/svg" xmlns:xlink="http://www.w3.org/1999/xlink" x="0px" y="0px"
	 viewBox="0 0 1125 2436" style="enable-background:new 0 0 1125 2436;" xml:space="preserve">
<style type="text/css">
	.st0{fill:#D9D8D7;}
	.st1{fill:#72736F;}
	.st2{fill:none;stroke:#F2F2EB;stroke-width:10;stroke-miterlimit:10;}
	.st3{fill:url(#SVGID_1_);}
	.st4{fill:#475984;}
	.st5{fill:#384772;}
	.st6{fill:#303E6D;}
	.st7{fill:#6371AD;}
	.st8{fill:#EAEAEA;}
	.st9{fill:#5869A0;}
	.st10{fill:none;stroke:#475984;stroke-width:10;stroke-linecap:round;stroke-linejoin:round;stroke-miterlimit:10;}
	.st11{fill:#1D2126;}
	.st12{fill:#272C33;}
	.st13{fill:#BCBCBC;}
	.st14{fill:#2D2A27;}
	.st15{fill:#5B5652;}
	.st16{fill:url(#SVGID_00000104707287640908880820000001013539476175885202_);}
</style>
<path class="st0" d="M215.08,969c0,0,21.72,43.53,97.8,26.48s42.76-104.15,89.3-137.83c63.25-45.78-1.98-151.22-167.2-33.21
	C139.67,892.54,215.08,969,215.08,969z"/>
<circle class="st1" cx="389.69" cy="1512.67" r="303.59"/>
<path class="st2" d="M694.98,1646.65c-258.08,71.63-459.36-254.5-243.71-345.25c142.47-59.96,253.72-174.99,316.59-279.93
	c130.25-217.4,367.35,11.08,243.71,345.25C956.6,1515.29,843.81,1605.34,694.98,1646.65z"/>
<g>
	
		<linearGradient id="SVGID_1_" gradientUnits="userSpaceOnUse" x1="335.9683" y1="1249.8055" x2="364.8125" y2="969.7815" gradientTransform="matrix(0.9835 -0.1809 -0.1809 -0.9835 213.4732 2488.1494)">
		<stop  offset="0" style="stop-color:#303E6D"/>
		<stop  offset="1" style="stop-color:#475984"/>
	</linearGradient>
	<path class="st3" d="M469.06,1212.96l-270.34,80.43l3.68-87.92c0.17-4.06,2.89-7.58,6.79-8.76l198.07-60.06
		c3.29-1,6.85,0.19,8.89,2.94L469.06,1212.96z"/>
	<path class="st4" d="M405.74,1158.05c5.74,19.32-30.15,49.02-81.32,64.24c-51.17,15.22-98.25,10.18-104-9.13
		c-5.75-19.32,31.09-47.32,82.26-62.53S399.99,1138.73,405.74,1158.05z"/>
	<path class="st5" d="M401.24,1143.84c5.74,19.32-30.15,49.02-81.32,64.24s-98.25,10.18-104-9.13
		c-5.74-19.32,31.09-47.32,82.26-62.53S395.5,1124.52,401.24,1143.84z"/>
	
		<ellipse transform="matrix(0.9585 -0.285 0.285 0.9585 -317.0708 134.6825)" class="st4" cx="304.22" cy="1156.77" rx="96.67" ry="44.21"/>
	
		<ellipse transform="matrix(0.9585 -0.285 0.285 0.9585 -315.9818 134.3562)" class="st6" cx="303.65" cy="1152.87" rx="84.1" ry="34.59"/>
	<path class="st6" d="M516.04,1414.04l-247.63,72.09c-9.96,2.96-20.73-3.68-24.04-14.82l-45.35-173.99
		c-3.31-11.15,2.07-22.58,12.04-25.55l235.46-70.01c9.96-2.96,20.73,3.68,24.04,14.82l57.51,171.91
		C531.39,1399.63,526,1411.07,516.04,1414.04z"/>
	<g>
		<path class="st7" d="M439.79,1280.15l-16.45,4.89c-19.9-14.19-51.23-18.5-82.95-9.06c-31.72,9.43-55.61,30.15-64.53,52.92
			l-16.45,4.89c-5.34,1.59-8.39,7.21-6.8,12.55l11.65,39.19c1.59,5.34,7.21,8.39,12.55,6.8l16.45-4.89
			c19.9,14.19,51.23,18.5,82.95,9.06c31.72-9.43,55.61-30.15,64.53-52.92l16.45-4.89c5.34-1.59,8.39-7.21,6.8-12.55l-11.65-39.19
			C450.76,1281.6,445.13,1278.55,439.79,1280.15z"/>
		<path class="st8" d="M371.11,1379.26c-25.39,7.55-51.22,5.07-67.41-6.47c-4.5-3.22-10.24-4.17-15.54-2.6l-8.9,2.65l-7.16-24.1
			l8.9-2.65c5.31-1.58,9.58-5.51,11.61-10.66c7.25-18.51,27.53-34.69,52.92-42.24s51.22-5.07,67.41,6.47
			c4.5,3.22,10.24,4.17,15.54,2.6l8.9-2.65l7.16,24.1l-8.9,2.65c-5.31,1.58-9.58,5.51-11.61,10.66
			C416.79,1355.52,396.51,1371.72,371.11,1379.26z"/>
		<g>
			<path class="st9" d="M331.96,1360.45l-19.46,5.78l-0.01-0.72c0.19-0.05,0.45-0.15,0.79-0.25c0.32-0.12,0.87-0.34,1.63-0.66
				c0.75-0.34,1.29-0.73,1.6-1.22c0.31-0.48,0.5-1.19,0.57-2.15l0.05-2.08l-0.31-21.26l-0.12-2.04c-0.09-0.93-0.29-1.54-0.59-1.82
				c-0.29-0.29-0.87-0.37-1.72-0.23l-2.22,0.48l-0.01-0.72l19.2-5.71l0.01,0.71l-2.21,0.8c-0.85,0.34-1.41,0.72-1.7,1.15
				c-0.28,0.43-0.45,1.16-0.52,2.2l-0.05,2.08l0.36,21.43l0.12,2.03c0.1,0.96,0.31,1.56,0.63,1.81c0.32,0.25,0.91,0.3,1.77,0.18
				l2.15-0.5L331.96,1360.45z"/>
			<path class="st9" d="M369.56,1317.21c-0.36,0.14-0.74,0.28-1.16,0.43c-0.43,0.16-1.02,0.42-1.78,0.78
				c-0.76,0.37-1.34,0.88-1.72,1.54c-0.39,0.67-0.61,1.5-0.66,2.47l-0.03,2.17l0.65,26.07l-5.04,1.5l-20.16-21.35l-0.17,0.05
				l0.41,20.88l0.13,2.13c0.1,0.96,0.35,1.62,0.72,1.99c0.39,0.37,0.95,0.5,1.71,0.41c0.75-0.09,1.41-0.2,1.95-0.32
				c0.53-0.13,0.9-0.21,1.1-0.24l0.01,0.71l-11.94,3.55l-0.01-0.71c0.36-0.14,0.76-0.28,1.2-0.45c0.44-0.16,1.23-0.5,2.35-1.04
				c1.12-0.53,1.75-1.73,1.88-3.59l0.04-2.17l-0.4-20.34l-0.13-2.03c-0.37-0.52-0.81-0.97-1.32-1.36c-0.5-0.39-1.06-0.6-1.66-0.63
				c-0.6-0.03-1.17,0.03-1.72,0.2l-1.24,0.37l-0.01-0.71l15.69-4.66l15.26,16.15l0.17-0.05l-0.36-14.25l-0.14-2.12
				c-0.1-0.93-0.35-1.58-0.73-1.96c-0.38-0.38-0.94-0.52-1.69-0.44c-0.74,0.08-1.34,0.18-1.79,0.28c-0.45,0.1-0.87,0.2-1.26,0.28
				l-0.02-0.71l11.82-3.51L369.56,1317.21z"/>
			<path class="st9" d="M387.38,1328.69l-1.07,1.76l0.24,8.16l0.15,2.02c0.12,0.95,0.31,1.56,0.62,1.82
				c0.3,0.25,0.88,0.31,1.74,0.18l1.49-0.31l0.02,0.71l-18.43,5.48l-0.02-0.71l2.06-0.8c0.8-0.36,1.34-0.78,1.65-1.26
				c0.3-0.48,0.49-1.19,0.54-2.14l0.03-2.08l-0.59-21.18l-0.14-2.03c-0.1-0.92-0.31-1.53-0.61-1.82s-0.87-0.37-1.73-0.23l-2.14,0.46
				l-0.02-0.71l18.5-5.5l0.02,0.71l-1.59,0.61c-0.85,0.34-1.4,0.72-1.69,1.15c-0.27,0.43-0.44,1.15-0.49,2.19l-0.02,2.07l0.36,12.04
				c0.76-1.25,1.83-2.97,3.21-5.19c1.37-2.21,2.78-4.47,4.21-6.81c1.44-2.33,2.39-3.95,2.87-4.85c0.48-0.91,0.71-1.6,0.7-2.07
				c-0.01-0.42-0.17-0.67-0.46-0.76s-0.69-0.09-1.18-0.01l-1.94,0.44l-0.02-0.71l10.46-3.11l0.02,0.71
				c-0.36,0.14-0.72,0.27-1.11,0.4c-0.39,0.13-0.85,0.34-1.39,0.62s-1.11,0.69-1.69,1.23c-0.58,0.53-1.25,1.39-2.02,2.58l-3.96,6.35
				l11.87,15.45c1.1,1.38,1.9,2.21,2.38,2.48c0.48,0.28,1,0.39,1.55,0.32c0.56-0.06,0.97-0.13,1.27-0.2
				c0.29-0.07,0.54-0.13,0.76-0.16l0.02,0.71l-19.87,5.91l-0.02-0.71l1.74-0.61c0.58-0.23,1-0.45,1.27-0.65
				c0.27-0.2,0.4-0.52,0.39-0.96c-0.01-0.27-0.08-0.59-0.24-0.94c-0.15-0.36-0.48-0.87-1.01-1.55c-0.52-0.67-1.11-1.42-1.76-2.26
				s-1.52-1.93-2.6-3.27C388.65,1330.31,387.87,1329.32,387.38,1328.69z"/>
		</g>
	</g>
	<line class="st10" x1="441.4" y1="1202.95" x2="446.26" y2="1201.49"/>
	<line class="st10" x1="416.25" y1="1210.45" x2="435.54" y2="1204.7"/>
	<line class="st10" x1="211.09" y1="1271.68" x2="410.4" y2="1212.2"/>
	<g>
		<path class="st11" d="M479.76,1017.21l-26.78-5.06c-15.65-12.48-38.65-22.36-65.17-26.64c-23.2-3.74-45.2-2.56-62.92,2.44
			l-33.62-6.35l-6.8,41.11c-4.67,28.99,34.02,59.34,86.42,67.79c52.41,8.44,98.67-8.21,103.35-37.21c0.32-2.02,0.43-4.06,0.35-6.1
			L479.76,1017.21z"/>
		
			<ellipse transform="matrix(0.1591 -0.9873 0.9873 0.1591 -665.4379 1222.5145)" class="st12" cx="384.93" cy="1001.89" rx="53.18" ry="96.11"/>
		<path class="st13" d="M464.01,1010.31c-3.13,19.42-43.94,33.81-85.12,27.17c-41.18-6.64-73.73-33.71-70.61-53.12
			c3.13-19.42,42.08-30.34,83.25-23.69C432.71,967.32,467.13,990.89,464.01,1010.31z"/>
		<path class="st6" d="M420.54,1028.62c-12.96,2.38-26.88,2.5-40.28,0.35c-17.79-2.87-35.28-10.18-48-20.06
			c-10.37-8.06-16.44-17.15-15.47-23.17c0.92-5.73,10.31-13.07,29.2-16.54c13.32-2.45,29-2.45,44.16-0.01
			c18.41,2.96,36.4,9.76,49.35,18.63c10.77,7.37,16.9,15.47,15.98,21.13C454.39,1015.73,442.03,1024.68,420.54,1028.62z"/>
		<path class="st12" d="M371.26,1094.94l-6.52-1.05c-4.34-0.7-7.28-4.78-6.58-9.11l3.68-22.79c0.7-4.34,4.78-7.28,9.11-6.58
			l6.52,1.05c4.34,0.7,7.28,4.78,6.58,9.11l-3.68,22.79C379.68,1092.7,375.6,1095.64,371.26,1094.94z"/>
		<path class="st12" d="M407.3,1097.81l-11.87,0.03c-2.94,0.01-5.19-2.62-4.72-5.53l4.66-28.95c0.37-2.3,2.36-4,4.69-4.01
			l11.87-0.03c2.94-0.01,5.19,2.62,4.72,5.53l-4.66,28.95C411.62,1096.1,409.63,1097.8,407.3,1097.81z"/>
		<path class="st12" d="M441.6,1089.81l-16.03,3.8c-1.52,0.37-2.92-0.94-2.67-2.48l5.26-32.63c0.14-0.88,0.8-1.58,1.66-1.78
			l16.03-3.8c1.52-0.37,2.92,0.94,2.67,2.48l-5.26,32.63C443.11,1088.9,442.46,1089.6,441.6,1089.81z"/>
		<path class="st12" d="M471.4,1069.46l-15.39,11.93c-1.05,0.82-2.56-0.1-2.3-1.41l5.95-31.18c0.06-0.34,0.25-0.64,0.51-0.86
			l12.55-10.01c1.69-1.35,4.15,0.09,3.8,2.22l-4.59,28.4C471.89,1068.91,471.7,1069.24,471.4,1069.46z"/>
		<path class="st12" d="M328.52,1083.6l11.15,4.11c2.75,1.02,5.77-0.68,6.33-3.57l5.55-28.8c0.44-2.29-0.84-4.57-3.04-5.37
			l-11.15-4.11c-2.75-1.02-5.77,0.68-6.33,3.57l-5.55,28.8C325.04,1080.51,326.33,1082.79,328.52,1083.6z"/>
		<path class="st12" d="M299.05,1064.31l13.74,9.07c1.31,0.86,3.07,0.12,3.36-1.41l6.25-32.45c0.17-0.87-0.21-1.76-0.94-2.24
			l-13.74-9.07c-1.31-0.86-3.07-0.12-3.36,1.41l-6.25,32.45C297.93,1062.93,298.31,1063.82,299.05,1064.31z"/>
		<path class="st12" d="M280.35,1036.33l6.13,9.96c1.39,2.27,4.86,1.6,5.31-1.03l4.27-25.18c0.12-0.66-0.01-1.34-0.35-1.92
			l-8.52-14.86c-0.44-0.71-1.53-0.52-1.69,0.3l-5.55,30.7C279.84,1035.01,279.98,1035.74,280.35,1036.33z"/>
	</g>
	<g>
		<g>
			<path class="st14" d="M418.39,1571.11c-15.44,18.53-12.48,25.77-5.71,34.89c6.77,9.12,12.84,14.05,35.05,4.63
				c22.21-9.42,398.65-312.46,420.12-330.74c13.42-11.44,18.15-19.19,19.82-23.39c1.07-1.62,1.47-3,0.89-3.77
				c-0.58-0.78-2-0.79-3.87-0.24c-4.5,0.38-13.3,2.66-28.12,12.2C832.85,1279.93,433.83,1552.58,418.39,1571.11z"/>
			<path class="st15" d="M411.44,1585.33l20.67,27.83c0.52,0.71,0.38,1.71-0.34,2.23l-8.91,6.62c-0.71,0.52-1.71,0.38-2.23-0.34
				l-20.67-27.83c-0.52-0.71-0.38-1.71,0.34-2.23l8.91-6.62C409.91,1584.48,410.91,1584.63,411.44,1585.33z"/>
		</g>
		
			<linearGradient id="SVGID_00000045617069295819308010000017801395353728105601_" gradientUnits="userSpaceOnUse" x1="761.3458" y1="1798.6353" x2="761.3458" y2="1899.0658" gradientTransform="matrix(-0.5961 -0.8029 -0.8029 0.5961 2311.9326 1144.1627)">
			<stop  offset="0" style="stop-color:#838383"/>
			<stop  offset="0.0521" style="stop-color:#8F8F8F"/>
			<stop  offset="0.1973" style="stop-color:#ABABAB"/>
			<stop  offset="0.3537" style="stop-color:#C1C1C1"/>
			<stop  offset="0.5246" style="stop-color:#D1D1D1"/>
			<stop  offset="0.721" style="stop-color:#DADADA"/>
			<stop  offset="1" style="stop-color:#DDDDDD"/>
		</linearGradient>
		<path style="fill:url(#SVGID_00000045617069295819308010000017801395353728105601_);" d="M357.55,1622.2
			c0,0-8.12,24.68-24.78,41.94l35.2-26.13c-0.62-1.56-0.22-3.37,1.19-4.42c1.68-1.25,4.05-0.9,5.3,0.79c1.25,1.68,0.9,4.05-0.79,5.3
			c-1.41,1.05-3.27,0.91-4.58-0.14l-35.2,26.13c21.35-10.96,47.31-11.59,47.31-11.59c13.12-18.77,39.24-36.3,39.24-36.3
			c2.85-0.26-6.48-12.75-6.48-12.75s-9.25-12.54-10.33-9.89C403.65,1595.15,379.31,1615.07,357.55,1622.2z"/>
	</g>
</g>
</svg>
