<?xml version="1.0" encoding="utf-8"?>
<!-- Generator: Adobe Illustrator 26.0.0, SVG Export Plug-In . SVG Version: 6.00 Build 0)  -->
<svg version="1.1" id="Layer_1" xmlns="http://www.w3.org/2000/svg" xmlns:xlink="http://www.w3.org/1999/xlink" x="0px" y="0px"
	 viewBox="0 0 1125 2436" style="enable-background:new 0 0 1125 2436;" xml:space="preserve">
<style type="text/css">
	.st0{fill:#F2F2F0;}
	.st1{fill:none;stroke:#A4A6A5;stroke-width:10;stroke-miterlimit:10;}
	.st2{fill:#6D5844;}
	.st3{fill:#77624D;}
	.st4{fill:#84705A;}
	.st5{fill:#2B2825;}
	.st6{fill:#6D6252;}
	.st7{fill:#E2E2E2;}
	.st8{fill:#272C33;}
	.st9{fill:#3F352B;}
	.st10{fill:#3A3A3A;}
	.st11{fill:#EAEAEA;}
	.st12{fill:#DDDDDD;}
	.st13{fill:#D6D6D6;}
	.st14{fill:#CCCCCC;}
	.st15{fill:#303E6D;}
	.st16{fill:#2D2A27;}
	.st17{fill:#5B5652;}
	.st18{fill:url(#SVGID_1_);}
	.st19{opacity:0.24;fill:#EAEAEA;enable-background:new    ;}
	.st20{fill:#8C8E96;}
	.st21{fill:#75787F;}
	.st22{fill:#546D63;}
	.st23{fill:#3B564C;}
	.st24{fill:#6371AD;}
	.st25{fill:#5869A0;}
</style>
<g>
	
		<ellipse transform="matrix(0.6805 -0.7327 0.7327 0.6805 -983.4176 855.8062)" class="st0" cx="489.7" cy="1555.6" rx="381.8" ry="496.2"/>
	<path class="st1" d="M704.9,1608.2c-313.5,127.7-614-252.3-356.5-397.8c170.1-96.1,292.9-256.8,356.5-397.8
		c131.7-292,462.8-39.9,356.5,397.8C1014.1,1405,885.7,1534.5,704.9,1608.2z"/>
	<g>
		<path class="st2" d="M870.6,1089H254.4c-19.5,0-35.4,15.8-35.4,35.4v321.3c0,19.5,15.8,35.4,35.4,35.4h616.3
			c19.5,0,35.4-15.8,35.4-35.4v-321.3C906,1104.8,890.2,1089,870.6,1089z"/>
		<g>
			<path class="st3" d="M228.4,1478.5h-18.8c-5.6,0-10.1-4.5-10.1-10.1v-391.8c0-5.6,4.5-10.1,10.1-10.1h18.8
				c5.6,0,10.1,4.5,10.1,10.1v391.8C238.5,1474,234,1478.5,228.4,1478.5z"/>
			<path class="st3" d="M915.4,1478.5h-18.8c-5.6,0-10.1-4.5-10.1-10.1v-391.8c0-5.6,4.5-10.1,10.1-10.1h18.8
				c5.6,0,10.1,4.5,10.1,10.1v391.8C925.5,1474,921,1478.5,915.4,1478.5z"/>
		</g>
		<path class="st4" d="M901.5,1204.3v18.5c0,2.1-1.7,3.8-3.8,3.8H227.3c-2.1,0-3.8-1.7-3.8-3.8v-18.5c0-2.1,1.7-3.8,3.8-3.8h670.5
			C899.8,1200.5,901.5,1202.2,901.5,1204.3z"/>
		<g>
			<path class="st5" d="M281.5,1204.5h-35.1c-2.2,0-4-1.8-4-4v-175.1c0-2.2,1.8-4,4-4h35.1c2.2,0,4,1.8,4,4v175.1
				C285.5,1202.7,283.7,1204.5,281.5,1204.5z"/>
			<path class="st6" d="M287.5,1110.5h-46c-1.1,0-2-0.9-2-2l0,0c0-1.1,0.9-2,2-2h46c1.1,0,2,0.9,2,2l0,0
				C289.5,1109.6,288.6,1110.5,287.5,1110.5z"/>
			<path class="st7" d="M264.5,1034.5c-5.5,0-10,4.5-10,10s4.5,10,10,10s10-4.5,10-10S270,1034.5,264.5,1034.5z M263.5,1044.5
				c-2.2,0-4-1.8-4-4s1.8-4,4-4s4,1.8,4,4S265.7,1044.5,263.5,1044.5z"/>
			<path class="st6" d="M260.5,1037.5v-17c0-1.1,0.9-2,2-2l0,0c1.1,0,2,0.9,2,2v17c0,1.1-0.9,2-2,2l0,0
				C261.4,1039.5,260.5,1038.6,260.5,1037.5z"/>
		</g>
		<g>
			<path class="st5" d="M331.5,1204.5h-35.1c-2.2,0-4-1.8-4-4v-175.1c0-2.2,1.8-4,4-4h35.1c2.2,0,4,1.8,4,4v175.1
				C335.5,1202.7,333.7,1204.5,331.5,1204.5z"/>
			<path class="st6" d="M337.5,1110.5h-46c-1.1,0-2-0.9-2-2l0,0c0-1.1,0.9-2,2-2h46c1.1,0,2,0.9,2,2l0,0
				C339.5,1109.6,338.6,1110.5,337.5,1110.5z"/>
			<path class="st7" d="M314.5,1034.5c-5.5,0-10,4.5-10,10s4.5,10,10,10s10-4.5,10-10S320,1034.5,314.5,1034.5z M313.5,1044.5
				c-2.2,0-4-1.8-4-4s1.8-4,4-4s4,1.8,4,4S315.7,1044.5,313.5,1044.5z"/>
			<path class="st6" d="M310.5,1037.5v-17c0-1.1,0.9-2,2-2l0,0c1.1,0,2,0.9,2,2v17c0,1.1-0.9,2-2,2l0,0
				C311.4,1039.5,310.5,1038.6,310.5,1037.5z"/>
		</g>
		<g>
			<path class="st8" d="M381.5,1204.5h-35.1c-2.2,0-4-1.8-4-4v-175.1c0-2.2,1.8-4,4-4h35.1c2.2,0,4,1.8,4,4v175.1
				C385.5,1202.7,383.7,1204.5,381.5,1204.5z"/>
			<path class="st6" d="M387.5,1110.5h-46c-1.1,0-2-0.9-2-2l0,0c0-1.1,0.9-2,2-2h46c1.1,0,2,0.9,2,2l0,0
				C389.5,1109.6,388.6,1110.5,387.5,1110.5z"/>
			<path class="st7" d="M364.5,1034.5c-5.5,0-10,4.5-10,10s4.5,10,10,10s10-4.5,10-10S370,1034.5,364.5,1034.5z M363.5,1044.5
				c-2.2,0-4-1.8-4-4s1.8-4,4-4s4,1.8,4,4S365.7,1044.5,363.5,1044.5z"/>
			<path class="st6" d="M360.5,1037.5v-17c0-1.1,0.9-2,2-2l0,0c1.1,0,2,0.9,2,2v17c0,1.1-0.9,2-2,2l0,0
				C361.4,1039.5,360.5,1038.6,360.5,1037.5z"/>
		</g>
		<g>
			<path class="st9" d="M431.5,1204.5h-35.1c-2.2,0-4-1.8-4-4v-175.1c0-2.2,1.8-4,4-4h35.1c2.2,0,4,1.8,4,4v175.1
				C435.5,1202.7,433.7,1204.5,431.5,1204.5z"/>
			<path class="st6" d="M437.5,1110.5h-46c-1.1,0-2-0.9-2-2l0,0c0-1.1,0.9-2,2-2h46c1.1,0,2,0.9,2,2l0,0
				C439.5,1109.6,438.6,1110.5,437.5,1110.5z"/>
			<path class="st7" d="M414.5,1034.5c-5.5,0-10,4.5-10,10s4.5,10,10,10s10-4.5,10-10S420,1034.5,414.5,1034.5z M413.5,1044.5
				c-2.2,0-4-1.8-4-4s1.8-4,4-4s4,1.8,4,4S415.7,1044.5,413.5,1044.5z"/>
			<path class="st6" d="M410.5,1037.5v-17c0-1.1,0.9-2,2-2l0,0c1.1,0,2,0.9,2,2v17c0,1.1-0.9,2-2,2l0,0
				C411.4,1039.5,410.5,1038.6,410.5,1037.5z"/>
		</g>
		<g>
			<path class="st8" d="M560.7,1186.3l-30.3,17.7c-1.9,1.1-4.3,0.5-5.4-1.4l-88.1-151.3c-1.1-1.9-0.5-4.3,1.4-5.4l30.3-17.7
				c1.9-1.1,4.3-0.5,5.4,1.4l88.1,151.3C563.2,1182.8,562.6,1185.2,560.7,1186.3z"/>
			<path class="st6" d="M518.5,1102.1l-39.8,23.1c-1,0.6-2.2,0.2-2.7-0.7l0,0c-0.6-0.9-0.2-2.2,0.7-2.7l39.8-23.1
				c1-0.6,2.2-0.2,2.7,0.7l0,0C519.8,1100.3,519.5,1101.5,518.5,1102.1z"/>
			<path class="st7" d="M461.4,1050.7c-5.5-0.5-10.4,3.6-10.9,9.1s3.5,10.4,9,10.9c5.5,0.5,10.4-3.6,10.9-9.1
				C470.9,1056,466.9,1051.2,461.4,1050.7z M459.5,1060.5c-2.2-0.2-3.8-2.2-3.6-4.3s2.1-3.8,4.4-3.6s3.8,2.2,3.6,4.3
				S461.7,1060.7,459.5,1060.5z"/>
			<path class="st6" d="M457.4,1052.8l-6.7-15.6c-0.4-1,0-2.2,1.1-2.6l0,0c1-0.4,2.2,0,2.6,1.1l6.7,15.6c0.4,1,0,2.2-1.1,2.6l0,0
				C459,1054.3,457.9,1053.8,457.4,1052.8z"/>
		</g>
		<g>
			<path class="st9" d="M874.9,961H570.7c-3.7,0-6.7,3-6.7,6.7v229.1c0,3.7,3,6.7,6.7,6.7h304.3c3.7,0,6.7-3,6.7-6.7V967.7
				C881.7,964,878.7,961,874.9,961z"/>
			<g>
				<g>
					<path class="st3" d="M668.7,1204.5h-88.3c-0.4,0-0.8-0.4-0.8-0.8v-69.8c0-0.4,0.4-0.8,0.8-0.8h88.3c0.4,0,0.8,0.4,0.8,0.8v69.8
						C669.5,1204.1,669.2,1204.5,668.7,1204.5z"/>
					<g>
						<g>
							<circle class="st5" cx="612.1" cy="1160" r="5.6"/>
							<circle class="st5" cx="638.9" cy="1160" r="5.6"/>
						</g>
						<path class="st10" d="M637.3,1160.2v1.5c0,0.6-0.5,1.1-1.1,1.1h-21.4c-0.6,0-1.1-0.5-1.1-1.1v-1.5c0-0.6-0.5-1.1-1.1-1.1h-1.2
							c-0.6,0-1.1,0.5-1.1,1.1v7.1c0,0.6,0.5,1.1,1.1,1.1h0.6h1.7h23.5h1.7h0.6c0.6,0,1.1-0.5,1.1-1.1v-7.1c0-0.6-0.5-1.1-1.1-1.1
							h-1.2C637.8,1159.1,637.3,1159.6,637.3,1160.2z"/>
					</g>
				</g>
				<g>
					<path class="st3" d="M766.9,1204.5h-88.3c-0.4,0-0.8-0.4-0.8-0.8v-69.8c0-0.4,0.4-0.8,0.8-0.8h88.3c0.4,0,0.8,0.4,0.8,0.8v69.8
						C767.7,1204.1,767.4,1204.5,766.9,1204.5z"/>
					<g>
						<g>
							<circle class="st5" cx="710.3" cy="1160" r="5.6"/>
							<circle class="st5" cx="737.2" cy="1160" r="5.6"/>
						</g>
						<path class="st10" d="M735.5,1160.2v1.5c0,0.6-0.5,1.1-1.1,1.1H713c-0.6,0-1.1-0.5-1.1-1.1v-1.5c0-0.6-0.5-1.1-1.1-1.1h-1.2
							c-0.6,0-1.1,0.5-1.1,1.1v7.1c0,0.6,0.5,1.1,1.1,1.1h0.6h1.7h23.5h1.7h0.6c0.6,0,1.1-0.5,1.1-1.1v-7.1c0-0.6-0.5-1.1-1.1-1.1
							h-1.2C736,1159.1,735.5,1159.6,735.5,1160.2z"/>
					</g>
				</g>
				<g>
					<path class="st3" d="M865.2,1204.5h-88.3c-0.4,0-0.8-0.4-0.8-0.8v-69.8c0-0.4,0.4-0.8,0.8-0.8h88.3c0.4,0,0.8,0.4,0.8,0.8v69.8
						C866,1204.1,865.6,1204.5,865.2,1204.5z"/>
					<g>
						<g>
							<circle class="st5" cx="808.5" cy="1160" r="5.6"/>
							<circle class="st5" cx="835.4" cy="1160" r="5.6"/>
						</g>
						<path class="st10" d="M833.7,1160.2v1.5c0,0.6-0.5,1.1-1.1,1.1h-21.4c-0.6,0-1.1-0.5-1.1-1.1v-1.5c0-0.6-0.5-1.1-1.1-1.1h-1.2
							c-0.6,0-1.1,0.5-1.1,1.1v7.1c0,0.6,0.5,1.1,1.1,1.1h0.6h1.7h23.5h1.7h0.6c0.6,0,1.1-0.5,1.1-1.1v-7.1c0-0.6-0.5-1.1-1.1-1.1
							h-1.2C834.2,1159.1,833.7,1159.6,833.7,1160.2z"/>
					</g>
				</g>
				<g>
					<path class="st3" d="M668.7,1127.6h-88.3c-0.4,0-0.8-0.4-0.8-0.8V1057c0-0.4,0.4-0.8,0.8-0.8h88.3c0.4,0,0.8,0.4,0.8,0.8v69.8
						C669.5,1127.2,669.2,1127.6,668.7,1127.6z"/>
					<g>
						<g>
							<circle class="st5" cx="612.1" cy="1083.1" r="5.6"/>
							<circle class="st5" cx="638.9" cy="1083.1" r="5.6"/>
						</g>
						<path class="st10" d="M637.3,1083.3v1.5c0,0.6-0.5,1.1-1.1,1.1h-21.4c-0.6,0-1.1-0.5-1.1-1.1v-1.5c0-0.6-0.5-1.1-1.1-1.1h-1.2
							c-0.6,0-1.1,0.5-1.1,1.1v7.1c0,0.6,0.5,1.1,1.1,1.1h0.6h1.7h23.5h1.7h0.6c0.6,0,1.1-0.5,1.1-1.1v-7.1c0-0.6-0.5-1.1-1.1-1.1
							h-1.2C637.8,1082.2,637.3,1082.7,637.3,1083.3z"/>
					</g>
				</g>
				<g>
					<path class="st3" d="M766.9,1127.6h-88.3c-0.4,0-0.8-0.4-0.8-0.8V1057c0-0.4,0.4-0.8,0.8-0.8h88.3c0.4,0,0.8,0.4,0.8,0.8v69.8
						C767.7,1127.2,767.4,1127.6,766.9,1127.6z"/>
					<g>
						<g>
							<circle class="st5" cx="710.3" cy="1083.1" r="5.6"/>
							<circle class="st5" cx="737.2" cy="1083.1" r="5.6"/>
						</g>
						<path class="st10" d="M735.5,1083.3v1.5c0,0.6-0.5,1.1-1.1,1.1H713c-0.6,0-1.1-0.5-1.1-1.1v-1.5c0-0.6-0.5-1.1-1.1-1.1h-1.2
							c-0.6,0-1.1,0.5-1.1,1.1v7.1c0,0.6,0.5,1.1,1.1,1.1h0.6h1.7h23.5h1.7h0.6c0.6,0,1.1-0.5,1.1-1.1v-7.1c0-0.6-0.5-1.1-1.1-1.1
							h-1.2C736,1082.2,735.5,1082.7,735.5,1083.3z"/>
					</g>
				</g>
				<g>
					<path class="st3" d="M865.2,1127.6h-88.3c-0.4,0-0.8-0.4-0.8-0.8V1057c0-0.4,0.4-0.8,0.8-0.8h88.3c0.4,0,0.8,0.4,0.8,0.8v69.8
						C866,1127.2,865.6,1127.6,865.2,1127.6z"/>
					<g>
						<g>
							<circle class="st5" cx="808.5" cy="1083.1" r="5.6"/>
							<circle class="st5" cx="835.4" cy="1083.1" r="5.6"/>
						</g>
						<path class="st10" d="M833.7,1083.3v1.5c0,0.6-0.5,1.1-1.1,1.1h-21.4c-0.6,0-1.1-0.5-1.1-1.1v-1.5c0-0.6-0.5-1.1-1.1-1.1h-1.2
							c-0.6,0-1.1,0.5-1.1,1.1v7.1c0,0.6,0.5,1.1,1.1,1.1h0.6h1.7h23.5h1.7h0.6c0.6,0,1.1-0.5,1.1-1.1v-7.1c0-0.6-0.5-1.1-1.1-1.1
							h-1.2C834.2,1082.2,833.7,1082.7,833.7,1083.3z"/>
					</g>
				</g>
				<g>
					<path class="st3" d="M668.7,1050.7h-88.3c-0.4,0-0.8-0.4-0.8-0.8v-69.8c0-0.4,0.4-0.8,0.8-0.8h88.3c0.4,0,0.8,0.4,0.8,0.8v69.8
						C669.5,1050.3,669.2,1050.7,668.7,1050.7z"/>
					<g>
						<g>
							<circle class="st5" cx="612.1" cy="1006.2" r="5.6"/>
							<circle class="st5" cx="638.9" cy="1006.2" r="5.6"/>
						</g>
						<path class="st10" d="M637.3,1006.3v1.5c0,0.6-0.5,1.1-1.1,1.1h-21.4c-0.6,0-1.1-0.5-1.1-1.1v-1.5c0-0.6-0.5-1.1-1.1-1.1h-1.2
							c-0.6,0-1.1,0.5-1.1,1.1v7.1c0,0.6,0.5,1.1,1.1,1.1h0.6h1.7h23.5h1.7h0.6c0.6,0,1.1-0.5,1.1-1.1v-7.1c0-0.6-0.5-1.1-1.1-1.1
							h-1.2C637.8,1005.3,637.3,1005.8,637.3,1006.3z"/>
					</g>
				</g>
				<g>
					<path class="st3" d="M766.9,1050.7h-88.3c-0.4,0-0.8-0.4-0.8-0.8v-69.8c0-0.4,0.4-0.8,0.8-0.8h88.3c0.4,0,0.8,0.4,0.8,0.8v69.8
						C767.7,1050.3,767.4,1050.7,766.9,1050.7z"/>
					<g>
						<g>
							<circle class="st5" cx="710.3" cy="1006.2" r="5.6"/>
							<circle class="st5" cx="737.2" cy="1006.2" r="5.6"/>
						</g>
						<path class="st10" d="M735.5,1006.3v1.5c0,0.6-0.5,1.1-1.1,1.1H713c-0.6,0-1.1-0.5-1.1-1.1v-1.5c0-0.6-0.5-1.1-1.1-1.1h-1.2
							c-0.6,0-1.1,0.5-1.1,1.1v7.1c0,0.6,0.5,1.1,1.1,1.1h0.6h1.7h23.5h1.7h0.6c0.6,0,1.1-0.5,1.1-1.1v-7.1c0-0.6-0.5-1.1-1.1-1.1
							h-1.2C736,1005.3,735.5,1005.8,735.5,1006.3z"/>
					</g>
				</g>
				<g>
					<path class="st3" d="M865.2,1050.7h-88.3c-0.4,0-0.8-0.4-0.8-0.8v-69.8c0-0.4,0.4-0.8,0.8-0.8h88.3c0.4,0,0.8,0.4,0.8,0.8v69.8
						C866,1050.3,865.6,1050.7,865.2,1050.7z"/>
					<g>
						<g>
							<circle class="st5" cx="808.5" cy="1006.2" r="5.6"/>
							<circle class="st5" cx="835.4" cy="1006.2" r="5.6"/>
						</g>
						<path class="st10" d="M833.7,1006.3v1.5c0,0.6-0.5,1.1-1.1,1.1h-21.4c-0.6,0-1.1-0.5-1.1-1.1v-1.5c0-0.6-0.5-1.1-1.1-1.1h-1.2
							c-0.6,0-1.1,0.5-1.1,1.1v7.1c0,0.6,0.5,1.1,1.1,1.1h0.6h1.7h23.5h1.7h0.6c0.6,0,1.1-0.5,1.1-1.1v-7.1c0-0.6-0.5-1.1-1.1-1.1
							h-1.2C834.2,1005.3,833.7,1005.8,833.7,1006.3z"/>
					</g>
				</g>
			</g>
		</g>
		<path class="st4" d="M945.5,1473.3v14.9c0,3.8-3,6.8-6.8,6.8H186.3c-3.8,0-6.8-3-6.8-6.8v-14.9c0-3.8,3-6.8,6.8-6.8h752.4
			C942.5,1466.5,945.5,1469.5,945.5,1473.3z"/>
		<g>
			<g>
				<path class="st11" d="M411.9,1437.7c0,0-3.4-1.1-10.3,4.2c18.3,0.9,66.7,9.1,131.6,20.5C529.2,1457.4,506.6,1441.7,411.9,1437.7
					z"/>
				<path class="st12" d="M533.2,1462.3c-33.2-20.3-108.5-19.3-130.1-19.5c-1.6,1.2-3.4,2.8-5.2,4.7c31.9,2.2,104.2,11.5,136.1,15.9
					C533.8,1463.2,533.6,1462.8,533.2,1462.3z"/>
				<path class="st13" d="M391.5,1455.6c31,0.2,99.4,5.2,142.7,8.9c0,0,0-0.4-0.3-1c-34.8-15.5-105.6-17.5-136.1-15.9
					C395.8,1449.7,393.7,1452.4,391.5,1455.6z"/>
				<path class="st14" d="M388.5,1460.5l145.8,4c-34.3-11.5-113.3-11.5-143.5-8.9C389.8,1457.1,389.5,1458.7,388.5,1460.5z"/>
				<path class="st12" d="M435.9,1457.6c0,0,70.8-0.6,98.4,6.9C534.2,1464.5,465,1457.2,435.9,1457.6z"/>
			</g>
			<g>
				<path class="st11" d="M656.6,1437.7c0,0,3.4-1.1,10.3,4.2c-18.3,0.9-66.7,9.1-131.6,20.5
					C539.3,1457.4,561.9,1441.7,656.6,1437.7z"/>
				<path class="st12" d="M535.3,1462.3c33.2-20.3,108.5-19.3,130.1-19.5c1.6,1.2,3.4,2.8,5.2,4.7c-31.9,2.2-104.2,11.5-136.1,15.9
					C534.7,1463.2,534.9,1462.8,535.3,1462.3z"/>
				<path class="st13" d="M677,1455.6c-31,0.2-99.4,5.2-142.7,8.9c0,0,0-0.4,0.3-1c34.8-15.5,105.6-17.5,136.1-15.9
					C672.7,1449.7,674.8,1452.4,677,1455.6z"/>
				<path class="st14" d="M680,1460.5l-145.8,4c34.3-11.5,113.3-11.5,143.5-8.9C678.7,1457.1,679,1458.7,680,1460.5z"/>
				<path class="st12" d="M632.6,1457.6c0,0-70.8-0.6-98.4,6.9C534.2,1464.5,603.5,1457.2,632.6,1457.6z"/>
			</g>
			<path class="st15" d="M680.8,1461.5H542.8c-1.2,0-2.2,1.3-2.2,3h-12.7c0-1.7-1-3-2.2-3H387.7c-1.2,0-2.2,1.3-2.2,3s1,3,2.2,3
				h135.7v0.6c0,1.3,0.8,2.4,1.8,2.4h18.1c1,0,1.8-1.1,1.8-2.4v-0.6h135.7c1.2,0,2.2-1.3,2.2-3S682,1461.5,680.8,1461.5z"/>
			<path class="st11" d="M534.5,1463.5c0,0,20.5-30.5,122.5-33.5c0,0-17.3-1-25,0S556,1435,534.5,1463.5z"/>
		</g>
		<rect x="179.5" y="1488" class="st3" width="766" height="9"/>
		<rect x="223.5" y="1221" class="st3" width="678" height="5.5"/>
		<g>
			<path class="st14" d="M338,1466h-63.5c-0.4,0-0.8-0.3-0.8-0.8v-3.5c0-0.4,0.3-0.8,0.8-0.8H338c0.4,0,0.8,0.3,0.8,0.8v3.5
				C338.8,1465.7,338.4,1466,338,1466z"/>
			<g>
				<path class="st16" d="M340.1,1322c-0.8-5.7-2.8-6.4-5.8-6.8s-5-0.1-7.2,5.2s-10.6,120.3-10.9,127c-0.2,4.2,0.5,6.3,1,7.3
					c0.1,0.4,0.3,0.8,0.6,0.8s0.5-0.2,0.7-0.6c0.7-0.8,1.9-2.7,2.7-6.8C322.6,1441.4,341,1327.7,340.1,1322z"/>
				<path class="st17" d="M337.5,1318.3l-6.9-0.8c-0.8-0.1-1.4-0.9-1.3-1.7l0-0.4c0.1-0.8,0.9-1.4,1.7-1.3l6.9,0.8
					c0.8,0.1,1.4,0.9,1.3,1.7l0,0.4C339.1,1317.8,338.4,1318.4,337.5,1318.3z"/>
			</g>
			<path class="st12" d="M344.5,1342h-1.3v111.1c0,2.7-2.2,4.9-4.9,4.9h-64.1c-2.7,0-4.9-2.2-4.9-4.9V1342H268c-2,0-3.7,1.7-3.7,3.7
				v6.2v61.4v39.8c0,5.5,4.5,9.9,9.9,9.9h64.1c5.5,0,9.9-4.4,9.9-9.9v-39.8v-61.4v-6.2C348.2,1343.7,346.6,1342,344.5,1342z"/>
			<g>
				<path class="st16" d="M309.2,1448.9c2.1,6,4.1,6.3,7.1,6.1c3-0.3,4.9-1,5.9-7.3c0.9-6.3-15.9-132.8-17.1-140.2
					c-0.7-4.6-1.9-6.7-2.6-7.7c-0.2-0.5-0.5-0.7-0.7-0.7s-0.5,0.3-0.6,0.8c-0.5,1.1-1.2,3.4-1.1,8
					C300.3,1315.4,307.2,1442.8,309.2,1448.9z"/>
				<path class="st17" d="M312.6,1452.3l6.9-0.7c0.8-0.1,1.6,0.5,1.7,1.4l0.1,0.7c0.1,0.8-0.5,1.6-1.4,1.7l-6.9,0.7
					c-0.8,0.1-1.6-0.5-1.7-1.4l-0.1-0.7C311.1,1453.1,311.8,1452.3,312.6,1452.3z"/>
			</g>
			<g>
				<path class="st8" d="M328.7,1446.1c3.6,5.2,5.7,5,8.5,3.9c2.8-1.1,4.5-2.3,3.6-8.6s-51.6-123.4-54.7-130.2c-2-4.2-3.6-6-4.6-6.7
					c-0.3-0.4-0.7-0.6-0.9-0.5s-0.3,0.5-0.3,1c-0.2,1.2-0.2,3.6,1.1,8C283.7,1320.1,325.1,1440.9,328.7,1446.1z"/>
				<path class="st17" d="M332.9,1448.5l6.5-2.5c0.8-0.3,1.7,0.1,2,0.9l0.3,0.7c0.3,0.8-0.1,1.7-0.9,2l-6.5,2.5
					c-0.8,0.3-1.7-0.1-2-0.9l-0.3-0.7C331.7,1449.7,332.1,1448.8,332.9,1448.5z"/>
			</g>
			<g>
				<g>
					<path class="st16" d="M298.6,1308.4c-0.8-6.3-2.7-7.1-5.7-7.4c-3-0.3-5-0.1-7.2,5.9c-2.2,6-12.1,133.2-12.5,140.7
						c-0.2,4.7,0.4,7,0.9,8.1c0.1,0.5,0.3,0.8,0.6,0.8s0.5-0.2,0.8-0.7c0.7-0.9,1.9-3,2.8-7.6
						C279.5,1440.8,299.4,1314.8,298.6,1308.4z"/>
					<path class="st17" d="M296,1304.4l-6.9-0.8c-0.8-0.1-1.4-0.9-1.3-1.7l0.1-0.7c0.1-0.8,0.9-1.4,1.7-1.3l6.9,0.8
						c0.8,0.1,1.4,0.9,1.3,1.7l-0.1,0.7C297.6,1303.9,296.9,1304.5,296,1304.4z"/>
				</g>
				
					<linearGradient id="SVGID_1_" gradientUnits="userSpaceOnUse" x1="206.2402" y1="-518.8414" x2="206.2402" y2="-545.3733" gradientTransform="matrix(0.9932 0.1166 -0.1166 0.9932 27.5247 1792.7069)">
					<stop  offset="0" style="stop-color:#838383"/>
					<stop  offset="5.210000e-02" style="stop-color:#8F8F8F"/>
					<stop  offset="0.1973" style="stop-color:#ABABAB"/>
					<stop  offset="0.3537" style="stop-color:#C1C1C1"/>
					<stop  offset="0.5246" style="stop-color:#D1D1D1"/>
					<stop  offset="0.721" style="stop-color:#DADADA"/>
					<stop  offset="1" style="stop-color:#DDDDDD"/>
				</linearGradient>
				<path class="st18" d="M299.8,1287.5c0,0-3.3-6-3.6-12.4l-1.4,11.5c0.4,0.2,0.7,0.6,0.6,1c-0.1,0.6-0.6,0.9-1.1,0.9
					c-0.5-0.1-0.9-0.6-0.9-1.1c0-0.5,0.4-0.8,0.9-0.9l1.4-11.5c-1.8,6.1-6.3,11.2-6.3,11.2c1.2,5.9-0.1,14.1-0.1,14.1
					c-0.5,0.6,3.6,1.1,3.6,1.1s4.1,0.5,3.8-0.2C296.6,1301.2,297.2,1293,299.8,1287.5z"/>
			</g>
			<path class="st19" d="M272.1,1342v108.6c0,2.4,2,4.4,4.4,4.4h59.1c2.5,0,4.4-2,4.4-4.4V1342H272.1z"/>
		</g>
		<g>
			<path class="st10" d="M871.9,1465h-70.3c-2.4,0-4.3-1.9-4.3-4.3v-82.3c0-2.4,2-4.3,4.3-4.3h70.3c2.4,0,4.3,1.9,4.3,4.3v82.3
				C876.2,1463.1,874.3,1465,871.9,1465z"/>
			<rect x="797.2" y="1387" class="st20" width="79" height="6"/>
			<rect x="797.2" y="1451" class="st20" width="79" height="14"/>
			<g>
				<path class="st20" d="M862.9,1413.8h-4.8c-4.2-5.4-12.2-9-21.4-9s-17.2,3.6-21.4,9h-4.8c-1.5,0-2.8,1.3-2.8,2.8v11.4
					c0,1.6,1.3,2.8,2.8,2.8h4.8c4.2,5.4,12.2,9,21.4,9s17.2-3.6,21.4-9h4.8c1.5,0,2.8-1.3,2.8-2.8v-11.4
					C865.8,1415.1,864.5,1413.8,862.9,1413.8z"/>
				<path class="st11" d="M836.8,1434.8c-7.4,0-14.1-2.7-17.5-7.1c-1-1.2-2.4-1.9-3.9-1.9h-2.6v-7h2.6c1.5,0,3-0.7,3.9-1.9
					c3.4-4.4,10.1-7.1,17.5-7.1s14.1,2.7,17.5,7.1c1,1.2,2.4,1.9,3.9,1.9h2.6v7h-2.6c-1.5,0-3,0.7-3.9,1.9
					C850.8,1432.1,844.1,1434.8,836.8,1434.8z"/>
				<g>
					<path class="st21" d="M827.8,1426.7h-5.7l0-0.2c0.1,0,0.1,0,0.2,0c0.1,0,0.3,0,0.5-0.1s0.4-0.1,0.5-0.2
						c0.1-0.1,0.2-0.3,0.3-0.5l0.2-0.6l1.6-5.7l0.1-0.6c0-0.3,0-0.4,0-0.5c-0.1-0.1-0.2-0.2-0.4-0.2l-0.6-0.1l0-0.2h5.6l0,0.2
						l-0.7,0c-0.2,0-0.4,0.1-0.5,0.2s-0.2,0.3-0.3,0.6l-0.2,0.6l-1.6,5.8l-0.1,0.6c0,0.3,0,0.4,0,0.5c0.1,0.1,0.2,0.2,0.5,0.2l0.6,0
						L827.8,1426.7z"/>
					<path class="st21" d="M841.3,1418.2c-0.1,0-0.2,0-0.3,0c-0.1,0-0.3,0-0.5,0.1c-0.2,0-0.4,0.1-0.6,0.3c-0.2,0.2-0.3,0.3-0.4,0.6
						l-0.2,0.6l-1.9,7h-1.5l-3.7-7.3h0l-1.5,5.6l-0.1,0.6c0,0.3,0,0.5,0,0.6c0.1,0.1,0.2,0.2,0.4,0.2c0.2,0,0.4,0.1,0.5,0.1
						c0.2,0,0.3,0,0.3,0l0,0.2h-3.5l0-0.2c0.1,0,0.2,0,0.4,0c0.1,0,0.4,0,0.7-0.1c0.3-0.1,0.6-0.3,0.8-0.8l0.2-0.6l1.5-5.5l0.1-0.6
						c-0.1-0.2-0.1-0.3-0.2-0.5c-0.1-0.1-0.2-0.2-0.4-0.3c-0.2-0.1-0.3-0.1-0.5-0.1h-0.4l0-0.2h4.6l2.8,5.5h0l1-3.8l0.1-0.6
						c0-0.3,0-0.4,0-0.6s-0.2-0.2-0.4-0.2c-0.2,0-0.4-0.1-0.5-0.1c-0.1,0-0.2,0-0.4,0l0-0.2h3.4L841.3,1418.2z"/>
					<path class="st21" d="M845.1,1422.6l-0.4,0.4l-0.6,2.2l-0.1,0.6c0,0.3,0,0.4,0,0.5s0.2,0.2,0.5,0.2l0.4,0l0,0.2h-5.3l0-0.2
						l0.6-0.1c0.2,0,0.4-0.1,0.5-0.2s0.2-0.3,0.3-0.5l0.2-0.6l1.5-5.7l0.1-0.6c0-0.3,0-0.4,0-0.5s-0.2-0.2-0.4-0.2l-0.6-0.1l0-0.2
						h5.4l0,0.2l-0.5,0c-0.2,0-0.4,0.1-0.5,0.2c-0.1,0.1-0.2,0.3-0.3,0.6l-0.2,0.6l-0.9,3.2c0.3-0.3,0.7-0.7,1.3-1.1
						c0.5-0.5,1.1-1,1.7-1.5c0.6-0.5,1-0.9,1.2-1.1c0.2-0.2,0.3-0.4,0.3-0.5c0-0.1,0-0.2-0.1-0.2s-0.2-0.1-0.3-0.1l-0.5,0l0-0.2h3
						l0,0.2c-0.1,0-0.2,0-0.3,0s-0.2,0-0.4,0.1s-0.3,0.1-0.5,0.2c-0.2,0.1-0.4,0.3-0.7,0.5l-1.6,1.4l1.9,5.1
						c0.2,0.5,0.3,0.7,0.4,0.8s0.2,0.2,0.4,0.2s0.3,0,0.3,0.1c0.1,0,0.2,0,0.2,0l0,0.2h-5.8l0-0.2l0.5,0c0.2,0,0.3,0,0.4-0.1
						c0.1,0,0.2-0.1,0.2-0.2c0-0.1,0-0.2,0-0.3s-0.1-0.3-0.2-0.5s-0.2-0.5-0.3-0.7c-0.1-0.3-0.2-0.6-0.4-1.1
						C845.3,1423.2,845.2,1422.8,845.1,1422.6z"/>
				</g>
			</g>
		</g>
		<g>
			<path class="st10" d="M789.9,1465h-70.3c-2.4,0-4.3-1.9-4.3-4.3v-82.3c0-2.4,2-4.3,4.3-4.3h70.3c2.4,0,4.3,1.9,4.3,4.3v82.3
				C794.2,1463.1,792.3,1465,789.9,1465z"/>
			<rect x="715.2" y="1387" class="st22" width="79" height="6"/>
			<rect x="715.2" y="1451" class="st22" width="79" height="14"/>
			<g>
				<path class="st22" d="M780.9,1413.8h-4.8c-4.2-5.4-12.2-9-21.4-9s-17.2,3.6-21.4,9h-4.8c-1.5,0-2.8,1.3-2.8,2.8v11.4
					c0,1.6,1.3,2.8,2.8,2.8h4.8c4.2,5.4,12.2,9,21.4,9s17.2-3.6,21.4-9h4.8c1.5,0,2.8-1.3,2.8-2.8v-11.4
					C783.8,1415.1,782.5,1413.8,780.9,1413.8z"/>
				<path class="st11" d="M754.8,1434.8c-7.4,0-14.1-2.7-17.5-7.1c-1-1.2-2.4-1.9-3.9-1.9h-2.6v-7h2.6c1.5,0,3-0.7,3.9-1.9
					c3.4-4.4,10.1-7.1,17.5-7.1s14.1,2.7,17.5,7.1c1,1.2,2.4,1.9,3.9,1.9h2.6v7h-2.6c-1.5,0-3,0.7-3.9,1.9
					C768.8,1432.1,762.1,1434.8,754.8,1434.8z"/>
				<g>
					<path class="st23" d="M745.8,1426.7h-5.7l0-0.2c0.1,0,0.1,0,0.2,0c0.1,0,0.3,0,0.5-0.1s0.4-0.1,0.5-0.2
						c0.1-0.1,0.2-0.3,0.3-0.5l0.2-0.6l1.6-5.7l0.1-0.6c0-0.3,0-0.4,0-0.5c-0.1-0.1-0.2-0.2-0.4-0.2l-0.6-0.1l0-0.2h5.6l0,0.2
						l-0.7,0c-0.2,0-0.4,0.1-0.5,0.2s-0.2,0.3-0.3,0.6l-0.2,0.6l-1.6,5.8l-0.1,0.6c0,0.3,0,0.4,0,0.5c0.1,0.1,0.2,0.2,0.5,0.2l0.6,0
						L745.8,1426.7z"/>
					<path class="st23" d="M759.3,1418.2c-0.1,0-0.2,0-0.3,0c-0.1,0-0.3,0-0.5,0.1c-0.2,0-0.4,0.1-0.6,0.3c-0.2,0.2-0.3,0.3-0.4,0.6
						l-0.2,0.6l-1.9,7h-1.5l-3.7-7.3h0l-1.5,5.6l-0.1,0.6c0,0.3,0,0.5,0,0.6c0.1,0.1,0.2,0.2,0.4,0.2c0.2,0,0.4,0.1,0.5,0.1
						c0.2,0,0.3,0,0.3,0l0,0.2h-3.5l0-0.2c0.1,0,0.2,0,0.4,0c0.1,0,0.4,0,0.7-0.1c0.3-0.1,0.6-0.3,0.8-0.8l0.2-0.6l1.5-5.5l0.1-0.6
						c-0.1-0.2-0.1-0.3-0.2-0.5c-0.1-0.1-0.2-0.2-0.4-0.3c-0.2-0.1-0.3-0.1-0.5-0.1h-0.4l0-0.2h4.6l2.8,5.5h0l1-3.8l0.1-0.6
						c0-0.3,0-0.4,0-0.6s-0.2-0.2-0.4-0.2c-0.2,0-0.4-0.1-0.5-0.1c-0.1,0-0.2,0-0.4,0l0-0.2h3.4L759.3,1418.2z"/>
					<path class="st23" d="M763.1,1422.6l-0.4,0.4l-0.6,2.2l-0.1,0.6c0,0.3,0,0.4,0,0.5s0.2,0.2,0.5,0.2l0.4,0l0,0.2h-5.3l0-0.2
						l0.6-0.1c0.2,0,0.4-0.1,0.5-0.2s0.2-0.3,0.3-0.5l0.2-0.6l1.5-5.7l0.1-0.6c0-0.3,0-0.4,0-0.5s-0.2-0.2-0.4-0.2l-0.6-0.1l0-0.2
						h5.4l0,0.2l-0.5,0c-0.2,0-0.4,0.1-0.5,0.2c-0.1,0.1-0.2,0.3-0.3,0.6l-0.2,0.6l-0.9,3.2c0.3-0.3,0.7-0.7,1.3-1.1
						c0.5-0.5,1.1-1,1.7-1.5c0.6-0.5,1-0.9,1.2-1.1c0.2-0.2,0.3-0.4,0.3-0.5c0-0.1,0-0.2-0.1-0.2s-0.2-0.1-0.3-0.1l-0.5,0l0-0.2h3
						l0,0.2c-0.1,0-0.2,0-0.3,0s-0.2,0-0.4,0.1s-0.3,0.1-0.5,0.2c-0.2,0.1-0.4,0.3-0.7,0.5l-1.6,1.4l1.9,5.1
						c0.2,0.5,0.3,0.7,0.4,0.8s0.2,0.2,0.4,0.2s0.3,0,0.3,0.1c0.1,0,0.2,0,0.2,0l0,0.2h-5.8l0-0.2l0.5,0c0.2,0,0.3,0,0.4-0.1
						c0.1,0,0.2-0.1,0.2-0.2c0-0.1,0-0.2,0-0.3s-0.1-0.3-0.2-0.5s-0.2-0.5-0.3-0.7c-0.1-0.3-0.2-0.6-0.4-1.1
						C763.3,1423.2,763.2,1422.8,763.1,1422.6z"/>
				</g>
			</g>
		</g>
		<g>
			<path class="st10" d="M841.9,1376h-70.3c-2.4,0-4.3-1.9-4.3-4.3v-82.3c0-2.4,2-4.3,4.3-4.3h70.3c2.4,0,4.3,1.9,4.3,4.3v82.3
				C846.2,1374.1,844.3,1376,841.9,1376z"/>
			<rect x="767.2" y="1298" class="st24" width="79" height="6"/>
			<rect x="767.2" y="1362" class="st24" width="79" height="14"/>
			<g>
				<path class="st24" d="M832.9,1324.8h-4.8c-4.2-5.4-12.2-9-21.4-9s-17.2,3.6-21.4,9h-4.8c-1.5,0-2.8,1.3-2.8,2.8v11.4
					c0,1.6,1.3,2.8,2.8,2.8h4.8c4.2,5.4,12.2,9,21.4,9s17.2-3.6,21.4-9h4.8c1.5,0,2.8-1.3,2.8-2.8v-11.4
					C835.8,1326.1,834.5,1324.8,832.9,1324.8z"/>
				<path class="st11" d="M806.8,1345.8c-7.4,0-14.1-2.7-17.5-7.1c-1-1.2-2.4-1.9-3.9-1.9h-2.6v-7h2.6c1.5,0,3-0.7,3.9-1.9
					c3.4-4.4,10.1-7.1,17.5-7.1s14.1,2.7,17.5,7.1c1,1.2,2.4,1.9,3.9,1.9h2.6v7h-2.6c-1.5,0-3,0.7-3.9,1.9
					C820.8,1343.1,814.1,1345.8,806.8,1345.8z"/>
				<g>
					<path class="st25" d="M797.8,1337.7h-5.7l0-0.2c0.1,0,0.1,0,0.2,0c0.1,0,0.3,0,0.5-0.1s0.4-0.1,0.5-0.2
						c0.1-0.1,0.2-0.3,0.3-0.5l0.2-0.6l1.6-5.7l0.1-0.6c0-0.3,0-0.4,0-0.5c-0.1-0.1-0.2-0.2-0.4-0.2l-0.6-0.1l0-0.2h5.6l0,0.2
						l-0.7,0c-0.2,0-0.4,0.1-0.5,0.2s-0.2,0.3-0.3,0.6l-0.2,0.6l-1.6,5.8l-0.1,0.6c0,0.3,0,0.4,0,0.5c0.1,0.1,0.2,0.2,0.5,0.2l0.6,0
						L797.8,1337.7z"/>
					<path class="st25" d="M811.3,1329.2c-0.1,0-0.2,0-0.3,0c-0.1,0-0.3,0-0.5,0.1c-0.2,0-0.4,0.1-0.6,0.3c-0.2,0.2-0.3,0.3-0.4,0.6
						l-0.2,0.6l-1.9,7h-1.5l-3.7-7.3h0l-1.5,5.6l-0.1,0.6c0,0.3,0,0.5,0,0.6c0.1,0.1,0.2,0.2,0.4,0.2c0.2,0,0.4,0.1,0.5,0.1
						c0.2,0,0.3,0,0.3,0l0,0.2h-3.5l0-0.2c0.1,0,0.2,0,0.4,0c0.1,0,0.4,0,0.7-0.1c0.3-0.1,0.6-0.3,0.8-0.8l0.2-0.6l1.5-5.5l0.1-0.6
						c-0.1-0.2-0.1-0.3-0.2-0.5c-0.1-0.1-0.2-0.2-0.4-0.3c-0.2-0.1-0.3-0.1-0.5-0.1h-0.4l0-0.2h4.6l2.8,5.5h0l1-3.8l0.1-0.6
						c0-0.3,0-0.4,0-0.6s-0.2-0.2-0.4-0.2c-0.2,0-0.4-0.1-0.5-0.1c-0.1,0-0.2,0-0.4,0l0-0.2h3.4L811.3,1329.2z"/>
					<path class="st25" d="M815.1,1333.6l-0.4,0.4l-0.6,2.2l-0.1,0.6c0,0.3,0,0.4,0,0.5s0.2,0.2,0.5,0.2l0.4,0l0,0.2h-5.3l0-0.2
						l0.6-0.1c0.2,0,0.4-0.1,0.5-0.2s0.2-0.3,0.3-0.5l0.2-0.6l1.5-5.7l0.1-0.6c0-0.3,0-0.4,0-0.5s-0.2-0.2-0.4-0.2l-0.6-0.1l0-0.2
						h5.4l0,0.2l-0.5,0c-0.2,0-0.4,0.1-0.5,0.2c-0.1,0.1-0.2,0.3-0.3,0.6l-0.2,0.6l-0.9,3.2c0.3-0.3,0.7-0.7,1.3-1.1
						c0.5-0.5,1.1-1,1.7-1.5c0.6-0.5,1-0.9,1.2-1.1c0.2-0.2,0.3-0.4,0.3-0.5c0-0.1,0-0.2-0.1-0.2s-0.2-0.1-0.3-0.1l-0.5,0l0-0.2h3
						l0,0.2c-0.1,0-0.2,0-0.3,0s-0.2,0-0.4,0.1s-0.3,0.1-0.5,0.2c-0.2,0.1-0.4,0.3-0.7,0.5l-1.6,1.4l1.9,5.1
						c0.2,0.5,0.3,0.7,0.4,0.8s0.2,0.2,0.4,0.2s0.3,0,0.3,0.1c0.1,0,0.2,0,0.2,0l0,0.2h-5.8l0-0.2l0.5,0c0.2,0,0.3,0,0.4-0.1
						c0.1,0,0.2-0.1,0.2-0.2c0-0.1,0-0.2,0-0.3s-0.1-0.3-0.2-0.5s-0.2-0.5-0.3-0.7c-0.1-0.3-0.2-0.6-0.4-1.1
						C815.3,1334.2,815.2,1333.8,815.1,1333.6z"/>
				</g>
			</g>
		</g>
	</g>
</g>
</svg>
