<?xml version="1.0" encoding="utf-8"?>
<!-- Generator: Adobe Illustrator 26.0.0, SVG Export Plug-In . SVG Version: 6.00 Build 0)  -->
<svg version="1.1" id="Layer_1" xmlns="http://www.w3.org/2000/svg" xmlns:xlink="http://www.w3.org/1999/xlink" x="0px" y="0px"
	 viewBox="0 0 284 284" style="enable-background:new 0 0 284 284;" xml:space="preserve">
<style type="text/css">
	.st0{fill:#A4A6A5;}
</style>
<g>
	<path class="st0" d="M126,161.5c0-9.2-5.5-16.5-12.5-16.5s-12.5,7.2-12.5,16.5s5.5,16.5,12.5,16.5S126,170.8,126,161.5z M113.5,168
		c-0.6-0.1-2.5-2.5-2.5-6.5s1.9-6.4,2.5-6.5c0.6,0.1,2.5,2.5,2.5,6.5S114.1,167.9,113.5,168z"/>
	<path class="st0" d="M157.7,134.8c-2.6-0.8-5.4,0.6-6.3,3.3c-0.8,2.6,0.6,5.4,3.3,6.3c0.4,0.1,4.2,1.3,9.9,2
		c-4.5,2.5-7.6,8.3-7.6,15.2c0,9.2,5.5,16.5,12.5,16.5s12.5-7.2,12.5-16.5c0-6.5-2.8-12.1-6.8-14.7c11.1-0.3,25-3.2,37.8-13.4
		c2.2-1.7,2.5-4.9,0.8-7s-4.9-2.5-7-0.8C184.9,142.9,158,134.8,157.7,134.8z M169.5,168c-0.6-0.1-2.5-2.5-2.5-6.5s1.9-6.4,2.5-6.5
		c0.6,0.1,2.5,2.5,2.5,6.5S170.1,167.9,169.5,168z"/>
	<path class="st0" d="M141,221c12.9,0,26-4,26-13s-13.1-13-26-13s-26,4-26,13S128.1,221,141,221z M141,205c7.7,0,13,1.7,15.2,3
		c-2.2,1.3-7.5,3-15.2,3c-7.7,0-13-1.7-15.2-3C128,206.7,133.3,205,141,205z"/>
	<path class="st0" d="M219.2,76.4c-1.9-2-5.1-2-7.1,0s-2,5.1,0,7.1c18.8,18.9,29.1,43.9,29.1,70.6c0,55.1-44.9,100-100,100
		s-100-44.9-100-100c0-11.3,1.9-22.1,5.3-32.2c4.9,1.5,10.4,2.5,16.3,2.3c6.9-0.2,13.4-2.1,19.6-5.5c4.7,3.3,10.2,5.7,16.3,7.2
		c4.8,1.2,9.3,1.8,13.8,1.8c15.1,0,28.1-6.9,37.4-19.8c4.9,2.9,11.7,5,20.9,5.2c0,0,0.1,0,0.1,0c2.7,0,4.9-2.2,5-4.9
		c0.1-2.8-2.1-5.1-4.9-5.1c-6.7-0.1-12-1.4-16-3.7c0.1-0.3,0.3-0.6,0.4-0.9c7.4-15.2,10.1-36.3,3.1-42.9c13,2.3,25.5,7.1,36.7,14.3
		c2.3,1.5,5.4,0.8,6.9-1.5c1.5-2.3,0.8-5.4-1.5-6.9C183,50,162.4,44,141.2,44c-8.8,0-17.4,1-25.7,3c-0.6-2-1.3-4-2.1-5.7
		c-5-10.7-13.9-16.8-23.7-16.3c-14.2,0.7-24.9,22.4-26.9,43.1c-0.3,2.7-0.4,5.8-0.3,9.2c-8.8,9.1-16.1,19.7-21.4,31.3
		c-6.5-3.4-10.5-7.2-10.6-7.3c-2-1.9-5.2-1.8-7.1,0.2c-1.9,2-1.8,5.2,0.2,7.1c0.4,0.4,5.6,5.2,13.7,9.3c-3.9,11.3-6.1,23.4-6.1,36
		c0,60.6,49.3,110,110,110s110-49.4,110-110C251.2,124.7,239.9,97.1,219.2,76.4z M83.2,106.2c-7.1-7.3-9.7-16.8-10.4-25
		c9.9-9.3,21.7-16.7,34.8-21.4c0.2,11.4-4.2,25.6-17.2,39.8C88,102.2,85.6,104.4,83.2,106.2z M148,90.9c-0.4-1-0.7-2.1-0.9-3.3
		c-1.9-9.5,2.5-19.6,5.4-23.1C153.4,69,152.7,79.8,148,90.9z M141.2,54c2.7,0,5.4,0.1,8.1,0.3c-0.5,0.2-0.9,0.5-1.4,0.8
		c-8,5.4-14.2,23.2-10.1,37.2c0.8,2.6,2.1,5.7,4.5,8.8c-6.9,10-19.5,20.4-41.2,15c-3.7-0.9-7-2.2-9.8-3.7c2.1-1.8,4.2-3.8,6.3-6.1
		c15.9-17.4,20.6-35.3,19.6-49.5C125,55,133,54,141.2,54z M90.2,35c0.2,0,0.4,0,0.5,0c5.4,0,10.5,3.9,13.6,10.6
		c0.6,1.3,1.1,2.7,1.6,4.2c-12.1,4.1-23.3,10.3-33.1,18.1C75,49.9,84,35.3,90.2,35z M64.1,90.4c0.9,4.1,2.4,8.2,4.4,12.2
		c1.6,3.2,3.6,6.1,5.9,8.7c-3.8,1.6-7.8,2.5-11.8,2.7c-4.3,0.2-8.5-0.5-12.3-1.6C54,104.5,58.6,97.1,64.1,90.4z"/>
</g>
</svg>
