<?xml version="1.0" encoding="utf-8"?>
<!-- Generator: Adobe Illustrator 26.0.0, SVG Export Plug-In . SVG Version: 6.00 Build 0)  -->
<svg version="1.1" id="Layer_1" xmlns="http://www.w3.org/2000/svg" xmlns:xlink="http://www.w3.org/1999/xlink" x="0px" y="0px"
	 viewBox="0 0 284 284" style="enable-background:new 0 0 284 284;" xml:space="preserve">
<style type="text/css">
	.st0{fill:#A4A6A5;}
</style>
<g>
	<path class="st0" d="M125.8,162c0-9.3-5.5-16.5-12.5-16.5s-12.5,7.2-12.5,16.5s5.5,16.5,12.5,16.5S125.8,171.3,125.8,162z
		 M110.8,162c0-4,1.9-6.4,2.5-6.5c0.6,0.1,2.5,2.5,2.5,6.5s-1.9,6.4-2.5,6.5C112.6,168.4,110.8,166,110.8,162z"/>
	<path class="st0" d="M156.8,162c0,9.3,5.5,16.5,12.5,16.5s12.5-7.2,12.5-16.5s-5.5-16.5-12.5-16.5S156.8,152.8,156.8,162z
		 M171.8,162c0,4-1.9,6.4-2.5,6.5c-0.6-0.1-2.5-2.5-2.5-6.5s1.9-6.4,2.5-6.5C169.9,155.6,171.8,158,171.8,162z"/>
	<path class="st0" d="M193.9,150.4c1,1.4,2.5,2.2,4.1,2.2c1,0,2-0.3,2.8-0.9c2.3-1.6,2.8-4.7,1.3-7c-7.1-10.3-15.3-16.3-24.2-17.6
		c-10.8-1.7-18.6,4.3-19,4.5c-2.2,1.7-2.6,4.8-0.9,7c1.7,2.2,4.8,2.6,7,0.9c0,0,4.8-3.5,11.3-2.5
		C182.5,137.9,188.4,142.4,193.9,150.4z"/>
	<path class="st0" d="M95.6,191.5c-1.1-2.5-4-3.7-6.5-2.6c-2.5,1.1-3.7,4-2.6,6.6c0.4,1,10.8,24,54.5,25h0.1c2.7,0,4.9-2.2,5-4.9
		c0.1-2.8-2.1-5.1-4.9-5.1C104.5,209.6,96,192.4,95.6,191.5z"/>
	<path class="st0" d="M219.2,76.9c-1.9-2-5.1-2-7.1,0c-2,1.9-2,5.1,0,7.1c18.8,18.9,29.1,43.9,29.1,70.6c0,55.1-44.9,100-100,100
		s-100-44.9-100-100c0-11.3,1.9-22.1,5.3-32.2c4.9,1.5,10.4,2.5,16.3,2.3c6.9-0.3,13.4-2.1,19.6-5.5c4.7,3.3,10.2,5.7,16.3,7.2
		c4.7,1.2,9.3,1.8,13.8,1.8c15.1,0,28.1-6.9,37.4-19.8c4.9,2.9,11.7,5,20.9,5.2h0.1c2.7,0,4.9-2.2,5-4.9c0.1-2.8-2.1-5-4.9-5.1
		c-6.7-0.1-12-1.4-16-3.7c0.1-0.3,0.3-0.6,0.4-0.9c7.4-15.1,10.1-36.3,3.1-42.9c13,2.3,25.5,7.1,36.7,14.3c2.3,1.5,5.4,0.8,6.9-1.5
		s0.8-5.4-1.5-6.9c-17.7-11.4-38.3-17.4-59.5-17.4c-8.8,0-17.4,1.1-25.7,3c-0.6-2-1.3-4-2.1-5.7c-5-10.7-13.9-16.8-23.7-16.3
		c-14.1,0.6-24.7,22.4-26.7,43c-0.3,2.7-0.4,5.8-0.4,9.2c-8.8,9.1-16.1,19.7-21.4,31.3c-6.4-3.4-10.5-7.2-10.6-7.3
		c-2-1.9-5.2-1.8-7.1,0.2c-1.9,2-1.8,5.2,0.2,7.1c0.4,0.4,5.6,5.2,13.7,9.3c-3.9,11.3-6.1,23.4-6.1,36c0,60.7,49.3,110,110,110
		s110-49.3,110-110C251.3,125.2,239.9,97.6,219.2,76.9z M83.2,106.7c-7.1-7.3-9.7-16.8-10.4-25c9.9-9.3,21.7-16.7,34.8-21.4
		c0.2,11.4-4.2,25.6-17.2,39.8C88,102.7,85.6,104.9,83.2,106.7z M148,91.5c-0.4-1-0.7-2.1-1-3.3c-1.9-9.5,2.5-19.6,5.4-23.1
		C153.4,69.5,152.7,80.3,148,91.5z M141.3,54.5c2.7,0,5.4,0.1,8.1,0.3c-0.5,0.2-0.9,0.5-1.4,0.8c-8,5.4-14.2,23.2-10.1,37.2
		c0.8,2.6,2.1,5.7,4.5,8.8c-6.9,10-19.5,20.4-41.2,15c-3.7-0.9-7-2.2-9.8-3.7c2.1-1.8,4.2-3.8,6.3-6.1
		c15.9-17.4,20.6-35.3,19.6-49.5C125,55.5,133,54.5,141.3,54.5z M90.2,35.5c0.2,0,0.4,0,0.5,0c5.4,0,10.5,3.9,13.6,10.6
		c0.6,1.3,1.1,2.7,1.6,4.2c-12.1,4.1-23.3,10.3-33.1,18.1C75.1,50.4,84,35.8,90.2,35.5z M64.1,91c0.9,4.1,2.4,8.2,4.4,12.2
		c1.6,3.2,3.6,6.1,5.9,8.7c-3.8,1.6-7.8,2.5-11.8,2.7c-4.3,0.2-8.5-0.5-12.3-1.6C54,105,58.6,97.6,64.1,91z"/>
</g>
</svg>
