<?xml version="1.0" encoding="utf-8"?>
<!-- Generator: Adobe Illustrator 26.0.0, SVG Export Plug-In . SVG Version: 6.00 Build 0)  -->
<svg version="1.1" id="Layer_1" xmlns="http://www.w3.org/2000/svg" xmlns:xlink="http://www.w3.org/1999/xlink" x="0px" y="0px"
	 viewBox="0 0 270 296.97" style="enable-background:new 0 0 270 296.97;" xml:space="preserve">
<style type="text/css">
	.st0{fill:#E3E0DE;}
	.st1{fill:none;stroke:#E3E0DE;stroke-width:10;stroke-miterlimit:10;}
</style>
<g>
	<g>
		<path class="st0" d="M225.07,263.97H44.94c-8.23,0-14.93-6.7-14.93-14.93l0.01-0.36l9.99-139.97c0.11-8.14,6.76-14.73,14.93-14.73
			h160.13c8.17,0,14.82,6.59,14.93,14.73l10,140.14v0.17c0.01,3.98-1.54,7.73-4.36,10.55C232.82,262.41,229.06,263.97,225.07,263.97
			z M40.01,249.19c0.08,2.65,2.26,4.78,4.93,4.78h180.13c1.32,0,2.56-0.51,3.5-1.45c0.89-0.89,1.4-2.07,1.43-3.33l-10-140.11v-0.18
			c0-2.72-2.21-4.93-4.93-4.93H54.94c-2.72,0-4.93,2.21-4.93,4.93l-0.01,0.36L40.01,249.19z"/>
	</g>
	<g>
		<g>
			<path class="st0" d="M195.47,84.24H74.53c-8.23,0-14.93-6.7-14.93-14.93V47.93C59.6,39.7,66.3,33,74.53,33h120.94
				c8.23,0,14.93,6.7,14.93,14.93v21.37c0.01,3.98-1.54,7.72-4.36,10.55C203.22,82.68,199.47,84.24,195.47,84.24z M74.53,43
				c-2.72,0-4.93,2.21-4.93,4.93v21.37c0,2.72,2.21,4.93,4.93,4.93h120.94c1.32,0,2.56-0.51,3.5-1.45c0.93-0.93,1.44-2.16,1.43-3.47
				V47.93c0-2.72-2.21-4.93-4.93-4.93H74.53z"/>
		</g>
	</g>
</g>
<g>
	<path class="st1" d="M1213.95,258.97h-180.13c-5.49,0-9.93-4.45-9.93-9.93l10-140.13c0-5.49,4.45-9.93,9.93-9.93h160.13
		c5.49,0,9.93,4.45,9.93,9.93l10,140.13C1223.89,254.52,1219.44,258.97,1213.95,258.97z"/>
	<g>
		<path class="st1" d="M1184.36,79.24h-120.94c-5.49,0-9.93-4.45-9.93-9.93V47.93c0-5.49,4.45-9.93,9.93-9.93h120.94
			c5.49,0,9.93,4.45,9.93,9.93v21.37C1194.3,74.79,1189.85,79.24,1184.36,79.24z"/>
	</g>
</g>
<g>
	<path class="st0" d="M128.26,201.93c0-3.63,2.99-6.84,6.74-6.84c3.74,0,6.73,3.21,6.73,6.84c0,3.63-2.99,6.73-6.73,6.73
		C131.26,208.66,128.26,205.56,128.26,201.93z M140.88,140.56c0,3.96-1.18,14.11-2.57,29.08l-1.39,14.86h-3.85l-1.39-14.86
		c-1.39-14.97-2.57-25.12-2.57-29.08c0-4.6,2.24-6.52,5.88-6.52C138.63,134.04,140.88,135.97,140.88,140.56z"/>
</g>
</svg>
