<?xml version="1.0" encoding="utf-8"?>
<!-- Generator: Adobe Illustrator 26.0.0, SVG Export Plug-In . SVG Version: 6.00 Build 0)  -->
<svg version="1.1" id="Layer_1" xmlns="http://www.w3.org/2000/svg" xmlns:xlink="http://www.w3.org/1999/xlink" x="0px" y="0px"
	 viewBox="0 0 214.22 41.83" style="enable-background:new 0 0 214.22 41.83;" xml:space="preserve">
<style type="text/css">
	.st0{fill:#0A0D0C;}
</style>
<text transform="matrix(0.9704 0 0 1 -2.1551 -139.0635)" style="font-family:'MapoFlowerIsland'; font-size:12px;">하루의 잉크</text>
<g>
	<path class="st0" d="M28.87,12.61c-0.36-0.07-0.77-0.11-1.22-0.12c-0.45-0.01-0.91-0.01-1.36,0.02c-0.24,0.03-0.6,0.06-1.08,0.1
		c-0.48,0.04-1.03,0.08-1.64,0.12c-0.62,0.04-1.28,0.09-2,0.14c-0.72,0.06-1.46,0.1-2.2,0.12c-1.47,0.1-2.85,0.16-4.13,0.2
		c-1.28,0.03-2.23,0.05-2.85,0.05c-0.33,0-0.65-0.04-0.98-0.07c0.15-0.26,0.26-0.54,0.26-0.86c0-0.95-0.77-1.72-1.72-1.72
		c-0.95,0-1.72,0.77-1.72,1.72c0,0.33,0.12,0.62,0.28,0.88l0,0c0.01,0.02,0.03,0.04,0.04,0.05c0.07,0.1,0.13,0.21,0.22,0.3
		c0.05,0.06,0.07,0.11,0.12,0.17c0.17,0.19,0.4,0.36,0.68,0.52c0.28,0.16,0.6,0.3,0.96,0.4c0.36,0.11,0.75,0.16,1.18,0.16
		c0.21,0,0.59-0.01,1.12-0.04c0.53-0.03,1.15-0.06,1.86-0.1c0.71-0.04,1.48-0.09,2.3-0.14c0.83-0.05,1.64-0.1,2.45-0.12
		c0.8-0.03,1.69-0.06,2.66-0.08c0.98-0.03,1.92-0.04,2.83-0.04c0.91,0,1.73,0.02,2.46,0.06c0.73,0.04,1.26,0.12,1.58,0.23
		c0.21,0,0.44-0.14,0.66-0.43c0.23-0.29,0.37-0.57,0.42-0.85c0.03-0.14-0.07-0.27-0.3-0.39C29.52,12.78,29.23,12.68,28.87,12.61z"/>
	<path class="st0" d="M41.54,17.82c-0.28-0.1-0.58-0.16-0.9-0.18c-0.32-0.03-0.63-0.01-0.92,0.04c-0.54,0.11-1.16,0.27-1.88,0.48
		c-0.72,0.21-1.55,0.34-2.49,0.39l0.04-9.99c0-0.63,0.01-1.2,0.04-1.69s0.04-0.98,0.04-1.45c0-0.41-0.18-0.83-0.54-1.26
		c-0.36-0.43-0.8-0.82-1.32-1.18c-0.52-0.36-1.1-0.66-1.72-0.91c-0.41-0.16-0.76-0.22-1.12-0.3c-0.07-0.03-0.15-0.04-0.22-0.06
		c-0.11-0.02-0.26-0.09-0.37-0.1l-0.01,0.02c-0.04,0-0.07-0.02-0.1-0.02c-0.95,0-1.72,0.77-1.72,1.72c0,0.95,0.77,1.72,1.72,1.72
		c0.81,0,1.45-0.57,1.64-1.32c0.03,0.03,0.07,0.06,0.1,0.09c0.31,0.29,0.57,0.58,0.8,0.87c0.23,0.29,0.39,0.56,0.5,0.81
		c0.21,0.5,0.32,1.23,0.32,2.19v32.34h0.84c0.08-0.3,0.18-0.7,0.3-1.18c0.12-0.48,0.23-1.01,0.34-1.59
		c0.11-0.58,0.19-1.18,0.26-1.82c0.07-0.63,0.1-1.24,0.1-1.82l0.08-13.84c0.53-0.03,1.11-0.06,1.72-0.1
		c0.61-0.04,1.22-0.06,1.8-0.06c0.59,0,1.12,0.02,1.6,0.04c0.48,0.03,0.84,0.08,1.08,0.16c0.21-0.11,0.42-0.3,0.62-0.56
		c0.2-0.26,0.3-0.53,0.3-0.81c0-0.11-0.09-0.22-0.26-0.33C42.04,18.02,41.82,17.91,41.54,17.82z"/>
	<path class="st0" d="M21.64,17.96l-0.68,0.78c1.23,0.52,2.11,1.2,2.65,2.02c0.53,0.83,0.8,1.72,0.8,2.69c0,1.24-0.44,2.28-1.3,3.12
		c-0.87,0.84-2.01,1.26-3.43,1.26c-0.7,0-1.33-0.12-1.9-0.35c-0.57-0.23-1.07-0.54-1.48-0.93c-0.41-0.38-0.74-0.85-0.98-1.38
		c-0.24-0.54-0.36-1.11-0.36-1.71c0-1.13,0.34-2.11,1.02-2.95c0.68-0.84,1.58-1.43,2.7-1.76c0.62-0.19,1.09-0.41,1.42-0.64
		c0.33-0.23,0.5-0.54,0.5-0.93c0-0.38-0.21-0.74-0.64-1.05c-0.43-0.32-0.91-0.56-1.44-0.72l-0.03,0.04
		c-0.24-0.13-0.5-0.22-0.79-0.22c-0.95,0-1.72,0.77-1.72,1.72c0,0.44,0.18,0.83,0.45,1.13c-0.06,0.03-0.11,0.04-0.17,0.07
		c-0.63,0.37-1.18,0.81-1.66,1.32c-0.48,0.51-0.87,1.1-1.16,1.78c-0.29,0.68-0.44,1.41-0.44,2.21c0,0.88,0.18,1.68,0.54,2.39
		c0.36,0.72,0.85,1.33,1.46,1.84c0.62,0.51,1.32,0.91,2.12,1.2c0.8,0.29,1.66,0.43,2.57,0.43c0.91,0,1.76-0.14,2.56-0.43
		c0.8-0.29,1.51-0.69,2.12-1.2c0.61-0.51,1.1-1.12,1.46-1.84c0.36-0.72,0.54-1.51,0.54-2.39c0-1.43-0.43-2.59-1.28-3.49
		C24.23,19.07,23.08,18.4,21.64,17.96z"/>
	<path class="st0" d="M15.58,8.65c0.64,0.32,1.31,0.48,2,0.48L23.68,9c0.21-0.11,0.41-0.29,0.58-0.54c0.17-0.25,0.26-0.47,0.26-0.66
		c0-0.11-0.07-0.23-0.22-0.37c-0.15-0.14-0.34-0.27-0.58-0.39c-0.24-0.12-0.5-0.22-0.78-0.29c-0.28-0.07-0.55-0.09-0.82-0.06
		c-0.29,0.03-0.63,0.08-1.02,0.16c-0.39,0.08-0.79,0.17-1.2,0.27c-0.42,0.1-0.82,0.19-1.2,0.27c-0.39,0.08-0.73,0.12-1.02,0.12
		c-1.04,0-1.98-0.16-2.8-0.49L14.3,7.68C14.51,8.01,14.94,8.33,15.58,8.65z"/>
	<path class="st0" d="M53.36,5.54c0.04,0.15,0.11,0.28,0.19,0.4c0.03,0.04,0.06,0.09,0.09,0.13c0.08,0.11,0.17,0.21,0.28,0.29
		c0.08,0.08,0.13,0.17,0.23,0.24c0.45,0.36,0.96,0.52,1.52,0.5c0.19,0,0.58-0.01,1.18-0.04c0.6-0.03,1.31-0.06,2.12-0.1
		c0.82-0.04,1.7-0.08,2.65-0.12c0.95-0.04,1.86-0.08,2.73-0.12c0.87-0.04,1.64-0.08,2.32-0.1c0.68-0.03,1.17-0.04,1.46-0.04
		c0.32,0,0.48,0.15,0.48,0.46c0,0.38-0.02,0.89-0.06,1.51c-0.04,0.62-0.11,1.12-0.22,1.51l1,0.21c0.19-0.19,0.37-0.45,0.56-0.76
		c0.19-0.32,0.34-0.65,0.46-1.01c0.12-0.36,0.22-0.7,0.3-1.03c0.08-0.33,0.12-0.59,0.12-0.78c0-0.16-0.09-0.34-0.26-0.54
		c-0.17-0.19-0.39-0.37-0.66-0.54c-0.27-0.16-0.55-0.31-0.86-0.43c-0.31-0.12-0.58-0.18-0.82-0.18c-0.16,0-0.54,0.01-1.12,0.04
		c-0.59,0.03-1.24,0.06-1.96,0.1c-0.72,0.04-1.45,0.08-2.18,0.12c-0.74,0.04-1.34,0.08-1.83,0.1c-1.2,0.06-2.18,0.1-2.94,0.14
		c-0.58,0.03-1.06,0.04-1.52,0.05c0.04-0.15,0.09-0.3,0.09-0.47c0-0.95-0.77-1.72-1.72-1.72c-0.95,0-1.72,0.77-1.72,1.72
		c0,0.08,0.04,0.16,0.05,0.24l-0.05,0.04C53.28,5.4,53.33,5.46,53.36,5.54z"/>
	<path class="st0" d="M55.34,12.96c0.35,0,0.82-0.02,1.42-0.04c0.6-0.03,1.27-0.06,2-0.1c0.73-0.04,1.5-0.08,2.29-0.1
		c0.79-0.03,1.53-0.06,2.22-0.08c1.52-0.06,2.88-0.09,4.07-0.1c1.19-0.01,2.1,0.05,2.74,0.19c0.48-0.06,0.72-0.3,0.72-0.74
		c0-0.19-0.08-0.39-0.24-0.58c-0.16-0.19-0.43-0.34-0.8-0.46c-0.27-0.08-0.56-0.12-0.88-0.1s-0.72,0.05-1.2,0.1
		c-0.69,0.08-1.58,0.16-2.65,0.23c-1.07,0.07-2.23,0.13-3.49,0.19c-0.51,0.03-1.04,0.05-1.6,0.06c-0.56,0.01-1.1,0.03-1.62,0.04
		c-0.52,0.02-1,0.02-1.42,0.02c-0.43,0-0.77,0-1.04,0c-0.62-0.03-1.15-0.08-1.6-0.17c-0.45-0.08-0.86-0.23-1.2-0.45l-0.36,0.45
		c0.27,0.5,0.64,0.9,1.12,1.2C54.3,12.81,54.81,12.96,55.34,12.96z"/>
	<path class="st0" d="M69.45,16.93c-0.51,0.08-0.99,0.16-1.44,0.25s-0.87,0.14-1.24,0.17c-0.53,0.03-1.26,0.07-2.18,0.12
		c-0.92,0.06-1.87,0.1-2.85,0.14c-0.98,0.04-1.9,0.08-2.78,0.1c-0.88,0.03-1.55,0.04-2,0.04c-0.35,0-0.55-0.05-0.62-0.14
		c-0.07-0.1-0.1-0.31-0.1-0.64v-1.49c0-0.44-0.12-0.83-0.36-1.18c-0.24-0.34-0.59-0.57-1.04-0.68l-0.72,0.33
		c0.08,0.19,0.13,0.43,0.16,0.7c0.03,0.28,0.04,0.56,0.04,0.87l-0.04,2.02c0,0.22,0.08,0.43,0.24,0.62c0.16,0.19,0.36,0.36,0.6,0.52
		c0.24,0.15,0.5,0.27,0.78,0.35c0.28,0.08,0.54,0.12,0.78,0.12l15.31-0.54c0.37-0.16,0.55-0.44,0.54-0.83
		c-0.01-0.38-0.25-0.66-0.7-0.83c-0.32-0.14-0.68-0.2-1.06-0.18C70.37,16.8,69.93,16.85,69.45,16.93z"/>
	<path class="st0" d="M78.59,23.12c-0.56-0.14-1.21-0.21-1.94-0.21c-0.73,0-1.5,0.02-2.3,0.04l-11.42,0.54
		c-0.91,0.06-2.02,0.12-3.33,0.19c-1.31,0.07-2.63,0.13-3.95,0.19c-1.32,0.06-2.53,0.1-3.63,0.14c-1.1,0.04-1.88,0.06-2.36,0.06
		c-0.56-0.02-1.14-0.14-1.72-0.27c0.27-0.31,0.45-0.7,0.45-1.14c0-0.95-0.77-1.72-1.72-1.72c-0.95,0-1.72,0.77-1.72,1.72
		c0,0.34,0.12,0.63,0.29,0.9l-0.03,0.03c0.04,0.06,0.12,0.12,0.17,0.19c0.05,0.05,0.09,0.11,0.14,0.15
		c0.14,0.16,0.26,0.32,0.45,0.49c0.32,0.28,0.68,0.52,1.08,0.74c0.4,0.22,0.83,0.4,1.28,0.53c0.45,0.14,0.91,0.18,1.36,0.12
		c0.37-0.03,0.99-0.08,1.84-0.14c0.85-0.07,1.84-0.15,2.96-0.25c1.12-0.1,2.31-0.18,3.57-0.27c1.26-0.08,2.47-0.16,3.65-0.25v15.32
		h0.84c0.19-0.39,0.43-1.15,0.72-2.28c0.29-1.13,0.44-2.51,0.44-4.14v-9.03h0.44c1.2-0.04,2.36-0.07,3.49-0.09
		c1.12-0.02,2.14-0.04,3.07-0.05c0.92-0.01,1.73-0.02,2.43-0.02c0.69,0,1.22,0.01,1.56,0.04c0.69,0.06,1.38,0.14,2.06,0.25
		c0.68,0.11,1.17,0.23,1.46,0.37c0.56,0.06,1-0.02,1.32-0.23c0.32-0.21,0.49-0.46,0.52-0.76C80.13,23.73,79.63,23.34,78.59,23.12z"
		/>
	<path class="st0" d="M91.21,20.48c0.67,0.58,1.46,1.03,2.36,1.34c0.91,0.32,1.88,0.48,2.93,0.48s2.02-0.16,2.93-0.48
		c0.91-0.32,1.7-0.76,2.36-1.34c0.67-0.58,1.19-1.27,1.56-2.09c0.37-0.81,0.56-1.7,0.56-2.66c0-1.65-0.5-3.01-1.5-4.07
		c-1-1.06-2.31-1.81-3.91-2.25l-0.68,0.78c1.47,0.55,2.51,1.33,3.13,2.32c0.62,0.99,0.92,2.07,0.92,3.23c0,1.46-0.48,2.69-1.44,3.67
		c-0.96,0.98-2.27,1.47-3.93,1.47s-2.97-0.49-3.93-1.47c-0.96-0.98-1.44-2.2-1.44-3.67c0-1.27,0.39-2.38,1.16-3.33
		c0.77-0.95,1.86-1.65,3.25-2.09c0.61-0.19,1.09-0.44,1.42-0.72c0.33-0.29,0.5-0.63,0.5-1.02c0-0.44-0.21-0.83-0.64-1.16
		c-0.16-0.13-0.37-0.18-0.55-0.28c-0.2-0.19-0.46-0.31-0.73-0.38c-0.06-0.02-0.1-0.07-0.17-0.09l-0.03,0.05
		c-0.08-0.01-0.15-0.05-0.23-0.05c-0.95,0-1.72,0.77-1.72,1.72c0,0.38,0.15,0.72,0.36,1.01c-0.33,0.14-0.68,0.23-0.99,0.41
		c-0.72,0.41-1.36,0.92-1.9,1.51c-0.55,0.59-0.98,1.26-1.3,2c-0.32,0.74-0.48,1.54-0.48,2.39c0,0.96,0.19,1.85,0.56,2.66
		C90.02,19.21,90.54,19.9,91.21,20.48z"/>
	<path class="st0" d="M111.15,2.97c-0.52-0.36-1.1-0.66-1.72-0.91c-0.63-0.25-1.2-0.4-1.7-0.45l-0.02,0.03
		c-0.06-0.01-0.11-0.03-0.17-0.03c-0.95,0-1.72,0.77-1.72,1.72c0,0.95,0.77,1.72,1.72,1.72c0.83,0,1.48-0.59,1.65-1.37
		c0.05,0.05,0.11,0.09,0.16,0.14c0.31,0.29,0.58,0.58,0.82,0.87c0.24,0.29,0.41,0.56,0.52,0.81c0.21,0.5,0.32,1.23,0.32,2.19v32.34
		h0.8c0.08-0.3,0.18-0.7,0.3-1.18c0.12-0.48,0.23-1.01,0.34-1.59c0.11-0.58,0.19-1.18,0.26-1.82c0.07-0.63,0.1-1.24,0.1-1.82
		l0.12-25.07c0-0.63,0.01-1.2,0.04-1.69c0.03-0.5,0.04-0.98,0.04-1.45c0-0.41-0.18-0.83-0.54-1.26
		C112.12,3.72,111.67,3.33,111.15,2.97z"/>
	<path class="st0" d="M106.36,26.5c-1.12,0.21-2.33,0.41-3.63,0.61c-1.3,0.2-2.62,0.38-3.97,0.57c-1.35,0.18-2.65,0.34-3.89,0.48
		c-1.24,0.14-2.36,0.25-3.37,0.34c-1,0.08-1.8,0.13-2.38,0.13c-0.29,0-0.63-0.02-1-0.06c-0.37-0.04-0.74-0.09-1.1-0.14
		c-0.36-0.06-0.7-0.12-1-0.19c-0.31-0.07-0.55-0.14-0.74-0.23l-0.6,0.66c0.16,0.19,0.43,0.38,0.8,0.58c0.37,0.2,0.78,0.39,1.22,0.57
		c0.44,0.17,0.9,0.32,1.36,0.44s0.88,0.18,1.22,0.18c0.43,0,1.12-0.05,2.07-0.16c0.95-0.11,2.03-0.27,3.25-0.48
		c1.22-0.21,2.53-0.43,3.93-0.68c1.4-0.25,2.78-0.5,4.13-0.76c1.35-0.26,2.61-0.53,3.79-0.81c1.18-0.28,2.16-0.52,2.97-0.74
		l-0.2-0.87C108.44,26.1,107.49,26.29,106.36,26.5z"/>
	<path class="st0" d="M151.43,17.73c0.36-0.81,0.54-1.7,0.54-2.66c0-1.63-0.49-2.97-1.48-4.05c-0.99-1.07-2.24-1.8-3.77-2.19
		l-0.68,0.78c1.31,0.55,2.29,1.3,2.95,2.24c0.65,0.94,0.98,2.02,0.98,3.24c0,0.72-0.13,1.39-0.38,2.01
		c-0.25,0.62-0.61,1.17-1.06,1.64c-0.46,0.47-1,0.84-1.64,1.1c-0.64,0.26-1.36,0.39-2.16,0.39s-1.52-0.13-2.16-0.39
		c-0.64-0.26-1.19-0.63-1.64-1.1c-0.45-0.47-0.81-1.01-1.06-1.64c-0.25-0.62-0.38-1.29-0.38-2.01c0-1.3,0.38-2.42,1.14-3.38
		c0.76-0.95,1.81-1.65,3.15-2.09c0.61-0.22,1.09-0.45,1.42-0.68c0.33-0.23,0.5-0.54,0.5-0.93c0-0.42-0.21-0.79-0.64-1.14
		c-0.31-0.25-0.67-0.39-1.03-0.55c-0.1-0.06-0.2-0.12-0.31-0.16c-0.04-0.01-0.07-0.04-0.1-0.06l-0.02,0.03
		c-0.15-0.04-0.29-0.09-0.45-0.09c-0.95,0-1.72,0.77-1.72,1.72c0,0.4,0.16,0.75,0.39,1.05c-0.25,0.12-0.54,0.18-0.78,0.33
		c-0.71,0.43-1.32,0.94-1.84,1.53c-0.52,0.59-0.94,1.26-1.24,2c-0.31,0.74-0.46,1.54-0.46,2.4c0,0.96,0.18,1.85,0.54,2.66
		c0.36,0.81,0.87,1.51,1.52,2.09c0.65,0.58,1.42,1.03,2.3,1.34c0.88,0.32,1.84,0.47,2.89,0.47s2-0.16,2.89-0.47
		c0.88-0.32,1.65-0.76,2.3-1.34C150.56,19.24,151.07,18.55,151.43,17.73z"/>
	<path class="st0" d="M157.46,26.72l-0.68,0.7c1.44,0.55,2.49,1.31,3.13,2.27c0.64,0.96,0.96,2.07,0.96,3.3c0,0.72-0.13,1.38-0.38,2
		c-0.25,0.62-0.62,1.16-1.1,1.63c-0.48,0.47-1.06,0.83-1.72,1.09c-0.67,0.26-1.4,0.39-2.2,0.39c-0.8,0-1.54-0.13-2.2-0.39
		c-0.67-0.26-1.24-0.63-1.72-1.09c-0.48-0.47-0.85-1.01-1.1-1.63c-0.25-0.62-0.38-1.29-0.38-2c0-1.32,0.39-2.46,1.18-3.43
		c0.79-0.96,1.88-1.68,3.27-2.15c0.61-0.22,1.09-0.45,1.42-0.68c0.33-0.23,0.5-0.54,0.5-0.93c0-0.41-0.22-0.78-0.64-1.12
		c-0.3-0.23-0.65-0.38-1-0.55c-0.11-0.08-0.23-0.15-0.36-0.19c-0.03-0.01-0.05-0.03-0.08-0.04l-0.02,0.02
		c-0.15-0.04-0.3-0.1-0.47-0.1c-0.95,0-1.72,0.77-1.72,1.72c0,0.41,0.17,0.78,0.41,1.08c-0.26,0.13-0.56,0.2-0.81,0.35
		c-0.72,0.43-1.36,0.94-1.9,1.55c-0.55,0.61-0.98,1.28-1.3,2.02c-0.32,0.74-0.48,1.56-0.48,2.44c0,0.96,0.19,1.85,0.56,2.66
		c0.37,0.81,0.89,1.51,1.54,2.09c0.66,0.58,1.44,1.03,2.34,1.36c0.91,0.33,1.9,0.5,2.97,0.5c1.07,0,2.05-0.16,2.95-0.5
		c0.9-0.33,1.68-0.78,2.34-1.36c0.67-0.58,1.19-1.27,1.56-2.09c0.37-0.81,0.56-1.7,0.56-2.66c0-1.65-0.49-3-1.48-4.05
		C160.4,27.9,159.09,27.16,157.46,26.72z"/>
	<path class="st0" d="M161.15,2.88c-0.54-0.33-1.11-0.61-1.72-0.85c-0.42-0.16-0.8-0.22-1.19-0.3c0,0,0,0,0,0
		c-0.17-0.03-0.37-0.12-0.54-0.14l-0.01,0.02c-0.04,0-0.08-0.02-0.12-0.02c-0.95,0-1.72,0.77-1.72,1.72c0,0.95,0.77,1.72,1.72,1.72
		c0.84,0,1.51-0.62,1.66-1.42c0.04,0.03,0.08,0.05,0.11,0.08c0.67,0.58,1.12,1.1,1.36,1.57c0.13,0.22,0.21,0.52,0.24,0.91
		c0.03,0.39,0.04,0.81,0.04,1.28v17.47h0.8c0.08-0.19,0.19-0.51,0.32-0.95c0.13-0.44,0.25-0.94,0.36-1.51
		c0.11-0.56,0.2-1.15,0.28-1.75c0.08-0.61,0.12-1.2,0.12-1.78l0.04-10.61c0-0.63,0.02-1.2,0.06-1.69c0.04-0.5,0.06-0.98,0.06-1.45
		c0-0.41-0.18-0.82-0.54-1.22C162.13,3.58,161.68,3.22,161.15,2.88z"/>
	<path class="st0" d="M179.21,18.99c0.31,0.16,0.6,0.3,0.88,0.39c0.28,0.1,0.53,0.14,0.74,0.14c0.21,0,0.62-0.03,1.22-0.1
		c0.6-0.07,1.31-0.16,2.12-0.27c0.82-0.11,1.71-0.23,2.69-0.37c0.97-0.14,1.95-0.29,2.93-0.46c0.97-0.16,1.92-0.32,2.83-0.47
		c0.91-0.15,1.71-0.31,2.4-0.48c-0.16,1.27-0.37,2.54-0.64,3.82c-0.27,1.28-0.59,2.45-0.96,3.49l0.84,0.45
		c0.45-0.85,0.89-1.86,1.3-3.02c0.41-1.16,0.78-2.34,1.1-3.55c0.32-1.21,0.57-2.4,0.76-3.57c0.19-1.17,0.28-2.19,0.28-3.08
		c0-0.22-0.13-0.48-0.38-0.76c-0.25-0.29-0.55-0.56-0.9-0.83c-0.35-0.26-0.72-0.48-1.1-0.64c-0.39-0.16-0.72-0.23-0.98-0.21
		c-0.78,0.06-1.71,0.12-2.81,0.21s-2.22,0.16-3.37,0.23c-1.15,0.07-2.25,0.13-3.31,0.19c-1.06,0.06-1.92,0.08-2.59,0.08
		c-0.36,0-0.72-0.06-1.08-0.1c0.21-0.28,0.35-0.61,0.35-0.99c0-0.95-0.77-1.72-1.72-1.72c-0.95,0-1.72,0.77-1.72,1.72
		c0,0.5,0.22,0.94,0.56,1.26c0.31,0.42,0.71,0.8,1.24,1.13c0.62,0.38,1.35,0.55,2.2,0.52c0.64-0.03,1.5-0.07,2.56-0.12
		s2.19-0.11,3.37-0.17c1.17-0.05,2.32-0.12,3.43-0.21c1.11-0.08,2.02-0.15,2.74-0.21c0.51-0.05,0.84,0.01,0.98,0.18
		c0.15,0.18,0.22,0.49,0.22,0.92c0,1.17-0.08,2.46-0.24,3.85c-1.07,0.16-2.34,0.34-3.81,0.52c-1.47,0.18-2.9,0.34-4.29,0.47
		c-1.39,0.14-2.63,0.25-3.73,0.33c-1.1,0.08-1.8,0.12-2.12,0.12c-0.59,0-1.16-0.06-1.72-0.19c-0.56-0.12-1.03-0.27-1.4-0.43
		l-0.52,0.58c0.19,0.25,0.43,0.49,0.72,0.72C178.6,18.63,178.9,18.83,179.21,18.99z"/>
	<path class="st0" d="M204.52,28.25c-0.56-0.14-1.21-0.21-1.94-0.21c-0.73,0-1.5,0.01-2.3,0.04l-11.42,0.54
		c-0.91,0.05-2.02,0.11-3.33,0.17c-1.31,0.06-2.63,0.12-3.95,0.17c-1.32,0.05-2.53,0.1-3.63,0.13c-1.1,0.04-1.88,0.06-2.36,0.06
		c-0.62-0.02-1.26-0.14-1.92-0.31c0.32-0.31,0.52-0.74,0.52-1.23c0-0.95-0.77-1.72-1.72-1.72c-0.95,0-1.72,0.77-1.72,1.72
		c0,0.53,0.25,0.98,0.62,1.3c0.16,0.2,0.31,0.39,0.53,0.6c0.32,0.29,0.68,0.55,1.08,0.78c0.4,0.23,0.83,0.41,1.28,0.55
		c0.45,0.14,0.91,0.18,1.36,0.13c0.43-0.03,1.2-0.09,2.32-0.19c1.12-0.1,2.38-0.21,3.77-0.32c1.39-0.11,2.83-0.22,4.33-0.32
		c1.5-0.1,2.85-0.18,4.05-0.24c1.2-0.04,2.36-0.07,3.49-0.09c1.12-0.02,2.14-0.04,3.07-0.05c0.92-0.01,1.73-0.02,2.43-0.02
		c0.69,0,1.22,0.02,1.56,0.04c0.69,0.06,1.38,0.14,2.06,0.25c0.68,0.11,1.17,0.24,1.46,0.37c0.56,0.06,1-0.02,1.32-0.23
		c0.32-0.21,0.49-0.46,0.52-0.76C206.05,28.85,205.56,28.47,204.52,28.25z"/>
</g>
</svg>
