<?xml version="1.0" encoding="utf-8"?>
<!-- Generator: Adobe Illustrator 26.0.0, SVG Export Plug-In . SVG Version: 6.00 Build 0)  -->
<svg version="1.1" id="Layer_1" xmlns="http://www.w3.org/2000/svg" xmlns:xlink="http://www.w3.org/1999/xlink" x="0px" y="0px"
	 viewBox="0 0 284 284" style="enable-background:new 0 0 284 284;" xml:space="preserve">
<style type="text/css">
	.st0{fill:#494E73;}
</style>
<g>
	<g>
		<path class="st0" d="M142,27C78.49,27,27,78.49,27,142s51.49,115,115,115s115-51.49,115-115S205.51,27,142,27z M69.62,102.04
			c-3.04,0.12-5.55-2.28-5.65-5.3c-0.1-3.02,2.28-5.55,5.3-5.65c0.73-0.02,1.45-0.04,2.17-0.04c35.11,0,55.25,27.42,56.11,28.62
			c1.77,2.45,1.21,5.88-1.25,7.64c-2.45,1.76-5.87,1.21-7.64-1.24C118.45,125.79,100.1,101.07,69.62,102.04z M119.82,139.26
			c0,6.96-3.68,12.6-8.21,12.6c-4.54,0-8.21-5.64-8.21-12.6c0-6.96,3.68-12.6,8.21-12.6C116.14,126.67,119.82,132.31,119.82,139.26z
			 M194.19,196.54c-2.7,5.47-9.89,7-21.12,7c-5.09,0-11-0.31-17.7-0.71c-5.08-0.3-9.88-0.59-13.64-0.59s-8.56,0.29-13.64,0.59
			c-21.52,1.28-34.91,1.66-38.83-6.29c-1.93-3.92-0.78-8.37,3.42-13.22c15.31-17.67,46.02-17.3,49.04-17.23
			c3.02-0.08,33.73-0.44,49.04,17.23C194.97,188.17,196.12,192.62,194.19,196.54z M164.73,139.26c0-6.96,3.68-12.6,8.21-12.6
			s8.21,5.64,8.21,12.6c0,6.96-3.68,12.6-8.21,12.6S164.73,146.22,164.73,139.26z M214.38,102.04
			c-30.48-0.97-48.83,23.75-49.04,24.04c-1.77,2.45-5.18,3-7.64,1.24c-2.46-1.77-3.01-5.19-1.25-7.64
			c0.86-1.19,21-28.62,56.11-28.62c0.72,0,1.44,0.01,2.17,0.04c3.02,0.1,5.39,2.62,5.3,5.65
			C219.93,99.77,217.42,102.16,214.38,102.04z"/>
	</g>
	<g>
		<path class="st0" d="M141.92,177.04l-0.19,0.01l-0.2-0.01c-0.28-0.01-28.25-0.77-40.57,13.45c-0.42,0.48-0.73,0.89-0.97,1.23
			c5.07,1.51,19.38,0.66,27.45,0.18c5.25-0.31,10.2-0.61,14.29-0.61s9.04,0.3,14.29,0.61c8.07,0.48,22.38,1.33,27.45-0.18
			c-0.24-0.34-0.55-0.74-0.97-1.23C170.17,176.27,142.19,177.03,141.92,177.04z"/>
	</g>
</g>
</svg>
