<?xml version="1.0" encoding="utf-8"?>
<!-- Generator: Adobe Illustrator 26.0.0, SVG Export Plug-In . SVG Version: 6.00 Build 0)  -->
<svg version="1.1" id="Layer_1" xmlns="http://www.w3.org/2000/svg" xmlns:xlink="http://www.w3.org/1999/xlink" x="0px" y="0px"
	 viewBox="0 0 284 284" style="enable-background:new 0 0 284 284;" xml:space="preserve">
<style type="text/css">
	.st0{fill:#494E73;}
</style>
<g>
	<path class="st0" d="M142,27C78.49,27,27,78.49,27,142s51.49,115,115,115s115-51.49,115-115S205.51,27,142,27z M69.27,128.32
		c-3.02-0.1-5.39-2.62-5.3-5.65c0.1-3.02,2.61-5.42,5.65-5.3c30.48,0.97,48.83-23.75,49.04-24.04c1.77-2.45,5.18-3,7.64-1.24
		c2.46,1.77,3.01,5.19,1.25,7.64c-0.86,1.19-21,28.62-56.11,28.62C70.72,128.35,70,128.34,69.27,128.32z M111.33,148.57
		c4.54,0,8.21,5.64,8.21,12.6c0,6.96-3.68,12.6-8.21,12.6c-4.54,0-8.21-5.64-8.21-12.6C103.12,154.21,106.8,148.57,111.33,148.57z
		 M177.33,200.22c-1.31,2.73-4.58,3.88-7.31,2.57c-26.29-12.59-40.09-11.79-47.04-8.89c-5.24,2.18-6.75,5.72-6.76,5.75
		c-0.79,2.26-2.91,3.68-5.17,3.68c-0.6,0-1.2-0.1-1.8-0.3c-2.86-0.99-4.37-4.11-3.37-6.97c0.29-0.83,3.09-8.18,12.89-12.27
		c13.11-5.46,31.95-2.39,55.98,9.13C177.49,194.23,178.64,197.5,177.33,200.22z M172.67,173.76c-4.54,0-8.21-5.64-8.21-12.6
		c0-6.96,3.68-12.6,8.21-12.6c4.54,0,8.21,5.64,8.21,12.6C180.88,168.12,177.2,173.76,172.67,173.76z M214.73,128.32
		c-0.73,0.02-1.45,0.04-2.17,0.04c-35.11,0-55.25-27.42-56.11-28.62c-1.77-2.45-1.21-5.88,1.25-7.64c2.45-1.76,5.87-1.21,7.64,1.24
		c0.21,0.29,18.57,25.01,49.04,24.04c3.04-0.12,5.55,2.28,5.65,5.3C220.12,125.69,217.75,128.22,214.73,128.32z"/>
</g>
</svg>
