<?xml version="1.0" encoding="utf-8"?>
<!-- Generator: Adobe Illustrator 26.0.0, SVG Export Plug-In . SVG Version: 6.00 Build 0)  -->
<svg version="1.1" id="Layer_1" xmlns="http://www.w3.org/2000/svg" xmlns:xlink="http://www.w3.org/1999/xlink" x="0px" y="0px"
	 viewBox="0 0 284 284" style="enable-background:new 0 0 284 284;" xml:space="preserve">
<style type="text/css">
	.st0{fill:#494E73;}
</style>
<g>
	<g>
		<path class="st0" d="M97.72,176.85c7.07,11.88,21.29,28.67,45.11,28.67c23.87,0,40.04-17.12,48.44-29.12
			c-11.36,2.84-28.92,6.12-49.53,6.12C122.32,182.52,107.44,179.6,97.72,176.85z"/>
	</g>
	<g>
		<path class="st0" d="M142,27C78.49,27,27,78.49,27,142s51.49,115,115,115c63.51,0,115-51.49,115-115S205.51,27,142,27z
			 M76.73,105.98c-2.49-1.72-3.11-5.13-1.39-7.62c7.83-11.31,16.76-17.8,26.54-19.3c11.88-1.82,20.4,4.68,20.76,4.95
			c2.39,1.86,2.82,5.3,0.96,7.68c-1.86,2.39-5.3,2.82-7.68,0.96c-0.05-0.04-5.21-3.87-12.37-2.77c-6.69,1.03-13.14,5.97-19.19,14.71
			c-1.06,1.54-2.77,2.36-4.51,2.36C78.76,106.95,77.68,106.64,76.73,105.98z M123.11,139.26c0,6.96-3.68,12.6-8.21,12.6
			c-4.54,0-8.21-5.64-8.21-12.6c0-6.96,3.68-12.6,8.21-12.6C119.43,126.67,123.11,132.31,123.11,139.26z M208.05,169.44
			c-0.86,1.92-21.67,47.04-65.23,47.04c-43.9,0-60.35-45.54-61.03-47.48c-0.74-2.1-0.12-4.45,1.55-5.92
			c1.67-1.47,4.07-1.79,6.07-0.79c0.18,0.09,19.19,9.28,52.31,9.28c33.66,0,59.16-9.41,59.41-9.51c2.07-0.78,4.4-0.23,5.92,1.38
			C208.57,165.06,208.96,167.42,208.05,169.44z M168.01,139.26c0-6.96,3.68-12.6,8.21-12.6c4.54,0,8.21,5.64,8.21,12.6
			c0,6.96-3.68,12.6-8.21,12.6C171.69,151.86,168.01,146.22,168.01,139.26z M207.27,105.98c-0.95,0.66-2.04,0.97-3.11,0.97
			c-1.74,0-3.45-0.82-4.51-2.36c-6.05-8.74-12.5-13.68-19.19-14.71c-7.17-1.09-12.32,2.73-12.37,2.77
			c-2.39,1.86-5.83,1.43-7.68-0.96c-1.86-2.39-1.43-5.83,0.96-7.68c0.36-0.28,8.87-6.77,20.76-4.95c9.78,1.5,18.71,7.99,26.54,19.3
			C210.38,100.85,209.76,104.26,207.27,105.98z"/>
	</g>
</g>
</svg>
