<?xml version="1.0" encoding="utf-8"?>
<!-- Generator: Adobe Illustrator 26.0.0, SVG Export Plug-In . SVG Version: 6.00 Build 0)  -->
<svg version="1.1" id="Layer_1" xmlns="http://www.w3.org/2000/svg" xmlns:xlink="http://www.w3.org/1999/xlink" x="0px" y="0px"
	 viewBox="0 0 284 284" style="enable-background:new 0 0 284 284;" xml:space="preserve">
<style type="text/css">
	.st0{fill:#494E73;}
</style>
<g>
	<path class="st0" d="M142,27C78.49,27,27,78.49,27,142s51.49,115,115,115c63.51,0,115-51.49,115-115S205.51,27,142,27z
		 M76.73,127.88c-2.49-1.72-3.11-5.13-1.39-7.62c7.83-11.31,16.76-17.8,26.54-19.3c11.88-1.82,20.4,4.68,20.76,4.95
		c2.39,1.86,2.82,5.3,0.96,7.68c-1.86,2.39-5.3,2.82-7.68,0.96c-0.05-0.04-5.2-3.87-12.37-2.77c-6.69,1.03-13.14,5.97-19.19,14.71
		c-1.06,1.54-2.77,2.36-4.51,2.36C78.76,128.86,77.68,128.54,76.73,127.88z M119.55,139.26c0,6.96-3.68,12.6-8.21,12.6
		c-4.54,0-8.21-5.64-8.21-12.6c0-6.96,3.68-12.6,8.21-12.6C115.87,126.67,119.55,132.31,119.55,139.26z M141.73,203.33
		c-0.04,0-0.09,0-0.14,0c-47.87-1.17-59.2-26.34-59.66-27.41c-1.19-2.78,0.1-6,2.88-7.19c2.76-1.19,5.96,0.08,7.17,2.82
		c0.44,0.94,9.74,19.85,49.89,20.83c3.02,0.07,5.41,2.58,5.34,5.61C147.13,200.97,144.69,203.33,141.73,203.33z M172.67,151.86
		c-4.54,0-8.21-5.64-8.21-12.6c0-6.96,3.68-12.6,8.21-12.6c4.54,0,8.21,5.64,8.21,12.6C180.88,146.22,177.2,151.86,172.67,151.86z
		 M207.27,127.88c-0.95,0.66-2.04,0.97-3.11,0.97c-1.74,0-3.45-0.82-4.51-2.36c-6.05-8.74-12.5-13.68-19.19-14.71
		c-7.17-1.09-12.32,2.73-12.37,2.77c-2.39,1.86-5.83,1.43-7.68-0.96c-1.86-2.39-1.43-5.83,0.96-7.68c0.36-0.28,8.88-6.77,20.76-4.95
		c9.78,1.5,18.71,7.99,26.54,19.3C210.38,122.75,209.76,126.16,207.27,127.88z"/>
</g>
</svg>
