<?xml version="1.0" encoding="utf-8"?>
<!-- Generator: Adobe Illustrator 26.0.0, SVG Export Plug-In . SVG Version: 6.00 Build 0)  -->
<svg version="1.1" id="Layer_1" xmlns="http://www.w3.org/2000/svg" xmlns:xlink="http://www.w3.org/1999/xlink" x="0px" y="0px"
	 viewBox="0 0 284 284" style="enable-background:new 0 0 284 284;" xml:space="preserve">
<style type="text/css">
	.st0{fill:#494E73;}
</style>
<g>
	<path class="st0" d="M142,27C78.49,27,27,78.49,27,142s51.49,115,115,115c63.51,0,115-51.49,115-115S205.51,27,142,27z
		 M111.33,151.86c-4.54,0-8.21-5.64-8.21-12.6c0-6.96,3.68-12.6,8.21-12.6c4.54,0,8.21,5.64,8.21,12.6
		C119.55,146.22,115.87,151.86,111.33,151.86z M172.67,151.86c-4.54,0-8.21-5.64-8.21-12.6c0-6.96,3.68-12.6,8.21-12.6
		c4.54,0,8.21,5.64,8.21,12.6C180.88,146.22,177.2,151.86,172.67,151.86z"/>
</g>
</svg>
