<?xml version="1.0" encoding="utf-8"?>
<!-- Generator: Adobe Illustrator 26.0.0, SVG Export Plug-In . SVG Version: 6.00 Build 0)  -->
<svg version="1.1" id="Layer_1" xmlns="http://www.w3.org/2000/svg" xmlns:xlink="http://www.w3.org/1999/xlink" x="0px" y="0px"
	 viewBox="0 0 868 703" style="enable-background:new 0 0 868 703;" xml:space="preserve">
<style type="text/css">
	.st0{fill:#F2F2F0;}
</style>
<g>
	<path class="st0" d="M745.6,697c-9.7,0-19.6-2.8-28.2-8.7c-22.8-15.6-28.6-46.7-13-69.5c36.4-53.2,56.1-115.5,57-180.2
		c0-1.5,0-3.1,0-4.6c0-115.3-61.7-223.4-161.1-282.2c-50.2-29.7-107.7-45.3-166.4-45.3c-58.1,0-115.2,15.4-165.1,44.6
		c-100.2,58.6-162.4,167-162.4,282.9c0,1.8,0,3.6,0,5.4c1,64.4,20.7,126.4,57,179.4c15.6,22.8,9.8,53.9-13,69.5s-53.9,9.8-69.5-13
		C33.7,606,7.9,525,6.6,440.9c0-2.3-0.1-4.6-0.1-6.9c0-76,20.2-150.7,58.5-215.9c37.1-63.3,90.2-116.3,153.5-153.3
		C283.6,26.6,358.1,6.5,434,6.5c76.5,0,151.7,20.5,217.2,59.2c62.8,37.1,115.5,90.1,152.3,153.2c37.9,65,58,139.4,58,215.1
		c0,2,0,4,0,6c-1.2,84.4-26.9,165.8-74.5,235.3C777.3,689.4,761.6,697,745.6,697z"/>
</g>
</svg>
