<?xml version="1.0" encoding="utf-8"?>
<!-- Generator: Adobe Illustrator 26.0.0, SVG Export Plug-In . SVG Version: 6.00 Build 0)  -->
<svg version="1.1" id="Layer_1" xmlns="http://www.w3.org/2000/svg" xmlns:xlink="http://www.w3.org/1999/xlink" x="0px" y="0px"
	 viewBox="0 0 1125 2436" style="enable-background:new 0 0 1125 2436;" xml:space="preserve">
<style type="text/css">
	.st0{fill:#D8D9D7;}
	.st1{fill:#A4A6A5;}
	.st2{fill:none;stroke:#F2F2F0;stroke-width:10;stroke-miterlimit:10;}
	.st3{fill:url(#SVGID_1_);}
	.st4{fill:#475984;}
	.st5{fill:#384772;}
	.st6{fill:#303E6D;}
	.st7{fill:#6371AD;}
	.st8{fill:#EAEAEA;}
	.st9{fill:#5869A0;}
	.st10{fill:none;stroke:#475984;stroke-width:10;stroke-linecap:round;stroke-linejoin:round;stroke-miterlimit:10;}
	.st11{fill:#1D2126;}
	.st12{fill:#272C33;}
	.st13{fill:#BCBCBC;}
	.st14{fill:#2D2A27;}
	.st15{fill:#5B5652;}
	.st16{fill:url(#SVGID_00000090286493269853085110000009765330249346327968_);}
</style>
<path class="st0" d="M215.1,969c0,0,21.7,43.5,97.8,26.5s42.8-104.2,89.3-137.8c63.2-45.8-2-151.2-167.2-33.2
	C139.7,892.5,215.1,969,215.1,969z"/>
<circle class="st1" cx="389.7" cy="1512.7" r="303.6"/>
<path class="st2" d="M695,1646.7c-258.1,71.6-459.4-254.5-243.7-345.2c142.5-60,253.7-175,316.6-279.9
	c130.2-217.4,367.3,11.1,243.7,345.2C956.6,1515.3,843.8,1605.3,695,1646.7z"/>
<g>
	
		<linearGradient id="SVGID_1_" gradientUnits="userSpaceOnUse" x1="504.7387" y1="-665.0405" x2="533.5829" y2="-385.0164" gradientTransform="matrix(0.9835 -0.1809 0.1809 0.9835 -58.2971 1943.5637)">
		<stop  offset="0" style="stop-color:#303E6D"/>
		<stop  offset="1" style="stop-color:#475984"/>
	</linearGradient>
	<path class="st3" d="M469.1,1213l-270.3,80.4l3.7-87.9c0.2-4.1,2.9-7.6,6.8-8.8l198.1-60.1c3.3-1,6.9,0.2,8.9,2.9L469.1,1213z"/>
	<path class="st4" d="M405.7,1158.1c5.7,19.3-30.1,49-81.3,64.2s-98.2,10.2-104-9.1c-5.8-19.3,31.1-47.3,82.3-62.5
		S400,1138.7,405.7,1158.1z"/>
	<path class="st5" d="M401.2,1143.8c5.7,19.3-30.1,49-81.3,64.2s-98.2,10.2-104-9.1c-5.7-19.3,31.1-47.3,82.3-62.5
		S395.5,1124.5,401.2,1143.8z"/>
	
		<ellipse transform="matrix(0.9585 -0.285 0.285 0.9585 -317.0639 134.6759)" class="st4" cx="304.2" cy="1156.7" rx="96.7" ry="44.2"/>
	
		<ellipse transform="matrix(0.9585 -0.285 0.285 0.9585 -315.9754 134.3519)" class="st6" cx="303.6" cy="1152.8" rx="84.1" ry="34.6"/>
	<path class="st6" d="M516,1414l-247.6,72.1c-10,3-20.7-3.7-24-14.8l-45.4-174c-3.3-11.2,2.1-22.6,12-25.6l235.5-70
		c10-3,20.7,3.7,24,14.8l57.5,171.9C531.4,1399.6,526,1411.1,516,1414z"/>
	<g>
		<path class="st7" d="M439.8,1280.2l-16.5,4.9c-19.9-14.2-51.2-18.5-82.9-9.1c-31.7,9.4-55.6,30.2-64.5,52.9l-16.5,4.9
			c-5.3,1.6-8.4,7.2-6.8,12.6l11.7,39.2c1.6,5.3,7.2,8.4,12.5,6.8l16.5-4.9c19.9,14.2,51.2,18.5,83,9.1
			c31.7-9.4,55.6-30.2,64.5-52.9l16.5-4.9c5.3-1.6,8.4-7.2,6.8-12.6l-11.6-39.2C450.8,1281.6,445.1,1278.6,439.8,1280.2z"/>
		<path class="st8" d="M371.1,1379.3c-25.4,7.6-51.2,5.1-67.4-6.5c-4.5-3.2-10.2-4.2-15.5-2.6l-8.9,2.7l-7.2-24.1l8.9-2.7
			c5.3-1.6,9.6-5.5,11.6-10.7c7.2-18.5,27.5-34.7,52.9-42.2s51.2-5.1,67.4,6.5c4.5,3.2,10.2,4.2,15.5,2.6l8.9-2.7l7.2,24.1l-8.9,2.7
			c-5.3,1.6-9.6,5.5-11.6,10.7C416.8,1355.5,396.5,1371.7,371.1,1379.3z"/>
		<g>
			<path class="st9" d="M332,1360.4l-19.5,5.8l0-0.7c0.2-0.1,0.5-0.2,0.8-0.2c0.3-0.1,0.9-0.3,1.6-0.7c0.8-0.3,1.3-0.7,1.6-1.2
				c0.3-0.5,0.5-1.2,0.6-2.2l0-2.1l-0.3-21.3l-0.1-2c-0.1-0.9-0.3-1.5-0.6-1.8c-0.3-0.3-0.9-0.4-1.7-0.2l-2.2,0.5l0-0.7l19.2-5.7
				l0,0.7l-2.2,0.8c-0.9,0.3-1.4,0.7-1.7,1.2c-0.3,0.4-0.5,1.2-0.5,2.2l0,2.1l0.4,21.4l0.1,2c0.1,1,0.3,1.6,0.6,1.8s0.9,0.3,1.8,0.2
				l2.1-0.5L332,1360.4z"/>
			<path class="st9" d="M369.6,1317.2c-0.4,0.1-0.7,0.3-1.2,0.4c-0.4,0.2-1,0.4-1.8,0.8c-0.8,0.4-1.3,0.9-1.7,1.5
				c-0.4,0.7-0.6,1.5-0.7,2.5l0,2.2l0.6,26.1l-5,1.5l-20.2-21.3l-0.2,0.1l0.4,20.9l0.1,2.1c0.1,1,0.4,1.6,0.7,2
				c0.4,0.4,1,0.5,1.7,0.4c0.8-0.1,1.4-0.2,2-0.3c0.5-0.1,0.9-0.2,1.1-0.2l0,0.7l-11.9,3.6l0-0.7c0.4-0.1,0.8-0.3,1.2-0.4
				c0.4-0.2,1.2-0.5,2.4-1c1.1-0.5,1.8-1.7,1.9-3.6l0-2.2l-0.4-20.3l-0.1-2c-0.4-0.5-0.8-1-1.3-1.4c-0.5-0.4-1.1-0.6-1.7-0.6
				s-1.2,0-1.7,0.2l-1.2,0.4l0-0.7l15.7-4.7l15.3,16.2l0.2-0.1l-0.4-14.2l-0.1-2.1c-0.1-0.9-0.4-1.6-0.7-2s-0.9-0.5-1.7-0.4
				c-0.7,0.1-1.3,0.2-1.8,0.3s-0.9,0.2-1.3,0.3l0-0.7l11.8-3.5L369.6,1317.2z"/>
			<path class="st9" d="M387.4,1328.7l-1.1,1.8l0.2,8.2l0.1,2c0.1,0.9,0.3,1.6,0.6,1.8c0.3,0.2,0.9,0.3,1.7,0.2l1.5-0.3l0,0.7
				l-18.4,5.5l0-0.7l2.1-0.8c0.8-0.4,1.3-0.8,1.6-1.3c0.3-0.5,0.5-1.2,0.5-2.1l0-2.1l-0.6-21.2l-0.1-2c-0.1-0.9-0.3-1.5-0.6-1.8
				s-0.9-0.4-1.7-0.2l-2.1,0.5l0-0.7l18.5-5.5l0,0.7l-1.6,0.6c-0.9,0.3-1.4,0.7-1.7,1.2c-0.3,0.4-0.4,1.2-0.5,2.2l0,2.1l0.4,12
				c0.8-1.2,1.8-3,3.2-5.2c1.4-2.2,2.8-4.5,4.2-6.8c1.4-2.3,2.4-3.9,2.9-4.8c0.5-0.9,0.7-1.6,0.7-2.1c0-0.4-0.2-0.7-0.5-0.8
				s-0.7-0.1-1.2,0l-1.9,0.4l0-0.7l10.5-3.1l0,0.7c-0.4,0.1-0.7,0.3-1.1,0.4c-0.4,0.1-0.9,0.3-1.4,0.6s-1.1,0.7-1.7,1.2
				c-0.6,0.5-1.2,1.4-2,2.6l-4,6.3l11.9,15.4c1.1,1.4,1.9,2.2,2.4,2.5c0.5,0.3,1,0.4,1.5,0.3c0.6-0.1,1-0.1,1.3-0.2
				c0.3-0.1,0.5-0.1,0.8-0.2l0,0.7l-19.9,5.9l0-0.7l1.7-0.6c0.6-0.2,1-0.4,1.3-0.7c0.3-0.2,0.4-0.5,0.4-1c0-0.3-0.1-0.6-0.2-0.9
				c-0.1-0.4-0.5-0.9-1-1.6c-0.5-0.7-1.1-1.4-1.8-2.3s-1.5-1.9-2.6-3.3C388.6,1330.3,387.9,1329.3,387.4,1328.7z"/>
		</g>
	</g>
	<line class="st10" x1="441.4" y1="1202.9" x2="446.3" y2="1201.5"/>
	<line class="st10" x1="416.2" y1="1210.4" x2="435.5" y2="1204.7"/>
	<line class="st10" x1="211.1" y1="1271.7" x2="410.4" y2="1212.2"/>
	<g>
		<path class="st11" d="M479.8,1017.2l-26.8-5.1c-15.6-12.5-38.6-22.4-65.2-26.6c-23.2-3.7-45.2-2.6-62.9,2.4l-33.6-6.3l-6.8,41.1
			c-4.7,29,34,59.3,86.4,67.8c52.4,8.4,98.7-8.2,103.4-37.2c0.3-2,0.4-4.1,0.4-6.1L479.8,1017.2z"/>
		
			<ellipse transform="matrix(0.1591 -0.9873 0.9873 0.1591 -665.3895 1222.5488)" class="st12" cx="385" cy="1001.9" rx="53.2" ry="96.1"/>
		<path class="st13" d="M464,1010.3c-3.1,19.4-43.9,33.8-85.1,27.2s-73.7-33.7-70.6-53.1c3.1-19.4,42.1-30.3,83.2-23.7
			C432.7,967.3,467.1,990.9,464,1010.3z"/>
		<path class="st6" d="M420.5,1028.6c-13,2.4-26.9,2.5-40.3,0.3c-17.8-2.9-35.3-10.2-48-20.1c-10.4-8.1-16.4-17.2-15.5-23.2
			c0.9-5.7,10.3-13.1,29.2-16.5c13.3-2.5,29-2.5,44.2,0c18.4,3,36.4,9.8,49.4,18.6c10.8,7.4,16.9,15.5,16,21.1
			C454.4,1015.7,442,1024.7,420.5,1028.6z"/>
		<path class="st12" d="M371.3,1094.9l-6.5-1.1c-4.3-0.7-7.3-4.8-6.6-9.1l3.7-22.8c0.7-4.3,4.8-7.3,9.1-6.6l6.5,1.1
			c4.3,0.7,7.3,4.8,6.6,9.1l-3.7,22.8C379.7,1092.7,375.6,1095.6,371.3,1094.9z"/>
		<path class="st12" d="M407.3,1097.8l-11.9,0c-2.9,0-5.2-2.6-4.7-5.5l4.7-28.9c0.4-2.3,2.4-4,4.7-4l11.9,0c2.9,0,5.2,2.6,4.7,5.5
			l-4.7,28.9C411.6,1096.1,409.6,1097.8,407.3,1097.8z"/>
		<path class="st12" d="M441.6,1089.8l-16,3.8c-1.5,0.4-2.9-0.9-2.7-2.5l5.3-32.6c0.1-0.9,0.8-1.6,1.7-1.8l16-3.8
			c1.5-0.4,2.9,0.9,2.7,2.5l-5.3,32.6C443.1,1088.9,442.5,1089.6,441.6,1089.8z"/>
		<path class="st12" d="M471.4,1069.5l-15.4,11.9c-1,0.8-2.6-0.1-2.3-1.4l6-31.2c0.1-0.3,0.2-0.6,0.5-0.9l12.5-10
			c1.7-1.3,4.1,0.1,3.8,2.2l-4.6,28.4C471.9,1068.9,471.7,1069.2,471.4,1069.5z"/>
		<path class="st12" d="M328.5,1083.6l11.1,4.1c2.8,1,5.8-0.7,6.3-3.6l5.5-28.8c0.4-2.3-0.8-4.6-3-5.4l-11.1-4.1
			c-2.8-1-5.8,0.7-6.3,3.6l-5.5,28.8C325,1080.5,326.3,1082.8,328.5,1083.6z"/>
		<path class="st12" d="M299,1064.3l13.7,9.1c1.3,0.9,3.1,0.1,3.4-1.4l6.2-32.4c0.2-0.9-0.2-1.8-0.9-2.2l-13.7-9.1
			c-1.3-0.9-3.1-0.1-3.4,1.4l-6.2,32.4C297.9,1062.9,298.3,1063.8,299,1064.3z"/>
		<path class="st12" d="M280.4,1036.3l6.1,10c1.4,2.3,4.9,1.6,5.3-1l4.3-25.2c0.1-0.7,0-1.3-0.4-1.9l-8.5-14.9
			c-0.4-0.7-1.5-0.5-1.7,0.3l-5.5,30.7C279.8,1035,280,1035.7,280.4,1036.3z"/>
	</g>
	<g>
		<g>
			<path class="st14" d="M418.4,1571.1c-15.4,18.5-12.5,25.8-5.7,34.9c6.8,9.1,12.8,14.1,35,4.6s398.6-312.5,420.1-330.7
				c13.4-11.4,18.2-19.2,19.8-23.4c1.1-1.6,1.5-3,0.9-3.8c-0.6-0.8-2-0.8-3.9-0.2c-4.5,0.4-13.3,2.7-28.1,12.2
				C832.8,1279.9,433.8,1552.6,418.4,1571.1z"/>
			<path class="st15" d="M411.4,1585.3l20.7,27.8c0.5,0.7,0.4,1.7-0.3,2.2l-8.9,6.6c-0.7,0.5-1.7,0.4-2.2-0.3l-20.7-27.8
				c-0.5-0.7-0.4-1.7,0.3-2.2l8.9-6.6C409.9,1584.5,410.9,1584.6,411.4,1585.3z"/>
		</g>
		
			<linearGradient id="SVGID_00000031907977965333279280000017532509344842897546_" gradientUnits="userSpaceOnUse" x1="1726.6844" y1="151.0483" x2="1726.6844" y2="50.6109" gradientTransform="matrix(-0.5961 -0.8029 0.8029 -0.5961 1321.964 3081.4302)">
			<stop  offset="0" style="stop-color:#838383"/>
			<stop  offset="5.210000e-02" style="stop-color:#8F8F8F"/>
			<stop  offset="0.1973" style="stop-color:#ABABAB"/>
			<stop  offset="0.3537" style="stop-color:#C1C1C1"/>
			<stop  offset="0.5246" style="stop-color:#D1D1D1"/>
			<stop  offset="0.721" style="stop-color:#DADADA"/>
			<stop  offset="1" style="stop-color:#DDDDDD"/>
		</linearGradient>
		<path style="fill:url(#SVGID_00000031907977965333279280000017532509344842897546_);" d="M357.5,1622.2c0,0-8.1,24.7-24.8,41.9
			L368,1638c-0.6-1.6-0.2-3.4,1.2-4.4c1.7-1.2,4-0.9,5.3,0.8c1.2,1.7,0.9,4.1-0.8,5.3c-1.4,1.1-3.3,0.9-4.6-0.1l-35.2,26.1
			c21.4-11,47.3-11.6,47.3-11.6c13.1-18.8,39.2-36.3,39.2-36.3c2.9-0.3-6.5-12.8-6.5-12.8s-9.2-12.5-10.3-9.9
			C403.6,1595.2,379.3,1615.1,357.5,1622.2z"/>
	</g>
</g>
</svg>
