<?xml version="1.0" encoding="utf-8"?>
<!-- Generator: Adobe Illustrator 26.0.0, SVG Export Plug-In . SVG Version: 6.00 Build 0)  -->
<svg version="1.1" id="Layer_1" xmlns="http://www.w3.org/2000/svg" xmlns:xlink="http://www.w3.org/1999/xlink" x="0px" y="0px"
	 viewBox="0 0 1125 2436" style="enable-background:new 0 0 1125 2436;" xml:space="preserve">
<style type="text/css">
	.st0{fill:#A4A6A5;}
	.st1{fill:#303E6D;}
	.st2{fill:#394872;}
	.st3{fill:#272C33;}
	.st4{fill:#1D2126;}
	.st5{fill:#6371AD;}
	.st6{fill:#EAEAEA;}
	.st7{fill:#5869A0;}
	.st8{fill:#D8D9D7;}
	.st9{fill:none;stroke:#F2F2F0;stroke-width:10;stroke-miterlimit:10;}
	.st10{fill:#BABABA;}
	.st11{fill:#DDDDDD;}
	.st12{fill:#CCCCCC;}
	.st13{fill:#E8E8E8;}
</style>
<g>
	
		<ellipse transform="matrix(0.9659 -0.2589 0.2589 0.9659 -290.8596 178.3568)" class="st0" cx="531.7" cy="1193.5" rx="314.5" ry="351"/>
	<g>
		<g>
			<path class="st1" d="M945.5,1382.4H785.3c-5.5,0-9.9-4.4-9.9-9.9v-140.1c0-5.5,4.5-9.9,9.9-9.9h160.1c5.5,0,9.9,4.4,9.9,9.9
				v140.1C955.4,1378,951,1382.4,945.5,1382.4z"/>
			<path class="st1" d="M924,1237.4H806.8c-2.5,0-4.4-2-4.4-4.4v-39.1c0-2.4,2-4.4,4.4-4.4H924c2.5,0,4.4,2,4.4,4.4v39.1
				C928.4,1235.4,926.4,1237.4,924,1237.4z"/>
			<path class="st2" d="M926.6,1214.4H804.3c-3.5,0-6.3-2.8-6.3-6.3v-4.3c0-3.5,2.8-6.3,6.3-6.3h122.3c3.5,0,6.3,2.8,6.3,6.3v4.3
				C932.9,1211.6,930.1,1214.4,926.6,1214.4z"/>
		</g>
		<g>
			<path class="st3" d="M937.8,1210.8v-33.1c0-0.6,0.2-1.2,0.5-1.7c0.5-0.9,0.3-2.1-0.5-2.8c-1.7-1.7-4.2-2.7-6.9-2.7H799.9
				c-2.7,0-5.2,1-6.9,2.7c-0.8,0.8-1,1.9-0.5,2.8c0.3,0.5,0.5,1.1,0.5,1.7v33.1c0,0.6-0.2,1.2-0.5,1.7c-0.5,0.9-0.3,2.1,0.5,2.8
				c1.7,1.7,4.2,2.7,6.9,2.7H931c2.7,0,5.2-1,6.9-2.7c0.8-0.8,1-1.9,0.5-2.8C938,1212,937.8,1211.4,937.8,1210.8z"/>
			<g>
				<path class="st4" d="M816.2,1214.6h-9.6c-2.1,0-3.8-1.7-3.8-3.8v-33.1c0-2.1,1.7-3.8,3.8-3.8h9.6c2.1,0,3.8,1.7,3.8,3.8v33.1
					C820,1212.8,818.3,1214.6,816.2,1214.6z"/>
				<path class="st4" d="M843.2,1214.6h-9.6c-2.1,0-3.8-1.7-3.8-3.8v-33.1c0-2.1,1.7-3.8,3.8-3.8h9.6c2.1,0,3.8,1.7,3.8,3.8v33.1
					C847,1212.8,845.3,1214.6,843.2,1214.6z"/>
				<path class="st4" d="M870.2,1214.6h-9.6c-2.1,0-3.8-1.7-3.8-3.8v-33.1c0-2.1,1.7-3.8,3.8-3.8h9.6c2.1,0,3.8,1.7,3.8,3.8v33.1
					C874,1212.8,872.3,1214.6,870.2,1214.6z"/>
				<path class="st4" d="M897.2,1214.6h-9.6c-2.1,0-3.8-1.7-3.8-3.8v-33.1c0-2.1,1.7-3.8,3.8-3.8h9.6c2.1,0,3.8,1.7,3.8,3.8v33.1
					C901,1212.8,899.3,1214.6,897.2,1214.6z"/>
				<path class="st4" d="M924.2,1214.6h-9.6c-2.1,0-3.8-1.7-3.8-3.8v-33.1c0-2.1,1.7-3.8,3.8-3.8h9.6c2.1,0,3.8,1.7,3.8,3.8v33.1
					C928,1212.8,926.3,1214.6,924.2,1214.6z"/>
			</g>
		</g>
		<g>
			<path class="st5" d="M927.4,1276.7h-11.3c-9.9-12.7-28.9-21.3-50.7-21.3s-40.8,8.6-50.7,21.3h-11.3c-3.7,0-6.7,3-6.7,6.7v26.9
				c0,3.7,3,6.7,6.7,6.7h11.3c9.9,12.7,28.9,21.3,50.7,21.3s40.8-8.6,50.7-21.3h11.3c3.7,0,6.7-3,6.7-6.7v-26.9
				C934.1,1279.7,931.1,1276.7,927.4,1276.7z"/>
			<path class="st6" d="M865.5,1326.4c-17.5,0-33.3-6.4-41.4-16.8c-2.2-2.9-5.7-4.6-9.3-4.6h-6.1v-16.6h6.1c3.7,0,7.1-1.7,9.3-4.6
				c8-10.3,23.9-16.8,41.4-16.8c17.5,0,33.3,6.4,41.4,16.8c2.2,2.9,5.7,4.6,9.3,4.6h6.1v16.6h-6.1c-3.7,0-7.1,1.7-9.3,4.6
				C898.8,1320,882.9,1326.4,865.5,1326.4z"/>
			<g>
				<path class="st7" d="M844.3,1307.2h-13.4l0.1-0.5c0.1,0,0.3,0,0.5,0s0.6-0.1,1.2-0.1c0.5-0.1,1-0.2,1.2-0.5s0.5-0.7,0.8-1.2
					l0.4-1.3l3.8-13.5l0.3-1.3c0.1-0.6,0.1-1,0-1.3c-0.1-0.2-0.5-0.4-1-0.5l-1.5-0.1l0.1-0.5H850l-0.1,0.5l-1.5,0.1
					c-0.6,0.1-1,0.2-1.3,0.4c-0.3,0.2-0.5,0.7-0.7,1.3l-0.4,1.3l-3.8,13.6l-0.3,1.3c-0.1,0.6-0.1,1.1,0.1,1.3
					c0.2,0.2,0.5,0.4,1.1,0.4l1.5,0.1L844.3,1307.2z"/>
				<path class="st7" d="M876.1,1286.9c-0.2,0-0.5,0-0.8,0.1s-0.7,0.1-1.3,0.2c-0.5,0.1-1,0.3-1.4,0.7s-0.7,0.8-0.9,1.4l-0.4,1.4
					l-4.5,16.6h-3.5l-8.7-17.3h-0.1l-3.7,13.3l-0.3,1.4c-0.1,0.6-0.1,1.1,0.1,1.4c0.2,0.3,0.5,0.5,1,0.6c0.5,0.1,0.9,0.1,1.3,0.2
					s0.6,0,0.7,0.1l-0.1,0.5h-8.2l0.1-0.5c0.2,0,0.5,0,0.8-0.1c0.3,0,0.9-0.1,1.7-0.2c0.8-0.1,1.4-0.8,1.9-1.9l0.4-1.4l3.6-12.9
					l0.3-1.3c-0.1-0.4-0.3-0.8-0.6-1.1c-0.2-0.3-0.6-0.6-0.9-0.7s-0.7-0.2-1.1-0.2h-0.8l0.1-0.5h10.8l6.6,13.1h0.1l2.5-9.1l0.3-1.4
					c0.1-0.6,0.1-1.1-0.1-1.4c-0.2-0.3-0.5-0.5-1-0.6c-0.5-0.1-0.9-0.1-1.2-0.2c-0.3,0-0.6,0-0.8-0.1l0.1-0.5h8.1L876.1,1286.9z"/>
				<path class="st7" d="M885.2,1297.5l-1,0.9l-1.4,5.2l-0.3,1.3c-0.1,0.6-0.1,1.1,0,1.3s0.5,0.4,1.1,0.4l1,0.1l-0.1,0.5h-12.7
					l0.1-0.5l1.5-0.1c0.6-0.1,1-0.2,1.3-0.5c0.3-0.2,0.5-0.7,0.8-1.2l0.4-1.3l3.6-13.5l0.3-1.3c0.1-0.6,0.1-1,0-1.3
					c-0.1-0.2-0.5-0.4-1-0.5l-1.4-0.1l0.1-0.5h12.7l-0.1,0.5l-1.1,0.1c-0.6,0.1-1,0.2-1.3,0.4s-0.5,0.7-0.7,1.3l-0.4,1.3l-2,7.7
					c0.7-0.7,1.7-1.5,3-2.7s2.6-2.3,3.9-3.5c1.3-1.2,2.2-2.1,2.7-2.5c0.5-0.5,0.8-0.9,0.8-1.2c0.1-0.3,0-0.5-0.2-0.6
					s-0.4-0.2-0.8-0.2l-1.3-0.1l0.1-0.5h7.2l-0.1,0.5c-0.2,0-0.5,0-0.8,0s-0.6,0.1-1,0.1s-0.8,0.2-1.3,0.5c-0.5,0.2-1,0.6-1.8,1.2
					l-3.7,3.3l4.6,12c0.4,1.1,0.8,1.8,1,2c0.2,0.3,0.6,0.4,0.9,0.5s0.6,0.1,0.8,0.1s0.4,0,0.5,0l-0.1,0.5h-13.7l0.1-0.5l1.2-0.1
					c0.4,0,0.7-0.1,0.9-0.2c0.2-0.1,0.3-0.3,0.4-0.5c0-0.2,0-0.4,0-0.6c0-0.2-0.1-0.6-0.3-1.2c-0.2-0.5-0.4-1.1-0.7-1.8
					s-0.6-1.5-1-2.6C885.7,1298.8,885.4,1298,885.2,1297.5z"/>
			</g>
		</g>
	</g>
	<path class="st8" d="M1007.6,1743.9c85.8,209.2-62.2,304.1-219.5,219.5c-70.3-37.8-190.9-114.8-219.5-219.5
		c-32-116.9,98.3-219.5,219.5-219.5S961.6,1631.8,1007.6,1743.9z"/>
	<path class="st9" d="M726.8,1542.2c4.9,305.4-313.9,401.4-480.8,325.4c-177.6-80.8-264.3-364.8-37.3-579.4
		C410.9,1097,546.5,892.6,689.6,962.8S722.3,1263.9,726.8,1542.2z"/>
	<g>
		<path class="st1" d="M214.6,1413.4l-25,5c-5.2,1-8.2,6.6-6.3,11.5l125.5,317.6c1.6,3.9,5.8,6.2,9.9,5.2l363.6-86.6
			c5.6-1.3,8.3-7.7,5.4-12.6l-166.8-285.7c-1.8-3.1-5.3-4.7-8.8-4.1L214.6,1413.4z"/>
		<path class="st1" d="M801.6,1320.6l11.6,12.5c0.2,0.2,0.4,0.5,0.6,0.7l181.7,271.1c2.4,3.5,0.3,8.3-3.9,9l-294,48.8
			c-2.5,0.4-4.9-0.8-6.1-3l-161-296.9c-1.9-3.6,0.3-8,4.3-8.6l261.7-35.5C798.5,1318.6,800.3,1319.2,801.6,1320.6z"/>
		<path class="st10" d="M302.3,1731.7c0,0,16.2,3.8,23.2,12.8c0,0,192-90.1,364-90.6c0,0,161-58.4,296-47.4c0,0,0.9-8.4,5.5-13.2
			c4.5-4.8,4.5-4.8,4.5-4.8l-273.2-184C722.4,1404.4,266.1,1472.9,302.3,1731.7z"/>
		<path class="st11" d="M518,1342.3c115.6-72.9,275.6-36.9,275.6-36.9l207,289c0,0-116-21-311.1,52L518,1342.3z"/>
		<path class="st12" d="M527,1364.3c-175.4-34-343.6,40.9-343.6,40.9l110.1,331.3c0,0,220.9-124,396.2-90.1L527,1364.3z"/>
		<path class="st11" d="M527,1342.3c-175.4-34-343.6,40.9-343.6,40.9l110.1,331.3c0,0,220.7-102.1,396.1-68.1L527,1342.3z"/>
		<path class="st13" d="M518,1342.3c115.6-72.9,283.7-49.1,283.7-49.1l207,283.2c0,0-113-21-319.1,70L518,1342.3z"/>
		<path class="st13" d="M362,1714.5c0,0,203.6-76.2,327.6-60.6C689.6,1653.8,592.4,1618.5,362,1714.5z"/>
		<path class="st1" d="M716.5,1668.2l-55,10.1c-1.6,0.3-3.2-0.8-3.5-2.4l-1.8-9.8c-0.3-1.6,0.8-3.2,2.4-3.5l55-10.1
			c1.6-0.3,3.2,0.8,3.5,2.4l1.8,9.8C719.3,1666.3,718.2,1667.9,716.5,1668.2z"/>
	</g>
</g>
</svg>
