<?xml version="1.0" encoding="utf-8"?>
<!-- Generator: Adobe Illustrator 23.1.0, SVG Export Plug-In . SVG Version: 6.00 Build 0)  -->
<svg version="1.1" id="Layer_1" xmlns="http://www.w3.org/2000/svg" xmlns:xlink="http://www.w3.org/1999/xlink" x="0px" y="0px"
	 viewBox="0 0 463 475" style="enable-background:new 0 0 463 475;" xml:space="preserve">
<style type="text/css">
	.st0{fill:url(#SVGID_1_);}
	.st1{fill:url(#SVGID_2_);}
	.st2{fill:none;stroke:#000000;stroke-width:7;stroke-miterlimit:10;}
	.st3{fill:none;stroke:#000000;stroke-width:18;stroke-miterlimit:10;}
	.st4{fill:none;stroke:#000000;stroke-width:3;stroke-miterlimit:10;}
	.st5{fill:#222626;}
	.st6{fill:#3B3F40;}
	.st7{fill:#72736F;}
	.st8{fill:#F2F2EB;}
</style>
<linearGradient id="SVGID_1_" gradientUnits="userSpaceOnUse" x1="395.8684" y1="411.6243" x2="79.3178" y2="75.0499" gradientTransform="matrix(0.7284 0.6851 -0.6851 0.7284 226.0027 -102.0662)">
	<stop  offset="0" style="stop-color:#222626"/>
	<stop  offset="1" style="stop-color:#72736F"/>
</linearGradient>
<path class="st0" d="M452,280.3c7.9-33,6.5-67.1-3.7-99.8c-0.6-4.1-1.4-8.1-2.3-12.2c-6-27.6-17.5-53-34.2-75.5
	c-17.2-23.2-39.1-42.1-65.1-56.5c-27.7-15.2-59.3-24.7-94-28.2c-33.7-3.4-65.2,0.1-93.7,10.3c-25.5,9.2-48.7,23.9-68.9,43.7
	C81.3,70.9,73.1,80.5,65.5,91C36.1,123,16.8,163.1,9.9,207.5C1.5,262,16.4,318.1,52,365.4c8.6,11.5,18.3,22.3,28.9,32.2
	c32.1,30.2,72.6,53.1,117.4,65.8c42.4,12,90.1,4.4,134.2-21.6C390.5,407.7,436.3,345.8,452,280.3z M437.6,264
	c-7.7,33.3-19.5,62-35.3,85.8c-0.4-5.5-2.3-11.1-6-15.7c-4.5-5.5-13.4-11.8-30.4-10.5c-16.7-1.7-34.8,6.9-56.8,17.3
	c-35.6,16.9-79.9,37.9-144.1,29c-57.1-7.9-93.5-49.2-114-82.5c-12.9-21-21.3-41.5-26.1-55.1c0.2-7.5,0.8-15,2-22.5
	c8.4-54.4,37.2-101.9,81-133.8c43.7-31.8,97.6-44.5,151.7-35.6c43.3,7.1,84.4,27.9,116.4,58c12.1,11.4,23,24.2,32.1,38
	C434.4,176,444.6,220.8,437.6,264z M25,240.8c5,13.2,12.7,30.5,23.6,48.2C59.1,306.2,71,321,84,333.2c3.3,3.1,6.6,6,10,8.7
	c21.2,17,44.9,27.5,70.7,31c65,9,109.8-12.2,145.7-29.3c4.9-2.3,9.6-4.6,14.2-6.6c-5.8,2.9-11.8,6.2-18,10
	c-96.8,58.5-187.7,18.7-213.2,5.2c-25-13.3-47-41-59.2-58.5C28.5,276.5,25.4,258.8,25,240.8z M93.4,385.3
	c-21.2-20-38.2-43-49.9-67.9c5.6,6.7,11.9,13.7,18.8,20.2c8.5,8,17.9,15.3,27.8,20.6c15.6,8.3,48.1,22.7,90.6,25.9
	c45.7,3.4,89.2-7.1,129.2-31.2c56.2-33.9,75.5-21.3,81.2-14.3c5.6,6.9,5.7,16.9,2.5,23.6c-41.4,53.5-105.1,78.4-187.1,71.4
	c-30.2-2.6-59.8-11.8-86.1-26.1C110.8,400.5,101.8,393.1,93.4,385.3z M252,14.9c52.6,5.3,98.4,25.2,132.2,57
	c8.1,7.6,15.6,16,22.2,25c9.3,12.5,16.9,26.2,22.8,40.6c-2.1-3.5-4.2-7.1-6.5-10.5c-35.9-54.3-95.7-93-160.1-103.5
	c-54.8-9-109.3,2.4-155,32C143.9,25.9,191.5,8.8,252,14.9z M203.3,446.7c-13.6-3.9-26.6-8.7-39-14.3c13.7,3.9,27.7,6.5,41.7,7.7
	c50.7,4.4,94.6-2.9,131.1-21.6c-4.3,3-8.6,5.8-13.1,8.4C283.9,450.4,241.1,457.5,203.3,446.7z"/>
<linearGradient id="SVGID_2_" gradientUnits="userSpaceOnUse" x1="1272.4783" y1="474.9995" x2="1272.4783" y2="8.1127">
	<stop  offset="0" style="stop-color:#222626"/>
	<stop  offset="1" style="stop-color:#72736F"/>
</linearGradient>
<path class="st1" d="M1470.6,124c-17.6-30.4-43-55.1-74.1-72.5c-3.4-2.6-6.9-5.1-10.4-7.6c-24.3-16.5-51.2-27.5-80-32.6
	c-29.6-5.3-59.8-4.1-89.9,3.6c-31.9,8.1-62.7,23.4-91.6,45.3c-28.1,21.3-49.5,46.2-63.8,74.1c-12.8,25-20,52.5-21.2,81.7
	c-0.5,12.8,0.1,25.9,1.8,39.1c0.5,44.8,14.5,88.8,41,127c32.6,47,84,78.6,144.9,89c14.8,2.5,29.8,3.8,45,3.8
	c46,0,93.1-11.5,136.3-33.6c40.8-21,71.6-60.5,86.6-111.3C1515,263.4,1505.5,184.5,1470.6,124z M1448.1,121.9
	c18,30.5,29.5,60.5,34.6,89.6c-4.2-3.9-9.6-6.7-15.8-7.6c-7.4-1-18.7,0.6-30.6,13.7c-13.9,10.5-21.5,29.8-30.8,53.2
	c-15,37.9-33.6,85.1-88.7,123.8c-49.1,34.5-106.3,29.1-145.6,18.6c-24.8-6.7-45.8-16.2-59.2-23c-5.2-5.8-10.1-11.9-14.6-18.3
	c-32.5-46.9-44.6-103-34.1-158c10.5-54.9,42.4-102.6,89.9-134.2c38-25.3,84.1-38.7,130-38.7c17.4,0,34.8,1.9,51.6,5.9
	C1382.7,58,1422.5,84.5,1448.1,121.9z M1117.8,396.6c13.3,6.4,31.5,14,52.4,19.6c20.3,5.5,39.9,8.2,58.5,8.2c4.7,0,9.3-0.2,13.8-0.5
	c28.3-2.2,53.8-11.1,75.9-26.7c55.9-39.2,74.7-86.9,89.8-125.2c2.1-5.2,4.1-10.3,6-15c-2.3,6.2-4.5,13-6.6,20.3
	c-31.8,112.5-129.3,146.9-158.4,154.8c-28.4,7.7-65,2.4-86.8-2.1C1146,420.9,1131,409.8,1117.8,396.6z M1273.1,456.9
	c-30.4,0-59.8-5.4-86.5-15.8c9.1,1.1,18.8,1.9,28.7,1.9c12.2,0,24.5-1.2,35.8-4.2c17.8-4.8,52.8-17,87.4-44.7
	c37.2-29.8,62.8-68.5,75.9-115c18.5-65.3,42.2-69.5,51.5-68.2c9.1,1.2,16.4,8.6,18.8,16c6.8,69.6-23.9,133.4-91.2,186.1
	c-24.8,19.4-53.9,33.4-84.1,41.4C1297.2,456,1285.1,456.9,1273.1,456.9z M1128.9,65.8c43.8-33.2,92.8-50.7,141.2-50.7
	c11.7,0,23.3,1,34.8,3.1c16,2.9,31.6,7.7,46.4,14.4c-4.1-1.2-8.3-2.3-12.5-3.3c-66.1-15.5-139.2-2.2-195.7,35.4
	c-48,32-81.4,79.2-94.9,133.7C1054.5,150.7,1078.6,104.1,1128.9,65.8z M1400.6,425.4c-13.1,6.7-26.4,12.3-39.9,16.9
	c13.2-6.8,25.7-14.7,37.2-23.7c41.6-32.6,69.8-69.1,84.2-109c-1.1,5.2-2.4,10.4-3.9,15.5C1464.5,371.1,1437,406.7,1400.6,425.4z"/>
<g>
	<path class="st2" d="M-750.4,76.8c75,121.2,51.4,228.1-46.9,307.5c-83.3,67.3-227,80-301.8-50c-48.4-84.1-72.1-214.5,41-303.2
		C-943.2-58.9-812-22.8-750.4,76.8z"/>
	<path class="st3" d="M-732.1,96.7c57.9,103.6,38.6,254.9-56.4,305.3c-110.5,58.5-242.1,37.6-305.3-56.4
		c-67.6-100.6-43.5-236.5,56.4-305.3S-791.3-9.2-732.1,96.7z"/>
	<path class="st2" d="M-1042.6,397.2c0,0,61,18.8,104.3,6.7c43.3-12.1,127.4-53.1,156-157.4c28.6-104.4,75.5-69.3,75.6-46.4"/>
	<path class="st4" d="M-1088.2,351.4c0,0,122.1,80.5,215.2,13s80.3-162.3,123.6-181.9"/>
</g>
<rect x="-545" y="321" class="st5" width="139" height="139"/>
<rect x="-545" y="506" class="st6" width="139" height="139"/>
<rect x="-545" y="691" class="st7" width="139" height="139"/>
<rect x="-545" y="876" class="st8" width="139" height="139"/>
<rect x="-545" y="1061" class="st5" width="139" height="139"/>
</svg>
