<?xml version="1.0" encoding="utf-8"?>
<!-- Generator: Adobe Illustrator 26.0.0, SVG Export Plug-In . SVG Version: 6.00 Build 0)  -->
<svg version="1.1" id="Layer_1" xmlns="http://www.w3.org/2000/svg" xmlns:xlink="http://www.w3.org/1999/xlink" x="0px" y="0px"
	 viewBox="0 0 463 475" style="enable-background:new 0 0 463 475;" xml:space="preserve">
<style type="text/css">
	.st0{fill:url(#SVGID_1_);}
	.st1{fill:#45484B;}
</style>
<g>
	
		<linearGradient id="SVGID_1_" gradientUnits="userSpaceOnUse" x1="-165.8508" y1="474.2185" x2="-411.4152" y2="213.1207" gradientTransform="matrix(0.7394 -0.6732 -0.6732 -0.7394 676.1241 246.2193)">
		<stop  offset="0" style="stop-color:#63708B"/>
		<stop  offset="1" style="stop-color:#333838"/>
	</linearGradient>
	<path class="st0" d="M383.6,98.6c-13-23.6-32-42.8-55.5-56.6c-2.5-2.1-5.1-4-7.9-5.9c-18.3-13-38.6-21.7-60.4-26
		c-22.5-4.4-45.4-3.8-68.4,1.6c-24.4,5.9-48,17.2-70.2,33.7c-21.6,16-38.2,34.9-49.5,56.1c-10,19-15.8,40-17.1,62.4
		c-0.5,9.9-0.1,19.9,1,30.1c-0.2,34.5,9.9,68.3,29.6,98c24.2,36.5,62.9,61.4,109,70.1c11.2,2.2,22.6,3.3,34.1,3.5
		c35,0.6,70.9-7.6,104-24.1c31.3-15.6,55.2-45.5,67.2-84.3C415.6,206.2,409.4,145.4,383.6,98.6z M366.5,96.7
		c13.3,23.6,21.7,46.8,25.1,69.2c-3.2-3-7.3-5.3-11.9-6c-5.6-0.8-14.2,0.2-23.4,10.1c-10.7,7.9-16.7,22.6-24.1,40.5
		c-11.9,28.9-26.6,64.9-69,94c-37.7,25.9-81.1,21.1-110.9,12.5c-18.8-5.4-34.7-13-44.7-18.4c-3.9-4.5-7.5-9.2-10.8-14.3
		C72.5,247.9,64,204.6,72.7,162.5c8.6-42,33.5-78.2,70-101.9c29.2-19,64.4-28.7,99.2-28.1c13.2,0.2,26.4,1.9,39.1,5.1
		C317.6,46.8,347.5,67.7,366.5,96.7z M112.1,303.5c10,5.1,23.7,11.1,39.6,15.7c15.3,4.5,30.2,6.8,44.4,7c3.6,0.1,7.1,0,10.5-0.2
		c21.5-1.4,41-7.8,58-19.6c42.9-29.4,57.9-65.8,69.8-95c1.6-4,3.2-7.8,4.8-11.5c-1.9,4.8-3.6,9.9-5.2,15.5
		c-25.5,86-100.1,111.2-122.3,116.9c-21.8,5.5-49.5,1.1-66-2.7C133.2,322.5,121.9,313.8,112.1,303.5z M229.3,351.7
		c-23.1-0.4-45.4-4.8-65.5-13.2c6.9,0.9,14.3,1.7,21.8,1.8c9.3,0.2,18.7-0.6,27.3-2.8c13.6-3.5,40.3-12.4,67-33.2
		c28.6-22.4,48.5-51.8,59.1-87.3c14.9-49.9,32.9-52.8,40-51.7c7,1.1,12.4,6.9,14.1,12.5c4.3,53.5-19.8,102.1-71.6,141.8
		c-19.1,14.6-41.4,25-64.4,30.7C247.7,351.3,238.4,351.8,229.3,351.7z M124.6,49.8c33.7-25,71.2-37.8,108-37.2
		c8.8,0.1,17.7,1.1,26.4,2.8c12,2.4,23.8,6.3,35,11.6c-3.1-0.9-6.3-1.9-9.4-2.7c-50.1-12.7-105.8-3.4-149.2,24.8
		c-36.9,24-62.8,59.8-73.8,101.5C67,113.9,85.8,78.5,124.6,49.8z M326.6,329c-10.1,5-20.2,9.1-30.5,12.4c10.1-5,19.7-11,28.6-17.8
		c32.1-24.5,53.9-52.2,65.4-82.7c-0.9,4.1-1.9,8-3.2,11.9C375.8,288.2,354.5,315.2,326.6,329z"/>
	<g>
		<path class="st1" d="M96.4,426.9h12.2v3.3H79.9v-3.3h12.6v-7.3h4L96.4,426.9L96.4,426.9z M106.3,445.6c0,6.6-4.9,11.1-11.8,11.1
			c-6.7,0-11.7-4.5-11.7-11.1c0-6.5,5-11.1,11.7-11.1C101.4,434.5,106.3,439.1,106.3,445.6z M102.5,445.6c0-4.5-3.4-7.8-8.1-7.8
			c-4.6,0-7.9,3.3-7.9,7.8s3.4,7.8,7.9,7.8C99.2,453.4,102.5,450.1,102.5,445.6z M125.6,442.6h-8.2v25.1h-4V419h4v20.2h8.2V442.6z"
			/>
		<path class="st1" d="M185.2,452h-20.1v15.8h-3.9V452h-20v-3.3h44.1L185.2,452L185.2,452z M175.9,424.3h-29.4V421h33.4v12.5h-29.2
			v6.5H181v3.3h-34.3v-13H176v-6H175.9z"/>
		<path class="st1" d="M202.4,453.6c8.9,0,21.3,0,31.9-1.7l0.3,2.9c-10.9,2.1-22.9,2.1-31.6,2.1L202.4,453.6z M230.9,434
			c0,6.7-5.4,11.3-13,11.3s-13-4.6-13-11.3c0-6.7,5.4-11.3,13-11.3S230.9,427.3,230.9,434z M208.8,434c0,4.6,3.9,7.9,9.1,7.9
			c5.3,0,9.1-3.3,9.1-7.9s-3.8-7.9-9.1-7.9S208.8,429.4,208.8,434z M241.5,419.1v48.8h-3.9v-48.8H241.5z"/>
		<path class="st1" d="M306.3,433.5c0,6.7-5.3,11.3-12.6,11.3c-7.3,0-12.6-4.6-12.6-11.3c0-6.7,5.3-11.3,12.6-11.3
			S306.3,426.8,306.3,433.5z M284.9,433.5c0,4.7,3.6,8,8.7,8s8.8-3.3,8.8-8c0-4.6-3.6-8-8.8-8C288.6,425.5,284.9,428.9,284.9,433.5z
			 M319.8,458.3c0,5.8-6.2,9.3-16.2,9.3c-10.1,0-16.3-3.5-16.3-9.3s6.2-9.3,16.3-9.3C313.6,449.1,319.8,452.6,319.8,458.3z
			 M291.2,458.3c0,3.8,4.8,6.1,12.4,6.1s12.2-2.3,12.2-6.1c0-3.8-4.7-6-12.2-6S291.2,454.6,291.2,458.3z M319.7,419.1v29h-4v-29
			H319.7z"/>
		<path class="st1" d="M384.8,457.5v3.3h-44v-3.3H384.8z M375.3,437.7c0.1-2.6,0.1-5,0.1-7.5v-2.8h-29.2v-3.3h33.1v6.1
			c0,7.1,0,13.7-2,23.6l-4-0.4c1.1-4.7,1.6-8.9,1.8-12.7l-29.6,1.7l-0.6-3.4L375.3,437.7z"/>
	</g>
</g>
</svg>
