<?xml version="1.0" encoding="utf-8"?>
<!-- Generator: Adobe Illustrator 23.1.0, SVG Export Plug-In . SVG Version: 6.00 Build 0)  -->
<svg version="1.1" id="Layer_1" xmlns="http://www.w3.org/2000/svg" xmlns:xlink="http://www.w3.org/1999/xlink" x="0px" y="0px"
	 viewBox="0 0 249 249" style="enable-background:new 0 0 249 249;" xml:space="preserve">
<style type="text/css">
	.st0{fill:#D9D8D7;}
	.st1{fill:#FFFFFF;}
	.st2{fill:none;stroke:#FFFFFF;stroke-width:10;stroke-linecap:round;stroke-linejoin:round;stroke-miterlimit:10;}
	.st3{fill:#72736F;}
</style>
<g>
	<path class="st3" d="M167.8,165.1c-0.8-1.7-3.2-2.3-4.3-2.5c-2-0.4-4.1-0.3-5.8,0L162,178c2.5-1.8,4.3-3.7,5.4-5.8
		C169.2,168.6,168.2,165.9,167.8,165.1L167.8,165.1z"/>
	<path class="st3" d="M137.4,170.8l2,15.1c0.3-0.1,0.6-0.1,0.9-0.2c1.2-0.2,2.2-0.4,3.2-0.5c3.4-0.8,6.6-1.7,9.4-2.7l-4.2-15.1
		C145.2,169.1,141.2,170.1,137.4,170.8z"/>
	<path class="st3" d="M124,172c-0.5,0-1.7,0-3.5-0.1l-2,14.9c3.3,0.2,7.1,0.2,11,0.1l-2-14.9C125.7,172,124.5,172,124,172z"/>
	<path class="st3" d="M84.4,162.6c-1,0.2-3.5,0.9-4.3,2.5c-0.4,0.8-1.3,3.6,0.5,7.2c0.8,1.5,2.3,3.6,5.3,5.7l4.3-15.4
		C88.5,162.2,86.4,162.2,84.4,162.6z"/>
	<path class="st3" d="M95.1,182.6c3.2,1.2,7,2.2,11.6,3.1c0.2,0,0.8,0.1,1.9,0.3l2.1-15.2c-3.8-0.7-7.8-1.7-11.3-3.4L95.1,182.6z"/>
	<path class="st3" d="M124.5,0C55.7,0,0,55.7,0,124.5S55.7,249,124.5,249S249,193.3,249,124.5S193.3,0,124.5,0z M57.4,101.9
		c-0.7,1.3-1.9,2.2-3.3,2.5c-1.1,0.3-2.4,0.1-3.5-0.5c-2.4-1.3-3.3-4.4-2-6.8c0.2-0.3,4.5-8.3,13.6-15.3c8.4-6.5,22.6-13.5,42.6-9.8
		c2.7,0.5,4.5,3.1,4,5.8c-0.5,2.7-3.1,4.5-5.8,4C72,76.2,58,100.8,57.4,101.9z M101,119.3c0,8.6-5.1,15.6-11.5,15.6
		s-11.5-7-11.5-15.6c0-8.6,5.1-15.7,11.5-15.7S101,110.7,101,119.3z M176.3,176.7c-4.4,8.7-14.8,14.9-31,18.4l-0.6,0.1
		c-0.7,0.1-1.5,0.2-2.5,0.4c-5.8,1.1-11.9,1.4-17.4,1.4c-10.9,0-19.6-1.4-19.8-1.4l-0.1,0c-17.3-3.4-28.4-9.6-33.1-18.7
		c-2.6-5.1-2.9-11.1-0.7-15.9c1.9-4.2,5.9-7.1,11.4-8.2c6.8-1.4,14.3,0.2,18.4,3.9c4.3,3.9,16.5,5.3,23.2,5.3
		c6.7,0,18.9-1.5,23.2-5.3c4.1-3.7,11.7-5.3,18.4-3.9c5.4,1.1,9.5,4,11.4,8.2C179.1,165.8,178.9,171.6,176.3,176.7z M148,119.3
		c0-8.6,5.1-15.7,11.5-15.7c6.4,0,11.5,7,11.5,15.7c0,8.6-5.1,15.6-11.5,15.6C153.1,134.9,148,127.9,148,119.3z M197.4,103.9
		c-1.1,0.6-2.3,0.7-3.5,0.5c-1.4-0.3-2.6-1.2-3.3-2.5c-0.6-1.1-14.6-25.7-45.6-20c-2.7,0.5-5.3-1.3-5.8-4c-0.5-2.7,1.3-5.3,4-5.8
		c20-3.7,34.2,3.3,42.6,9.8c9.1,7,13.4,14.9,13.6,15.3C200.7,99.5,199.8,102.6,197.4,103.9z"/>
</g>
</svg>
