<?xml version="1.0" encoding="utf-8"?>
<!-- Generator: Adobe Illustrator 23.1.0, SVG Export Plug-In . SVG Version: 6.00 Build 0)  -->
<svg version="1.1" id="Layer_1" xmlns="http://www.w3.org/2000/svg" xmlns:xlink="http://www.w3.org/1999/xlink" x="0px" y="0px"
	 viewBox="0 0 249 249" style="enable-background:new 0 0 249 249;" xml:space="preserve">
<style type="text/css">
	.st0{fill:#D9D8D7;}
	.st1{fill:#FFFFFF;}
	.st2{fill:none;stroke:#FFFFFF;stroke-width:10;stroke-linecap:round;stroke-linejoin:round;stroke-miterlimit:10;}
	.st3{fill:#72736F;}
</style>
<path class="st0" d="M124.5,0C55.7,0,0,55.7,0,124.5S55.7,249,124.5,249S249,193.3,249,124.5S193.3,0,124.5,0z M47.6,81.4
	c-1.5-2.3-0.8-5.4,1.6-6.9c2.3-1.5,5.4-0.8,6.9,1.5c0.7,1.1,16.3,24.7,46.9,16.9c2.7-0.7,5.4,0.9,6.1,3.6c0.7,2.7-0.9,5.4-3.6,6.1
	c-4.3,1.1-8.4,1.7-12.2,1.8c4.5,2.1,7.8,7.9,7.8,14.8c0,8.6-5.1,15.6-11.5,15.6s-11.5-7-11.5-15.6c0-7.1,3.4-13,8.1-15
	c-10.2-0.9-18.3-4.8-23.9-8.6C52.7,89.4,47.8,81.8,47.6,81.4z M169,197.9c-0.8,0.5-1.8,0.8-2.7,0.8c-1.6,0-3.2-0.8-4.2-2.3
	c-0.5-0.7-11.3-16.6-37.6-16.6c-26.6,0-37.4,16.4-37.6,16.6c-1,1.5-2.6,2.3-4.2,2.3c-0.9,0-1.9-0.3-2.7-0.8c-2.3-1.5-3-4.6-1.5-6.9
	c0.6-0.9,14-21.2,46-21.2s45.4,20.3,46,21.2C172,193.3,171.3,196.4,169,197.9z M148,119.3c0-8.6,5.1-15.7,11.5-15.7
	c6.4,0,11.5,7,11.5,15.7c0,8.6-5.1,15.6-11.5,15.6C153.1,134.9,148,127.9,148,119.3z M201.6,97.5c-0.9,0.8-2.1,1.2-3.3,1.2
	c-1.4,0-2.8-0.6-3.8-1.7c-0.8-0.9-19.9-21.9-48.9-9.5c-2.5,1.1-5.5-0.1-6.6-2.6c-1.1-2.5,0.1-5.5,2.6-6.6c18.7-8,34.1-4.3,43.7,0.2
	c10.4,4.9,16.4,11.6,16.6,11.9C203.9,92.5,203.7,95.7,201.6,97.5z"/>
</svg>
