<?xml version="1.0" encoding="utf-8"?>
<!-- Generator: Adobe Illustrator 23.1.0, SVG Export Plug-In . SVG Version: 6.00 Build 0)  -->
<svg version="1.1" id="Layer_1" xmlns="http://www.w3.org/2000/svg" xmlns:xlink="http://www.w3.org/1999/xlink" x="0px" y="0px"
	 viewBox="0 0 1125 550" style="enable-background:new 0 0 1125 550;" xml:space="preserve">
<style type="text/css">
	.st0{fill:#45484B;}
</style>
<path class="st0" d="M1125-145.8v409.7c-14.5,1.1-29.2,6.3-43,17.8l0,0c-7.3,5-15,11.8-22.4,21c-47.7,49.3-93,120.7-166.7,139.2
	c-7.9,1.7-16.1,2.9-24.7,3.5c-2.8,0.2-5.7,0.3-8.5,0.4c-1.4,0-2.7,0.1-4.2,0.1c-2.3,0-4.6,0.1-6.9,0.1c-37.9,0-73.5-6.2-104.7-17.1
	l0,0c0,0-0.1-0.1-0.2-0.1c-6-2.1-11.9-4.4-17.6-6.8c-24.5-8.3-71.4-19.9-122.6-10.6c-15.3,2.8-31.1,7.4-46.7,14.6
	c-8,4-15.7,8.1-22.9,12.4c-1.9,1.2-3.7,2.3-5.4,3.3c-8.3,5.1-15.9,10.3-22.9,15.4l0,0l0,0c-7,5.1-13.4,10.1-19,14.8
	c-19.2,13.8-46.7,33.6-55.7,39.2c-37.5,20.9-83.2,37.2-123.2,24.5c-66.2-21.1-114.7-91-133.3-121.6c-17.5-30.6-33.8-60-49.7-80.8
	c-8.5-11.2-17.5-20.4-26.5-28.1l0,0c0,0-47.7-45-98.1-41L0-145.8H1125z"/>
</svg>
