<?xml version="1.0" encoding="utf-8"?>
<!-- Generator: Adobe Illustrator 26.0.0, SVG Export Plug-In . SVG Version: 6.00 Build 0)  -->
<svg version="1.1" id="Layer_1" xmlns="http://www.w3.org/2000/svg" xmlns:xlink="http://www.w3.org/1999/xlink" x="0px" y="0px"
	 viewBox="0 0 1125 272" style="enable-background:new 0 0 1125 272;" xml:space="preserve">
<style type="text/css">
	.st0{fill:#45484B;}
</style>
<path class="st0" d="M-0.2,0v171.4h15.6c0,0,12,1.7,20.9,5.5c3.8,1.9,7.8,4.3,11.1,7.4c4.3,4.6,8.3,10.6,10.9,18.2
	c7.8,23.4,42.8,66.2,93.5,66.2c29.8,0,54.3-14.9,70.9-31.9c24-19.6,95.4-65.4,239.8-65.4h0.8c0,0,18.5,0,41.8,0.6
	c0,0,58.2,3.8,109.1,12.4c8.2,1.7,17.8,3.6,28.2,5.6l0,0c4.6,1.1,8.7,1.8,12.4,2.3c48.7,8.8,109.5,18.1,131.6,18.1
	c159.6,0,218.8-38.9,302.2-38.9h36.6V0H-0.2z"/>
</svg>
